<?xml version="1.0" standalone="no"?>
<!DOCTYPE svg PUBLIC "-//W3C//DTD SVG 1.1//EN" "http://www.w3.org/Graphics/SVG/1.1/DTD/svg11.dtd" >
<svg xmlns="http://www.w3.org/2000/svg" xmlns:xlink="http://www.w3.org/1999/xlink" version="1.1">
<metadata>
Created by FontForge 20170924 at Fri Mar 20 08:50:33 2009
 By www-data
(c) 2009 Microsoft Corporation. All Rights Reserved. Portions (c) 2009 DynaComware Corp. All Rights Reserved. Portions (c) 2009 Ascender Corp. All Rights Reserved.
</metadata>
<defs>
<font id="MicrosoftNewTaiLue-Bold" horiz-adv-x="1178" >
  <font-face 
    font-family="Microsoft New Tai Lue"
    font-weight="700"
    font-stretch="normal"
    units-per-em="2048"
    panose-1="2 11 8 2 4 2 4 2 2 3"
    ascent="1638"
    descent="-410"
    x-height="1024"
    cap-height="1434"
    bbox="-219 -780 2482 1892"
    underline-thickness="119"
    underline-position="-237"
    unicode-range="U+000D-FF64"
  />
<missing-glyph horiz-adv-x="1322" 
d="M166 0v1398h990v-1398h-990zM314 148h694v1102h-694v-1102z" />
    <glyph glyph-name=".notdef" horiz-adv-x="1322" 
d="M166 0v1398h990v-1398h-990zM314 148h694v1102h-694v-1102z" />
    <glyph glyph-name="uni000D" unicode="&#xd;" horiz-adv-x="0" 
 />
    <glyph glyph-name="nonmarkingreturn" horiz-adv-x="100" 
 />
    <glyph glyph-name="space" unicode=" " horiz-adv-x="565" 
 />
    <glyph glyph-name="exclam" unicode="!" horiz-adv-x="670" 
d="M500 1434l-39 -988h-256l-37 988h332zM336 -23q-80 0 -132 48.5t-52 117.5q0 72 52.5 118t131.5 46q80 0 131 -46.5t51 -117.5q0 -72 -50.5 -119t-131.5 -47z" />
    <glyph glyph-name="quotedbl" unicode="&#x22;" horiz-adv-x="1010" 
d="M834 1452l-31 -444h-201l-31 444h263zM438 1452l-30 -442h-203l-29 442h262z" />
    <glyph glyph-name="numbersign" unicode="#" horiz-adv-x="1213" 
d="M1176 1069l-39 -180h-185l-55 -248h207l-45 -180h-199l-78 -346h-200l73 346h-229l-74 -346h-200l71 346h-186l37 180h188l53 248h-202l34 180h205l74 356h205l-74 -356h229l76 356h203l-74 -356h185zM750 889h-232l-55 -248h231z" />
    <glyph glyph-name="dollar" unicode="$" 
d="M674 8v-217h-146v211q-203 1 -378 92v277q58 -47 173 -87t205 -46v364q-234 87 -319.5 188.5t-85.5 247.5q0 157 111 267.5t294 128.5v186h146v-182q211 -10 315 -68v-270q-140 85 -315 104v-379q219 -79 314 -180.5t95 -245.5q0 -166 -106 -267.5t-303 -123.5zM528 883
v317q-139 -25 -139 -145q0 -103 139 -172zM674 545v-303q143 22 143 143q0 98 -143 160z" />
    <glyph glyph-name="percent" unicode="%" horiz-adv-x="1776" 
d="M430 707q-153 0 -246.5 97t-93.5 261q0 179 99.5 284t265.5 105q159 0 248.5 -95t89.5 -267q0 -177 -99 -281t-264 -104zM449 1278q-146 0 -146 -203q0 -192 139 -192q142 0 142 200q0 195 -135 195zM1477 1434l-934 -1434h-244l932 1434h246zM1323 -20q-153 0 -246.5 97
t-93.5 261q0 179 99.5 284t265.5 105q160 0 249 -94t89 -266q0 -177 -99 -282t-264 -105zM1339 551q-145 0 -145 -203q0 -192 141 -192q142 0 142 200q0 93 -38 144t-100 51z" />
    <glyph glyph-name="ampersand" unicode="&#x26;" horiz-adv-x="1740" 
d="M1479 -23q-53 0 -100.5 14t-90 38t-80.5 56.5t-72 69.5q-37 -30 -89 -62t-117.5 -57.5t-144.5 -42t-169 -16.5q-117 0 -216.5 28t-171.5 83.5t-112.5 137.5t-40.5 190q0 85 30.5 151.5t79.5 116.5t111 86t126 60q-31 24 -62.5 55.5t-56.5 69t-40.5 81.5t-15.5 93
q0 79 32 140t89.5 103t137.5 64t176 22q92 0 168.5 -23t131.5 -64t85 -98.5t30 -126.5q0 -111 -66.5 -192.5t-187.5 -132.5q48 -22 92 -50t86 -64t82 -81.5t79 -104.5q82 103 117.5 219.5t35.5 242.5q0 38 -4.5 73t-14.5 65h269q11 -32 16 -62t5 -71q0 -97 -20.5 -189
t-57.5 -176t-89.5 -159t-115.5 -140q49 -51 101 -78.5t98 -27.5q48 0 98 10.5t87 29.5v-238q-55 -22 -108.5 -32.5t-119.5 -10.5zM632 216q59 0 111 11.5t98 30.5t85.5 44t72.5 52q-51 80 -101 135.5t-99 95t-97.5 66.5t-97.5 49q-41 -20 -78.5 -44.5t-66.5 -57t-46.5 -74
t-17.5 -95.5q0 -48 17 -87t48.5 -67t75 -43.5t96.5 -15.5zM817 1124q0 29 -11 52t-30 38.5t-43 24t-51 8.5q-33 0 -60.5 -10t-48 -27t-31.5 -40.5t-11 -50.5q0 -56 35 -103t87 -76q33 12 62.5 28t52 38t36 51t13.5 67z" />
    <glyph glyph-name="quotesingle" unicode="'" horiz-adv-x="600" 
d="M430 1452l-31 -442h-200l-29 442h260z" />
    <glyph glyph-name="parenleft" unicode="(" horiz-adv-x="756" 
d="M739 -326h-258q-323 356 -323 875q0 501 323 885h256q-303 -402 -303 -885t305 -875z" />
    <glyph glyph-name="parenright" unicode=")" horiz-adv-x="756" 
d="M274 -326h-256q306 390 306 875q0 481 -306 885h258q324 -385 324 -885q0 -515 -326 -875z" />
    <glyph glyph-name="asterisk" unicode="*" horiz-adv-x="932" 
d="M864 1053l-274 -37l196 -211l-182 -125l-137 254l-137 -254l-183 125l197 211l-274 37l71 202l252 -108l-43 287h234l-43 -287l250 108z" />
    <glyph glyph-name="plus" unicode="+" horiz-adv-x="1448" 
d="M1212 485h-385v-385h-202v385h-387v203h387v387h202v-387h385v-203z" />
    <glyph glyph-name="comma" unicode="," horiz-adv-x="555" 
d="M432 252l-147 -506h-246l102 506h291z" />
    <glyph glyph-name="hyphen" unicode="-" horiz-adv-x="828" 
d="M690 436h-547v221h547v-221z" />
    <glyph glyph-name="period" unicode="." horiz-adv-x="555" 
d="M274 -25q-78 0 -130 48t-52 118q0 72 53.5 118t133.5 46q81 0 132.5 -46.5t51.5 -117.5q0 -73 -52.5 -119.5t-136.5 -46.5z" />
    <glyph glyph-name="slash" unicode="/" horiz-adv-x="908" 
d="M932 1434l-699 -1672h-282l696 1672h285z" />
    <glyph glyph-name="zero" unicode="0" 
d="M582 -25q-512 0 -512 719q0 373 138.5 568.5t401.5 195.5q500 0 500 -731q0 -364 -136.5 -558t-391.5 -194zM596 1217q-205 0 -205 -515q0 -485 201 -485q196 0 196 500t-192 500z" />
    <glyph glyph-name="one" unicode="1" 
d="M1077 0h-907v250h297v893l-305 -66v256l620 125v-1208h295v-250z" />
    <glyph glyph-name="two" unicode="2" 
d="M471 268v-6h582v-262h-944v246l411 393q124 119 174.5 199.5t50.5 169.5q0 198 -213 198q-185 0 -354 -147v278q187 121 422 121q220 0 343.5 -110.5t123.5 -298.5q0 -251 -301 -519z" />
    <glyph glyph-name="three" unicode="3" 
d="M147 47v275q144 -105 336 -105q121 0 188.5 52t67.5 145q0 96 -83.5 148t-229.5 52h-129v242h119q280 0 280 186q0 175 -215 175q-144 0 -280 -93v258q151 76 352 76q220 0 342.5 -99t122.5 -257q0 -281 -285 -352v-5q152 -19 240 -110.5t88 -224.5q0 -201 -147 -318
t-406 -117q-222 0 -361 72z" />
    <glyph glyph-name="four" unicode="4" 
d="M1124 305h-172v-305h-288v305h-625v201l602 928h311v-904h172v-225zM668 1118h-6q-14 -36 -54 -112l-307 -476h363v451q0 60 4 137z" />
    <glyph glyph-name="five" unicode="5" 
d="M164 37v270q147 -90 313 -90q125 0 195.5 59.5t70.5 161.5q0 213 -301 213q-98 0 -237 -18v801h794v-258h-524v-287q63 6 119 6q221 0 346 -116t125 -312q0 -217 -149 -354.5t-404 -137.5q-207 0 -348 62z" />
    <glyph glyph-name="six" unicode="6" 
d="M1008 1419v-264q-109 62 -238 62q-159 0 -256.5 -121.5t-101.5 -325.5h6q103 152 301 152q180 0 285.5 -122t105.5 -323q0 -216 -140 -359t-356 -143q-242 0 -378 175t-136 491q0 372 175 594.5t475 222.5q166 0 258 -39zM612 688q-87 0 -138.5 -61t-51.5 -156
q0 -105 52.5 -179.5t139.5 -74.5q85 0 136 66.5t51 173.5q0 231 -189 231z" />
    <glyph glyph-name="seven" unicode="7" 
d="M1094 1288l-506 -1288h-334l510 1176h-668v258h998v-146z" />
    <glyph glyph-name="eight" unicode="8" 
d="M371 745v5q-246 101 -246 327q0 166 132 273.5t341 107.5q213 0 340 -100.5t127 -259.5q0 -235 -272 -346v-4q146 -43 226.5 -141.5t80.5 -221.5q0 -190 -140.5 -300t-392.5 -110q-218 0 -351.5 107.5t-133.5 284.5q0 257 289 378zM768 1071q0 73 -46.5 116.5
t-123.5 43.5q-75 0 -124.5 -45.5t-49.5 -116.5q0 -134 172 -203q172 71 172 205zM582 625q-201 -79 -201 -242q0 -78 61.5 -129t149.5 -51q95 0 153 50t58 132q0 164 -221 240z" />
    <glyph glyph-name="nine" unicode="9" 
d="M160 31v260q113 -74 272 -74q166 0 256.5 112.5t91.5 319.5l-6 2q-95 -141 -289 -141q-176 0 -291.5 123t-115.5 319q0 229 141 367.5t365 138.5q230 0 366.5 -174t136.5 -498q0 -384 -164.5 -597.5t-459.5 -213.5q-175 0 -303 56zM575 1217q-82 0 -135 -66.5t-53 -171.5
q0 -109 52.5 -171.5t142.5 -62.5q82 0 134 59.5t52 149.5q0 113 -54.5 188t-138.5 75z" />
    <glyph glyph-name="colon" unicode=":" horiz-adv-x="555" 
d="M274 707q-78 0 -130 47.5t-52 117.5q0 72 53.5 118t133.5 46q81 0 132.5 -46.5t51.5 -117.5q0 -73 -52.5 -119t-136.5 -46zM274 -25q-78 0 -130 48t-52 118q0 72 53.5 118t133.5 46q81 0 132.5 -46.5t51.5 -117.5q0 -73 -52.5 -119.5t-136.5 -46.5z" />
    <glyph glyph-name="semicolon" unicode=";" horiz-adv-x="555" 
d="M281 707q-79 0 -131 48t-52 117q0 73 52.5 118.5t132.5 45.5q81 0 132.5 -46.5t51.5 -117.5q0 -73 -51 -119t-135 -46zM432 252l-147 -506h-246l102 506h291z" />
    <glyph glyph-name="less" unicode="&#x3c;" horiz-adv-x="1448" 
d="M1192 63l-934 426v162l934 447v-238l-666 -285v-6l666 -268v-238z" />
    <glyph glyph-name="equal" unicode="=" horiz-adv-x="1448" 
d="M1212 700h-974v205h974v-205zM1212 266h-974v203h974v-203z" />
    <glyph glyph-name="greater" unicode="&#x3e;" horiz-adv-x="1448" 
d="M1192 502l-934 -426v237l668 267v4l-668 286v238l934 -444v-162z" />
    <glyph glyph-name="question" unicode="?" horiz-adv-x="897" 
d="M263 415q-10 26 -15.5 58.5t-5.5 61.5q0 46 9 84t27 71.5t45 64t63 60.5q38 32 66.5 59.5t48.5 55t30 57t10 65.5q0 31 -11 57.5t-31.5 45.5t-50 30t-65.5 11q-78 0 -162 -32.5t-159 -98.5v301q77 46 168 69t188 23q93 0 173 -20.5t139.5 -64.5t93 -112.5t33.5 -164.5
q0 -61 -14 -110.5t-41 -93.5t-67 -84.5t-92 -83.5q-35 -29 -61.5 -54t-44 -49.5t-26.5 -52t-9 -62.5q0 -24 6.5 -49t17.5 -42h-263zM409 -23q-80 0 -133 48q-53 50 -53 118q0 70 53 117t133 47q79 0 131 -47q52 -46 52 -117q0 -72 -51 -119q-52 -47 -132 -47z" />
    <glyph glyph-name="at" unicode="@" horiz-adv-x="1954" 
d="M1122 371h-6q-70 -191 -254 -191q-138 0 -222.5 100t-84.5 277q0 229 117 372.5t282 143.5q149 0 187 -117h4l10 99h225q-45 -426 -45 -557q0 -140 76 -140q80 0 132 106t52 277q0 234 -149 383.5t-416 149.5q-286 0 -475.5 -199.5t-189.5 -486.5q0 -278 167.5 -438
t462.5 -160q225 0 412 86v-191q-171 -73 -440 -73q-369 0 -600.5 211.5t-231.5 568.5q0 364 247 612t636 248q360 0 582.5 -192.5t222.5 -507.5q0 -259 -136 -415.5t-337 -156.5q-99 0 -161 53t-67 138zM989 899q-90 0 -146.5 -102.5t-56.5 -237.5q0 -96 38.5 -149.5
t99.5 -53.5q94 0 148 101t54 270q0 80 -37.5 126t-99.5 46z" />
    <glyph glyph-name="A" unicode="A" horiz-adv-x="1440" 
d="M1425 0h-352l-102 319h-510l-101 -319h-350l522 1434h383zM897 567l-154 482q-17 54 -24 129h-8q-5 -63 -25 -125l-156 -486h367z" />
    <glyph glyph-name="B" unicode="B" horiz-adv-x="1313" 
d="M164 0v1434h522q240 0 369 -88t129 -248q0 -116 -78.5 -203t-200.5 -121v-4q153 -19 244.5 -113t91.5 -229q0 -197 -141 -312.5t-385 -115.5h-551zM487 1196v-340h142q100 0 157.5 48.5t57.5 133.5q0 158 -236 158h-121zM487 616v-378h175q112 0 175.5 52t63.5 142
q0 86 -62.5 135t-174.5 49h-177z" />
    <glyph glyph-name="C" unicode="C" horiz-adv-x="1278" 
d="M1192 51q-157 -76 -410 -76q-330 0 -519 194t-189 517q0 344 212.5 558t551.5 214q210 0 354 -53v-311q-144 86 -328 86q-202 0 -326 -127t-124 -344q0 -208 117 -331.5t315 -123.5q189 0 346 92v-295z" />
    <glyph glyph-name="D" unicode="D" horiz-adv-x="1510" 
d="M164 0v1434h508q764 0 764 -699q0 -335 -208.5 -535t-555.5 -200h-508zM487 1171v-909h160q210 0 329.5 126t119.5 343q0 205 -118.5 322.5t-332.5 117.5h-158z" />
    <glyph glyph-name="E" unicode="E" horiz-adv-x="1090" 
d="M1024 0h-860v1434h827v-263h-504v-319h469v-262h-469v-328h537v-262z" />
    <glyph glyph-name="F" unicode="F" horiz-adv-x="1065" 
d="M993 1171h-506v-352h465v-262h-465v-557h-323v1434h829v-263z" />
    <glyph glyph-name="G" unicode="G" horiz-adv-x="1456" 
d="M1341 96q-210 -121 -522 -121q-346 0 -545.5 191.5t-199.5 527.5q0 338 218 551t580 213q228 0 402 -63v-303q-166 96 -406 96q-201 0 -327.5 -130.5t-126.5 -348.5q0 -221 113.5 -342t306.5 -121q116 0 184 33v280h-287v258h610v-721z" />
    <glyph glyph-name="H" unicode="H" horiz-adv-x="1569" 
d="M1405 0h-324v584h-594v-584h-323v1434h323v-572h594v572h324v-1434z" />
    <glyph glyph-name="I" unicode="I" horiz-adv-x="649" 
d="M607 1434v-250h-120v-934h120v-250h-563v250h120v934h-120v250h563z" />
    <glyph glyph-name="J" unicode="J" horiz-adv-x="912" 
d="M762 569q0 -288 -133.5 -441t-386.5 -153q-113 0 -209 39v303q83 -63 186 -63q221 0 221 328v852h322v-865z" />
    <glyph glyph-name="K" unicode="K" horiz-adv-x="1329" 
d="M1356 0h-408l-418 623q-12 18 -38 79h-5v-702h-323v1434h323v-678h5q12 28 40 80l396 598h385l-500 -684z" />
    <glyph glyph-name="L" unicode="L" horiz-adv-x="1047" 
d="M1018 0h-854v1434h323v-1172h531v-262z" />
    <glyph glyph-name="M" unicode="M" horiz-adv-x="1960" 
d="M1798 0h-319v858q0 139 12 307h-8q-25 -132 -45 -190l-336 -975h-264l-342 965q-14 39 -45 200h-9q13 -212 13 -372v-793h-291v1434h473l293 -850q35 -102 51 -205h6q27 119 57 207l293 848h461v-1434z" />
    <glyph glyph-name="N" unicode="N" horiz-adv-x="1618" 
d="M1454 0h-326l-591 901q-52 79 -72 119h-4q8 -76 8 -232v-788h-305v1434h348l569 -873q39 -59 72 -117h4q-8 50 -8 197v793h305v-1434z" />
    <glyph glyph-name="O" unicode="O" horiz-adv-x="1553" 
d="M770 -25q-308 0 -502 200.5t-194 522.5q0 340 197 550t522 210q307 0 496.5 -201t189.5 -530q0 -338 -196.5 -545t-512.5 -207zM784 1180q-170 0 -270 -127.5t-100 -337.5q0 -213 100 -337t262 -124q167 0 265 120.5t98 334.5q0 223 -95 347t-260 124z" />
    <glyph glyph-name="P" unicode="P" horiz-adv-x="1258" 
d="M487 494v-494h-323v1434h506q542 0 542 -457q0 -216 -155.5 -349.5t-415.5 -133.5h-154zM487 1186v-447h127q258 0 258 226q0 221 -258 221h-127z" />
    <glyph glyph-name="Q" unicode="Q" horiz-adv-x="1553" 
d="M784 1180q-169 0 -270 -128q-100 -127 -100 -337q0 -212 99 -337q100 -124 263 -124q168 0 265 120q98 122 98 335q0 221 -94 345q-94 126 -261 126zM1040 27q52 -56 99 -92t94.5 -57t97.5 -29t109 -8q16 0 35 1.5t38.5 5t37.5 8t33 10.5v-272q-32 -9 -88.5 -18
t-137.5 -9q-98 0 -180.5 32t-158 87.5t-147 130.5t-148.5 161q-147 4 -267 61t-205 153.5t-131.5 226.5t-46.5 279q0 341 196 550q197 210 525 210q305 0 494 -202q190 -200 190 -529q0 -257 -116 -442q-116 -183 -323 -258z" />
    <glyph glyph-name="R" unicode="R" horiz-adv-x="1337" 
d="M1367 0h-371l-223 369q-25 42 -48 75t-46.5 56.5t-49 36t-55.5 12.5h-87v-549h-323v1434h512q522 0 522 -390q0 -75 -23 -138.5t-65 -114.5t-101.5 -88t-132.5 -58v-4q32 -10 62 -32.5t58 -52.5t53.5 -64.5t46.5 -67.5zM487 1192v-399h140q104 0 167 60q64 61 64 151
q0 188 -225 188h-146z" />
    <glyph glyph-name="S" unicode="S" horiz-adv-x="1148" 
d="M98 55v320q87 -73 189 -109.5t206 -36.5q61 0 106.5 11t76 30.5t45.5 46t15 57.5q0 42 -24 75t-65.5 61t-98.5 54t-123 53q-168 70 -250.5 171t-82.5 244q0 112 45 192.5t122.5 132.5t179.5 76.5t216 24.5q112 0 198.5 -13.5t159.5 -41.5v-299q-36 25 -78.5 44
t-87.5 31.5t-89.5 18.5t-84.5 6q-55 0 -100 -10.5t-76 -29.5t-48 -45.5t-17 -59.5q0 -36 19 -64.5t54 -54t85 -50t113 -50.5q86 -36 154.5 -76.5t117.5 -91.5t75 -116.5t26 -152.5q0 -120 -45.5 -201.5t-123.5 -132t-181.5 -72.5t-218.5 -22q-118 0 -224.5 20t-184.5 60z
" />
    <glyph glyph-name="T" unicode="T" horiz-adv-x="1200" 
d="M1171 1171h-409v-1171h-324v1171h-407v263h1140v-263z" />
    <glyph glyph-name="U" unicode="U" horiz-adv-x="1481" 
d="M1333 621q0 -646 -602 -646q-584 0 -584 631v828h324v-832q0 -348 272 -348q267 0 267 336v844h323v-813z" />
    <glyph glyph-name="V" unicode="V" horiz-adv-x="1366" 
d="M1358 1434l-494 -1434h-366l-488 1434h348l299 -998q24 -81 29 -143h6q7 67 31 147l297 994h338z" />
    <glyph glyph-name="W" unicode="W" horiz-adv-x="2058" 
d="M2040 1434l-379 -1434h-358l-238 920q-19 72 -23 161h-4q-9 -98 -26 -161l-244 -920h-373l-377 1434h353l202 -955q13 -61 19 -164h6q4 77 29 168l260 951h346l235 -963q13 -53 23 -154h4q4 79 21 160l198 957h326z" />
    <glyph glyph-name="X" unicode="X" horiz-adv-x="1342" 
d="M1335 0h-383l-247 467q-14 26 -29 96h-4q-7 -33 -33 -100l-248 -463h-385l457 717l-418 717h393l205 -430q24 -51 43 -121h4q12 42 45 125l228 426h360l-430 -711z" />
    <glyph glyph-name="Y" unicode="Y" horiz-adv-x="1243" 
d="M1245 1434l-467 -924v-510h-323v504l-455 930h369l231 -535q6 -15 33 -117h4q13 72 31 113l235 539h342z" />
    <glyph glyph-name="Z" unicode="Z" horiz-adv-x="1243" 
d="M1196 0h-1155v186l735 985h-682v263h1100v-181l-719 -991h721v-262z" />
    <glyph glyph-name="bracketleft" unicode="[" horiz-adv-x="756" 
d="M686 -326h-469v1760h469v-201h-209v-1358h209v-201z" />
    <glyph glyph-name="backslash" unicode="\" horiz-adv-x="893" 
d="M961 -238h-279l-682 1672h281z" />
    <glyph glyph-name="bracketright" unicode="]" horiz-adv-x="756" 
d="M541 -326h-471v201h211v1358h-211v201h471v-1760z" />
    <glyph glyph-name="asciicircum" unicode="^" horiz-adv-x="1448" 
d="M1249 610h-243l-287 586h-4l-271 -586h-241l430 848h162z" />
    <glyph glyph-name="underscore" unicode="_" horiz-adv-x="850" 
d="M850 -297h-850v119h850v-119z" />
    <glyph glyph-name="grave" unicode="`" horiz-adv-x="643" 
d="M596 1186h-227l-314 323h281z" />
    <glyph glyph-name="a" unicode="a" horiz-adv-x="1102" 
d="M985 0h-299v147h-4q-103 -172 -305 -172q-149 0 -234.5 84.5t-85.5 225.5q0 298 353 344l278 37q0 168 -182 168q-183 0 -348 -109v238q66 34 180.5 60t208.5 26q438 0 438 -437v-612zM688 416v69l-186 -24q-154 -20 -154 -139q0 -54 37.5 -88.5t101.5 -34.5
q89 0 145 61.5t56 155.5z" />
    <glyph glyph-name="b" unicode="b" horiz-adv-x="1270" 
d="M453 119h-4v-119h-316v1516h316v-646h4q117 179 333 179q198 0 305 -136t107 -372q0 -256 -125 -411t-334 -155q-189 0 -286 144zM444 551v-105q0 -99 57 -164t146 -65q108 0 167.5 83.5t59.5 236.5q0 127 -54.5 198.5t-155.5 71.5q-95 0 -157.5 -71t-62.5 -185z" />
    <glyph glyph-name="c" unicode="c" horiz-adv-x="983" 
d="M909 37q-107 -62 -309 -62q-236 0 -382 143t-146 369q0 261 156.5 411.5t418.5 150.5q181 0 262 -48v-268q-99 74 -221 74q-136 0 -215.5 -79.5t-79.5 -219.5q0 -136 76 -213.5t209 -77.5q118 0 231 74v-254z" />
    <glyph glyph-name="d" unicode="d" horiz-adv-x="1268" 
d="M1135 0h-316v141h-4q-108 -166 -317 -166q-192 0 -309 135.5t-117 378.5q0 254 129 407t338 153q198 0 276 -142h4v609h316v-1516zM825 498v77q0 100 -58 166t-151 66q-105 0 -164 -82.5t-59 -226.5q0 -135 57 -208t158 -73q96 0 156.5 77t60.5 204z" />
    <glyph glyph-name="e" unicode="e" horiz-adv-x="1108" 
d="M1053 422h-668q16 -223 281 -223q169 0 297 80v-228q-142 -76 -369 -76q-248 0 -385 137.5t-137 383.5q0 255 148 404t364 149q224 0 346.5 -133t122.5 -361v-133zM760 616q0 220 -178 220q-76 0 -131.5 -63t-67.5 -157h377z" />
    <glyph glyph-name="f" unicode="f" horiz-adv-x="785" 
d="M801 1274q-61 24 -117 24q-152 0 -152 -165v-109h234v-233h-234v-791h-315v791h-172v233h172v127q0 175 114 282t310 107q96 0 160 -20v-246z" />
    <glyph glyph-name="g" unicode="g" horiz-adv-x="1268" 
d="M1137 117q0 -285 -165 -441.5t-478 -156.5q-207 0 -328 59v266q158 -92 319 -92q160 0 248 84.5t88 229.5v81h-4q-108 -172 -319 -172q-196 0 -311 138t-115 370q0 260 128 413t337 153q187 0 280 -144h4v119h316v-907zM825 492v81q0 97 -57.5 165.5t-149.5 68.5
q-105 0 -165 -82t-60 -231q0 -128 57 -202.5t156 -74.5q98 0 158.5 75.5t60.5 199.5z" />
    <glyph glyph-name="h" unicode="h" horiz-adv-x="1233" 
d="M1116 0h-315v582q0 225 -164 225q-84 0 -136 -63t-52 -160v-584h-316v1516h316v-644h4q116 177 315 177q348 0 348 -420v-629z" />
    <glyph glyph-name="i" unicode="i" horiz-adv-x="582" 
d="M293 1186q-80 0 -131 47.5t-51 116.5q0 71 51 116t131 45q81 0 131.5 -45t50.5 -116q0 -72 -50.5 -118t-131.5 -46zM449 0h-316v1024h316v-1024z" />
    <glyph glyph-name="j" unicode="j" horiz-adv-x="582" 
d="M293 1186q-80 0 -131 47.5t-51 116.5q0 71 51 116t131 45q81 0 131.5 -45t50.5 -116q0 -72 -50.5 -118t-131.5 -46zM449 18q0 -227 -111 -363t-320 -136q-69 0 -151 30v248q66 -37 117 -37q149 0 149 234v1030h316v-1006z" />
    <glyph glyph-name="k" unicode="k" horiz-adv-x="1145" 
d="M1159 0h-379l-327 508h-4v-508h-316v1516h316v-965h4l305 473h375l-367 -481z" />
    <glyph glyph-name="l" unicode="l" horiz-adv-x="582" 
d="M449 0h-316v1516h316v-1516z" />
    <glyph glyph-name="m" unicode="m" horiz-adv-x="1876" 
d="M1759 0h-315v584q0 223 -164 223q-78 0 -127 -67t-49 -167v-573h-316v590q0 217 -161 217q-81 0 -129.5 -64t-48.5 -174v-569h-316v1024h316v-160h4q49 82 137.5 133.5t193.5 51.5q217 0 297 -191q117 191 344 191q334 0 334 -412v-637z" />
    <glyph glyph-name="n" unicode="n" horiz-adv-x="1239" 
d="M1122 0h-315v569q0 238 -170 238q-82 0 -135 -63t-53 -160v-584h-316v1024h316v-162h4q113 187 329 187q340 0 340 -422v-627z" />
    <glyph glyph-name="o" unicode="o" horiz-adv-x="1252" 
d="M621 -25q-256 0 -402.5 143.5t-146.5 389.5q0 254 152 397.5t411 143.5q255 0 400 -143.5t145 -379.5q0 -255 -149.5 -403t-409.5 -148zM629 807q-112 0 -174 -77t-62 -218q0 -295 238 -295q227 0 227 303q0 287 -229 287z" />
    <glyph glyph-name="p" unicode="p" horiz-adv-x="1270" 
d="M453 119h-4v-590h-316v1495h316v-154h4q117 179 329 179q199 0 307.5 -136.5t108.5 -371.5q0 -256 -126.5 -411t-336.5 -155q-185 0 -282 144zM444 539v-82q0 -106 56 -173t147 -67q108 0 167.5 83.5t59.5 236.5q0 270 -210 270q-97 0 -158.5 -73.5t-61.5 -194.5z" />
    <glyph glyph-name="q" unicode="q" horiz-adv-x="1268" 
d="M1135 -471h-316v612h-4q-107 -166 -315 -166q-193 0 -310.5 134.5t-117.5 377.5q0 256 129 409t336 153q188 0 278 -144h4v119h316v-1495zM825 489v82q0 100 -58 168t-149 68q-105 0 -165 -82.5t-60 -228.5q0 -131 58.5 -205t152.5 -74q100 0 160.5 75t60.5 197z" />
    <glyph glyph-name="r" unicode="r" horiz-adv-x="815" 
d="M801 739q-57 31 -133 31q-103 0 -161 -75.5t-58 -205.5v-489h-316v1024h316v-190h4q75 208 270 208q50 0 78 -12v-291z" />
    <glyph glyph-name="s" unicode="s" horiz-adv-x="901" 
d="M66 27v256q78 -47 155.5 -70t146.5 -23q84 0 132.5 23t48.5 70q0 30 -22 50t-56.5 35t-75.5 27t-79 27q-61 23 -107.5 49.5t-78 61.5t-48 81t-16.5 109q0 86 37.5 148t100 101.5t143 58t167.5 18.5q68 0 138 -10.5t138 -30.5v-244q-60 35 -128.5 52.5t-134.5 17.5
q-31 0 -58.5 -5.5t-48.5 -16t-33 -27t-12 -37.5q0 -28 18 -48t47 -34.5t64.5 -26t70.5 -23.5q63 -22 114 -48t87.5 -61t56 -82t19.5 -112q0 -91 -39.5 -155.5t-105 -105t-151 -59t-177.5 -18.5q-169 0 -313 52z" />
    <glyph glyph-name="t" unicode="t" horiz-adv-x="797" 
d="M752 12q-70 -37 -211 -37q-334 0 -334 347v469h-166v233h166v221l315 90v-311h230v-233h-230v-414q0 -160 127 -160q50 0 103 29v-234z" />
    <glyph glyph-name="u" unicode="u" horiz-adv-x="1239" 
d="M1106 0h-315v156h-5q-117 -181 -313 -181q-356 0 -356 431v618h315v-590q0 -217 172 -217q85 0 136 59.5t51 161.5v586h315v-1024z" />
    <glyph glyph-name="v" unicode="v" horiz-adv-x="1110" 
d="M1108 1024l-381 -1024h-360l-363 1024h338l178 -631q30 -107 35 -182h4q7 71 37 176l182 637h330z" />
    <glyph glyph-name="w" unicode="w" horiz-adv-x="1633" 
d="M1616 1024l-295 -1024h-332l-151 600q-15 60 -17 131h-6q-7 -78 -20 -127l-162 -604h-328l-289 1024h322l141 -668q10 -47 15 -114h6q5 70 18 118l176 664h301l158 -668q6 -25 14 -116h7q5 58 16 116l133 668h293z" />
    <glyph glyph-name="x" unicode="x" horiz-adv-x="1131" 
d="M1122 1024l-338 -496l336 -528h-364l-148 276q-18 33 -43 93h-4q-15 -42 -41 -90l-149 -279h-363l346 510l-325 514h366l146 -287q29 -57 41 -96h4q16 47 43 98l149 285h344z" />
    <glyph glyph-name="y" unicode="y" horiz-adv-x="1102" 
d="M1108 1024l-416 -1106q-150 -399 -452 -399q-115 0 -189 26v252q63 -37 137 -37q122 0 170 115l54 127l-416 1022h350l191 -623q18 -58 28 -137h4q9 58 33 135l193 625h313z" />
    <glyph glyph-name="z" unicode="z" horiz-adv-x="981" 
d="M944 0h-919v131l514 660h-463v233h864v-156l-487 -635h491v-233z" />
    <glyph glyph-name="braceleft" unicode="{" horiz-adv-x="756" 
d="M674 -326q-218 0 -317 80t-99 285v240q0 184 -152 184v184q152 0 152 191v223q0 206 98 289.5t318 83.5v-187q-160 0 -160 -174v-213q0 -240 -154 -303v-4q154 -62 154 -307v-205q0 -98 37.5 -139t122.5 -41v-187z" />
    <glyph glyph-name="bar" unicode="|" horiz-adv-x="668" 
d="M461 -481h-252v2048h252v-2048z" />
    <glyph glyph-name="braceright" unicode="}" horiz-adv-x="756" 
d="M651 463q-153 0 -153 -187v-231q0 -211 -97.5 -291t-316.5 -80v187q84 0 122 40.5t38 137.5v213q0 239 153 299v4q-153 63 -153 313v205q0 174 -160 174v187q218 0 316 -83.5t98 -285.5v-229q0 -189 153 -189v-184z" />
    <glyph glyph-name="asciitilde" unicode="~" horiz-adv-x="1448" 
d="M1255 772q-6 -168 -89.5 -266t-223.5 -98q-106 0 -258 88q-109 63 -156 63q-123 0 -129 -160h-204q6 169 89.5 267t227.5 98q112 0 238 -76q130 -78 180 -78q52 0 85.5 44.5t35.5 117.5h204z" />
    <glyph glyph-name="Adieresis" unicode="&#xc4;" horiz-adv-x="1440" 
d="M1425 0h-352l-102 319h-510l-101 -319h-350l522 1434h383zM897 567l-154 482q-17 54 -24 129h-8q-5 -63 -25 -125l-156 -486h367zM945 1567q-67 0 -110 39t-43 98q0 61 43 99t110 38t110.5 -38.5t43.5 -98.5t-43 -98.5t-111 -38.5zM487 1567q-68 0 -111 39.5t-43 97.5
q0 60 44 98.5t110 38.5q68 0 110.5 -38.5t42.5 -98.5q0 -61 -42.5 -99t-110.5 -38z" />
    <glyph glyph-name="Aring" unicode="&#xc5;" horiz-adv-x="1440" 
d="M1425 0h-352l-102 319h-510l-101 -319h-350l512 1407q-53 54 -53 137q0 106 73.5 169t180.5 63q114 0 184 -63.5t70 -164.5q0 -80 -53 -137zM719 1645q-47 0 -75 -28.5t-28 -70.5q0 -98 103 -98q48 0 77 28.5t29 69.5q0 43 -29.5 71t-76.5 28zM893 584l-152 465
q-13 40 -22 120h-8q-7 -68 -23 -116l-153 -469h358z" />
    <glyph glyph-name="Ccedilla" unicode="&#xc7;" horiz-adv-x="1278" 
d="M1192 51q-157 -76 -410 -76q-330 0 -519 194t-189 517q0 344 212.5 558t551.5 214q210 0 354 -53v-311q-144 86 -328 86q-202 0 -326 -127t-124 -344q0 -208 117 -331.5t315 -123.5q189 0 346 92v-295zM610 -451v138q35 -6 72 -6q123 0 123 73q0 66 -111 66q-13 0 -37 -2
v182h172v-82q187 -8 187 -166q0 -207 -318 -207q-46 0 -88 4z" />
    <glyph glyph-name="Eacute" unicode="&#xc9;" horiz-adv-x="1090" 
d="M1024 0h-860v1434h827v-263h-504v-319h469v-262h-469v-328h537v-262zM934 1890l-313 -323h-228l260 323h281z" />
    <glyph glyph-name="Ntilde" unicode="&#xd1;" horiz-adv-x="1618" 
d="M1454 0h-326l-591 901q-52 79 -72 119h-4q8 -76 8 -232v-788h-305v1434h348l569 -873q39 -59 72 -117h4q-8 50 -8 197v793h305v-1434zM1206 1878q0 -140 -55.5 -216.5t-151.5 -76.5q-86 0 -168 43q-89 47 -123 47q-80 0 -80 -108h-141q0 139 55 216t154 77q81 0 168 -49
q79 -44 120 -44q78 0 78 111h144z" />
    <glyph glyph-name="Odieresis" unicode="&#xd6;" horiz-adv-x="1552" 
d="M770 -25q-308 0 -502 200.5t-194 522.5q0 340 197 550t522 210q307 0 496.5 -201t189.5 -530q0 -338 -196.5 -545t-512.5 -207zM784 1180q-170 0 -270 -127.5t-100 -337.5q0 -213 100 -337t262 -124q167 0 265 120.5t98 334.5q0 223 -95 347t-260 124zM1004 1567
q-67 0 -110 39t-43 98q0 61 43 99t110 38t110.5 -38.5t43.5 -98.5t-43 -98.5t-111 -38.5zM546 1567q-68 0 -111 39.5t-43 97.5q0 60 44 98.5t110 38.5q68 0 110.5 -38.5t42.5 -98.5q0 -61 -42.5 -99t-110.5 -38z" />
    <glyph glyph-name="Udieresis" unicode="&#xdc;" horiz-adv-x="1481" 
d="M1333 621q0 -646 -602 -646q-584 0 -584 631v828h324v-832q0 -348 272 -348q267 0 267 336v844h323v-813zM969 1567q-67 0 -110 39t-43 98q0 61 43 99t110 38t110.5 -38.5t43.5 -98.5t-43 -98.5t-111 -38.5zM511 1567q-68 0 -111 39.5t-43 97.5q0 60 44 98.5t110 38.5
q68 0 110.5 -38.5t42.5 -98.5q0 -61 -42.5 -99t-110.5 -38z" />
    <glyph glyph-name="aacute" unicode="&#xe1;" horiz-adv-x="1102" 
d="M985 0h-299v147h-4q-103 -172 -305 -172q-149 0 -234.5 84.5t-85.5 225.5q0 298 353 344l278 37q0 168 -182 168q-183 0 -348 -109v238q66 34 180.5 60t208.5 26q438 0 438 -437v-612zM688 416v69l-186 -24q-154 -20 -154 -139q0 -54 37.5 -88.5t101.5 -34.5
q89 0 145 61.5t56 155.5zM891 1509l-313 -323h-228l260 323h281z" />
    <glyph glyph-name="agrave" unicode="&#xe0;" horiz-adv-x="1102" 
d="M985 0h-299v147h-4q-103 -172 -305 -172q-149 0 -234.5 84.5t-85.5 225.5q0 298 353 344l278 37q0 168 -182 168q-183 0 -348 -109v238q66 34 180.5 60t208.5 26q438 0 438 -437v-612zM688 416v69l-186 -24q-154 -20 -154 -139q0 -54 37.5 -88.5t101.5 -34.5
q89 0 145 61.5t56 155.5zM775 1186h-227l-314 323h281z" />
    <glyph glyph-name="acircumflex" unicode="&#xe2;" horiz-adv-x="1102" 
d="M985 0h-299v147h-4q-103 -172 -305 -172q-149 0 -234.5 84.5t-85.5 225.5q0 298 353 344l278 37q0 168 -182 168q-183 0 -348 -109v238q66 34 180.5 60t208.5 26q438 0 438 -437v-612zM688 416v69l-186 -24q-154 -20 -154 -139q0 -54 37.5 -88.5t101.5 -34.5
q89 0 145 61.5t56 155.5zM914 1186h-207l-158 188l-147 -188h-207l235 325h248z" />
    <glyph glyph-name="adieresis" unicode="&#xe4;" horiz-adv-x="1102" 
d="M985 0h-299v147h-4q-103 -172 -305 -172q-149 0 -234.5 84.5t-85.5 225.5q0 298 353 344l278 37q0 168 -182 168q-183 0 -348 -109v238q66 34 180.5 60t208.5 26q438 0 438 -437v-612zM688 416v69l-186 -24q-154 -20 -154 -139q0 -54 37.5 -88.5t101.5 -34.5
q89 0 145 61.5t56 155.5zM787 1186q-67 0 -110 39t-43 98q0 61 43 99t110 38t110.5 -38.5t43.5 -98.5t-43 -98.5t-111 -38.5zM329 1186q-68 0 -111 39.5t-43 97.5q0 60 44 98.5t110 38.5q68 0 110.5 -38.5t42.5 -98.5q0 -61 -42.5 -99t-110.5 -38z" />
    <glyph glyph-name="atilde" unicode="&#xe3;" horiz-adv-x="1102" 
d="M985 0h-299v147h-4q-103 -172 -305 -172q-149 0 -234.5 84.5t-85.5 225.5q0 298 353 344l278 37q0 168 -182 168q-183 0 -348 -109v238q66 34 180.5 60t208.5 26q438 0 438 -437v-612zM688 416v69l-186 -24q-154 -20 -154 -139q0 -54 37.5 -88.5t101.5 -34.5
q89 0 145 61.5t56 155.5zM907 1497q0 -140 -55.5 -216.5t-151.5 -76.5q-86 0 -168 43q-89 47 -123 47q-80 0 -80 -108h-141q0 139 55 216t154 77q81 0 168 -49q79 -44 120 -44q78 0 78 111h144z" />
    <glyph glyph-name="aring" unicode="&#xe5;" horiz-adv-x="1102" 
d="M985 0h-299v147h-4q-103 -172 -305 -172q-149 0 -234.5 84.5t-85.5 225.5q0 298 353 344l278 37q0 168 -182 168q-183 0 -348 -109v238q66 34 180.5 60t208.5 26q438 0 438 -437v-612zM688 416v69l-186 -24q-154 -20 -154 -139q0 -54 37.5 -88.5t101.5 -34.5
q89 0 145 61.5t56 155.5zM573 1186q-102 0 -168.5 59.5t-66.5 155.5q0 101 69.5 161t170.5 60q107 0 173 -59.5t66 -155.5q0 -98 -71.5 -159.5t-172.5 -61.5zM573 1499q-96 0 -96 -94t96 -94q45 0 74 27.5t29 66.5q0 41 -28.5 67.5t-74.5 26.5z" />
    <glyph glyph-name="ccedilla" unicode="&#xe7;" horiz-adv-x="983" 
d="M909 37q-107 -62 -309 -62q-236 0 -382 143t-146 369q0 261 156.5 411.5t418.5 150.5q181 0 262 -48v-268q-99 74 -221 74q-136 0 -215.5 -79.5t-79.5 -219.5q0 -136 76 -213.5t209 -77.5q118 0 231 74v-254zM426 -451v138q35 -6 72 -6q123 0 123 73q0 66 -111 66
q-13 0 -37 -2v182h172v-82q187 -8 187 -166q0 -207 -318 -207q-46 0 -88 4z" />
    <glyph glyph-name="eacute" unicode="&#xe9;" horiz-adv-x="1108" 
d="M1053 422h-668q16 -223 281 -223q169 0 297 80v-228q-142 -76 -369 -76q-248 0 -385 137.5t-137 383.5q0 255 148 404t364 149q224 0 346.5 -133t122.5 -361v-133zM760 616q0 220 -178 220q-76 0 -131.5 -63t-67.5 -157h377zM921 1509l-313 -323h-228l260 323h281z" />
    <glyph glyph-name="egrave" unicode="&#xe8;" horiz-adv-x="1108" 
d="M1053 422h-668q16 -223 281 -223q169 0 297 80v-228q-142 -76 -369 -76q-248 0 -385 137.5t-137 383.5q0 255 148 404t364 149q224 0 346.5 -133t122.5 -361v-133zM760 616q0 220 -178 220q-76 0 -131.5 -63t-67.5 -157h377zM795 1186h-227l-314 323h281z" />
    <glyph glyph-name="ecircumflex" unicode="&#xea;" horiz-adv-x="1108" 
d="M1053 422h-668q16 -223 281 -223q169 0 297 80v-228q-142 -76 -369 -76q-248 0 -385 137.5t-137 383.5q0 255 148 404t364 149q224 0 346.5 -133t122.5 -361v-133zM760 616q0 220 -178 220q-76 0 -131.5 -63t-67.5 -157h377zM949 1186h-207l-158 188l-147 -188h-207
l235 325h248z" />
    <glyph glyph-name="edieresis" unicode="&#xeb;" horiz-adv-x="1108" 
d="M1053 422h-668q16 -223 281 -223q169 0 297 80v-228q-142 -76 -369 -76q-248 0 -385 137.5t-137 383.5q0 255 148 404t364 149q224 0 346.5 -133t122.5 -361v-133zM760 616q0 220 -178 220q-76 0 -131.5 -63t-67.5 -157h377zM808 1186q-67 0 -110 39t-43 98q0 61 43 99
t110 38t110.5 -38.5t43.5 -98.5t-43 -98.5t-111 -38.5zM350 1186q-68 0 -111 39.5t-43 97.5q0 60 44 98.5t110 38.5q68 0 110.5 -38.5t42.5 -98.5q0 -61 -42.5 -99t-110.5 -38z" />
    <glyph glyph-name="iacute" unicode="&#xed;" horiz-adv-x="582" 
d="M449 0h-316v1024h316v-1024zM612 1509l-313 -323h-228l260 323h281z" />
    <glyph glyph-name="igrave" unicode="&#xec;" horiz-adv-x="582" 
d="M449 0h-316v1024h316v-1024zM514 1186h-227l-314 323h281z" />
    <glyph glyph-name="icircumflex" unicode="&#xee;" horiz-adv-x="582" 
d="M449 0h-316v1024h316v-1024zM657 1186h-207l-158 188l-147 -188h-207l235 325h248z" />
    <glyph glyph-name="idieresis" unicode="&#xef;" horiz-adv-x="582" 
d="M449 0h-316v1024h316v-1024zM526 1186q-67 0 -110 39t-43 98q0 61 43 99t110 38t110.5 -38.5t43.5 -98.5t-43 -98.5t-111 -38.5zM68 1186q-68 0 -111 39.5t-43 97.5q0 60 44 98.5t110 38.5q68 0 110.5 -38.5t42.5 -98.5q0 -61 -42.5 -99t-110.5 -38z" />
    <glyph glyph-name="ntilde" unicode="&#xf1;" horiz-adv-x="1239" 
d="M1122 0h-315v569q0 238 -170 238q-82 0 -135 -63t-53 -160v-584h-316v1024h316v-162h4q113 187 329 187q340 0 340 -422v-627zM982 1497q0 -140 -55.5 -216.5t-151.5 -76.5q-86 0 -168 43q-89 47 -123 47q-80 0 -80 -108h-141q0 139 55 216t154 77q81 0 168 -49
q79 -44 120 -44q78 0 78 111h144z" />
    <glyph glyph-name="oacute" unicode="&#xf3;" horiz-adv-x="1251" 
d="M621 -25q-256 0 -402.5 143.5t-146.5 389.5q0 254 152 397.5t411 143.5q255 0 400 -143.5t145 -379.5q0 -255 -149.5 -403t-409.5 -148zM629 807q-112 0 -174 -77t-62 -218q0 -295 238 -295q227 0 227 303q0 287 -229 287zM968 1509l-313 -323h-228l260 323h281z" />
    <glyph glyph-name="ograve" unicode="&#xf2;" horiz-adv-x="1251" 
d="M621 -25q-256 0 -402.5 143.5t-146.5 389.5q0 254 152 397.5t411 143.5q255 0 400 -143.5t145 -379.5q0 -255 -149.5 -403t-409.5 -148zM629 807q-112 0 -174 -77t-62 -218q0 -295 238 -295q227 0 227 303q0 287 -229 287zM852 1186h-227l-314 323h281z" />
    <glyph glyph-name="ocircumflex" unicode="&#xf4;" horiz-adv-x="1251" 
d="M621 -25q-256 0 -402.5 143.5t-146.5 389.5q0 254 152 397.5t411 143.5q255 0 400 -143.5t145 -379.5q0 -255 -149.5 -403t-409.5 -148zM629 807q-112 0 -174 -77t-62 -218q0 -295 238 -295q227 0 227 303q0 287 -229 287zM988 1186h-207l-158 188l-147 -188h-207
l235 325h248z" />
    <glyph glyph-name="odieresis" unicode="&#xf6;" horiz-adv-x="1251" 
d="M621 -25q-256 0 -402.5 143.5t-146.5 389.5q0 254 152 397.5t411 143.5q255 0 400 -143.5t145 -379.5q0 -255 -149.5 -403t-409.5 -148zM629 807q-112 0 -174 -77t-62 -218q0 -295 238 -295q227 0 227 303q0 287 -229 287zM859 1186q-67 0 -110 39t-43 98q0 61 43 99
t110 38t110.5 -38.5t43.5 -98.5t-43 -98.5t-111 -38.5zM401 1186q-68 0 -111 39.5t-43 97.5q0 60 44 98.5t110 38.5q68 0 110.5 -38.5t42.5 -98.5q0 -61 -42.5 -99t-110.5 -38z" />
    <glyph glyph-name="otilde" unicode="&#xf5;" horiz-adv-x="1251" 
d="M621 -25q-256 0 -402.5 143.5t-146.5 389.5q0 254 152 397.5t411 143.5q255 0 400 -143.5t145 -379.5q0 -255 -149.5 -403t-409.5 -148zM629 807q-112 0 -174 -77t-62 -218q0 -295 238 -295q227 0 227 303q0 287 -229 287zM985 1497q0 -140 -55.5 -216.5t-151.5 -76.5
q-86 0 -168 43q-89 47 -123 47q-80 0 -80 -108h-141q0 139 55 216t154 77q81 0 168 -49q79 -44 120 -44q78 0 78 111h144z" />
    <glyph glyph-name="uacute" unicode="&#xfa;" horiz-adv-x="1239" 
d="M1106 0h-315v156h-5q-117 -181 -313 -181q-356 0 -356 431v618h315v-590q0 -217 172 -217q85 0 136 59.5t51 161.5v586h315v-1024zM977 1509l-313 -323h-228l260 323h281z" />
    <glyph glyph-name="ugrave" unicode="&#xf9;" horiz-adv-x="1239" 
d="M1106 0h-315v156h-5q-117 -181 -313 -181q-356 0 -356 431v618h315v-590q0 -217 172 -217q85 0 136 59.5t51 161.5v586h315v-1024zM784 1186h-227l-314 323h281z" />
    <glyph glyph-name="ucircumflex" unicode="&#xfb;" horiz-adv-x="1239" 
d="M1106 0h-315v156h-5q-117 -181 -313 -181q-356 0 -356 431v618h315v-590q0 -217 172 -217q85 0 136 59.5t51 161.5v586h315v-1024zM970 1186h-207l-158 188l-147 -188h-207l235 325h248z" />
    <glyph glyph-name="udieresis" unicode="&#xfc;" horiz-adv-x="1239" 
d="M1106 0h-315v156h-5q-117 -181 -313 -181q-356 0 -356 431v618h315v-590q0 -217 172 -217q85 0 136 59.5t51 161.5v586h315v-1024zM844 1186q-67 0 -110 39t-43 98q0 61 43 99t110 38t110.5 -38.5t43.5 -98.5t-43 -98.5t-111 -38.5zM386 1186q-68 0 -111 39.5t-43 97.5
q0 60 44 98.5t110 38.5q68 0 110.5 -38.5t42.5 -98.5q0 -61 -42.5 -99t-110.5 -38z" />
    <glyph glyph-name="dagger" unicode="&#x2020;" horiz-adv-x="832" 
d="M798 868l-273 30l-45 -696h-129l-45 696l-273 -30v226l293 -30l-30 370h239l-30 -370l293 30v-226z" />
    <glyph glyph-name="degree" unicode="&#xb0;" horiz-adv-x="778" 
d="M399 895q-119 0 -201.5 82.5t-82.5 200.5t82.5 199t201.5 81q118 0 201.5 -81t83.5 -199t-83.5 -200.5t-201.5 -82.5zM399 1307q-54 0 -91.5 -37.5t-37.5 -91.5t37.5 -92.5t91.5 -38.5q53 0 91 38.5t38 92.5t-37.5 91.5t-91.5 37.5z" />
    <glyph glyph-name="cent" unicode="&#xa2;" 
d="M1004 207q-73 -42 -181 -55v-189h-161v184q-216 12 -354 151.5t-138 358.5q0 234 134 381.5t358 171.5v211h161v-207q110 -6 181 -45v-272q-76 58 -181 70v-574q108 17 181 68v-254zM662 399v559q-195 -59 -195 -280q0 -222 195 -279z" />
    <glyph glyph-name="sterling" unicode="&#xa3;" 
d="M1114 0h-971v227q193 52 193 269v116h-172v217h172v187q0 198 122 320t330 122q127 0 234 -49v-258q-98 66 -209 66q-184 0 -184 -230v-158h268v-217h-268v-86q0 -184 -152 -284h637v-242z" />
    <glyph glyph-name="section" unicode="&#xa7;" horiz-adv-x="994" 
d="M752 434q82 -75 82 -174q0 -149 -108.5 -237.5t-285.5 -88.5q-163 0 -290 68v248q180 -105 311 -105q127 0 127 99q0 61 -96 108q-141 65 -210 112.5t-110 116.5t-41 150q0 143 125 234q-88 88 -88 215q0 140 102.5 225.5t274.5 85.5q139 0 260 -55v-250q-139 96 -260 96
q-123 0 -123 -94q0 -45 40.5 -77.5t184.5 -96.5q254 -112 254 -309q0 -167 -149 -271zM432 864q-65 -38 -65 -110q0 -57 51 -102t178 -99q66 44 66 123q0 62 -53.5 100.5t-176.5 87.5z" />
    <glyph glyph-name="bullet" unicode="&#x2022;" horiz-adv-x="865" 
d="M434 281q-113 0 -193.5 81t-80.5 195t80 194t194 80t195.5 -80.5t81.5 -193.5t-81.5 -194.5t-195.5 -81.5z" />
    <glyph glyph-name="paragraph" unicode="&#xb6;" horiz-adv-x="1043" 
d="M946 1272h-117v-1272h-174v1272h-118v-1272h-177v836q-115 7 -191.5 92t-76.5 211q0 129 85.5 212t211.5 83h557v-162z" />
    <glyph glyph-name="germandbls" unicode="&#xdf;" horiz-adv-x="1286" 
d="M545 8v262q83 -53 176 -53q83 0 132.5 52.5t49.5 144.5q0 116 -89 183.5t-251 72.5v221q111 8 172.5 68t61.5 159q0 84 -44.5 132t-119.5 48q-184 0 -184 -245v-1053h-316v1049q0 223 137 357t381 134q217 0 343 -109.5t126 -281.5q0 -122 -71.5 -214t-184.5 -126v-4
q363 -69 363 -399q0 -180 -126.5 -305.5t-342.5 -125.5q-105 0 -213 33z" />
    <glyph glyph-name="sfthyphen" unicode="&#xad;" horiz-adv-x="828" 
d="M690 436h-547v221h547v-221z" />
    <glyph glyph-name="registered" unicode="&#xae;" horiz-adv-x="1790" 
d="M893 -25q-333 0 -547.5 207t-214.5 531q0 317 220.5 531t549.5 214q328 0 544 -208.5t216 -532.5q0 -317 -221.5 -529.5t-546.5 -212.5zM897 1346q-275 0 -454 -180t-179 -449q0 -272 181.5 -450.5t451.5 -178.5q265 0 448 179.5t183 447.5q0 272 -180 451.5t-451 179.5z
M1288 264h-254l-76 232q-40 122 -110 122h-74v-354h-211v922h320q370 0 370 -262q0 -189 -217 -244v-4q90 -20 142 -146zM774 1010v-230h111q139 0 139 119q0 111 -160 111h-90z" />
    <glyph glyph-name="copyright" unicode="&#xa9;" horiz-adv-x="1790" 
d="M893 -25q-333 0 -547.5 207t-214.5 531q0 317 220.5 531t549.5 214q328 0 544 -208.5t216 -532.5q0 -317 -221.5 -529.5t-546.5 -212.5zM897 1346q-275 0 -454 -180t-179 -449q0 -272 181.5 -450.5t451.5 -178.5q265 0 448 179.5t183 447.5q0 272 -180 451.5t-451 179.5z
M1204 295q-125 -68 -274 -68q-209 0 -346.5 134t-137.5 335q0 231 143.5 370.5t373.5 139.5q125 0 239 -55v-236q-98 76 -244 76q-115 0 -192.5 -76.5t-77.5 -205.5q0 -122 78.5 -197.5t198.5 -75.5q141 0 239 76v-217z" />
    <glyph glyph-name="trademark" unicode="&#x2122;" horiz-adv-x="1579" 
d="M1395 772h-150v445h-4l-160 -445h-135l-145 445h-6v-445h-148v662h217l156 -453h4l168 453h203v-662zM582 1311h-179v-539h-155v539h-172v123h506v-123z" />
    <glyph glyph-name="acute" unicode="&#xb4;" horiz-adv-x="621" 
d="M596 1509l-313 -323h-228l260 323h281z" />
    <glyph glyph-name="dieresis" unicode="&#xa8;" horiz-adv-x="946" 
d="M698 1186q-67 0 -110 39t-43 98q0 61 43 99t110 38t110.5 -38.5t43.5 -98.5t-43 -98.5t-111 -38.5zM240 1186q-68 0 -111 39.5t-43 97.5q0 60 44 98.5t110 38.5q68 0 110.5 -38.5t42.5 -98.5q0 -61 -42.5 -99t-110.5 -38z" />
    <glyph glyph-name="AE" unicode="&#xc6;" horiz-adv-x="1915" 
d="M1849 0h-858v319h-471l-147 -319h-375l725 1434h1094v-263h-504v-319h469v-262h-469v-328h536v-262zM991 567v604h-78l-282 -604h360z" />
    <glyph glyph-name="Oslash" unicode="&#xd8;" horiz-adv-x="1553" 
d="M348 109l-143 -170l-125 104l149 176q-155 192 -155 479q0 340 196.5 550t522.5 210q234 0 401 -119l129 150l125 -103l-135 -157q166 -196 166 -502q0 -338 -196.5 -545t-512.5 -207q-240 0 -422 134zM1016 1130q-97 76 -232 76q-181 0 -287 -136.5t-106 -360.5
q0 -146 47 -252zM1110 995l-578 -676q101 -92 244 -92q175 0 281 128.5t106 351.5q0 164 -53 288z" />
    <glyph glyph-name="plusminus" unicode="&#xb1;" horiz-adv-x="1448" 
d="M1212 694h-385v-387h-202v387h-383v203h383v391h202v-391h385v-203zM1210 0h-972v203h972v-203z" />
    <glyph glyph-name="yen" unicode="&#xa5;" 
d="M1157 1434l-354 -641h252v-189h-305v-153h305v-189h-305v-262h-308v262h-315v189h315v153h-315v189h256l-342 641h321l246 -570h4q4 11 37 90l203 480h305z" />
    <glyph glyph-name="mu1" unicode="&#xb5;" horiz-adv-x="1255" 
d="M1161 0h-324q-25 70 -25 154h-4q-57 -177 -216 -177q-97 0 -140 64h-3v-436h-316v1419h316v-589q0 -207 170 -207q184 0 184 254v542h319v-710q0 -236 39 -314z" />
    <glyph glyph-name="ordfeminine" unicode="&#xaa;" horiz-adv-x="840" 
d="M739 717h-213v86h-4q-87 -107 -219 -107q-101 0 -166 61t-65 158q0 211 262 244l192 25q0 114 -139 114q-118 0 -246 -77v176q124 57 287 57q311 0 311 -299v-438zM526 985v70l-123 -17q-116 -16 -116 -96q0 -88 104 -88q54 0 94.5 38.5t40.5 92.5z" />
    <glyph glyph-name="ordmasculine" unicode="&#xba;" horiz-adv-x="934" 
d="M459 696q-185 0 -287 99.5t-102 277.5q0 179 108.5 280t292.5 101q181 0 284 -101.5t103 -265.5q0 -184 -106.5 -287.5t-292.5 -103.5zM465 1280q-164 0 -164 -203q0 -207 164 -207q160 0 160 209q0 201 -160 201z" />
    <glyph glyph-name="ae" unicode="&#xe6;" horiz-adv-x="1696" 
d="M1640 422h-667q20 -223 282 -223q160 0 297 80v-226q-156 -78 -378 -78q-269 0 -398 179h-4q-141 -179 -362 -179q-166 0 -259.5 82.5t-93.5 229.5q0 146 96.5 234t276.5 102l256 20q0 191 -184 191q-174 0 -344 -107v236q187 86 370 86q234 0 324 -134h4
q132 134 326 134q214 0 336 -133t122 -365v-129zM1348 616q0 220 -177 220q-75 0 -131.5 -62t-66.5 -158h375zM686 414v45l-156 -13q-184 -15 -184 -131q0 -50 39 -83t102 -33q86 0 142.5 59.5t56.5 155.5z" />
    <glyph glyph-name="oslash" unicode="&#xf8;" horiz-adv-x="1252" 
d="M1206 1010l-139 -146q113 -143 113 -338q0 -259 -148 -404t-411 -145q-198 0 -328 86l-135 -141l-119 107l137 143q-104 141 -104 338q0 253 152.5 397t412.5 144q179 0 311 -82l139 147zM772 791q-56 40 -141 40q-258 0 -258 -317q0 -73 18 -121zM862 651l-393 -409
q61 -45 160 -45q252 0 252 323q0 74 -19 131z" />
    <glyph glyph-name="questiondown" unicode="&#xbf;" horiz-adv-x="897" 
d="M647 611q10 -26 15.5 -58.5t5.5 -61.5q0 -46 -9 -84t-27 -71.5t-45 -64t-63 -60.5q-37 -32 -66 -59.5t-49 -55t-30 -57t-10 -65.5q0 -31 11 -57.5t31.5 -45.5t50 -30t65.5 -11q78 0 162 32.5t159 98.5v-301q-77 -46 -168 -69t-188 -23q-93 0 -173 20.5t-139.5 64.5
t-93 112.5t-33.5 164.5q0 61 14 110.5t41 93.5t67 84.5t92 83.5q35 29 61.5 54t44 49.5t26.5 52t9 62.5q0 24 -6.5 49t-17.5 42h263zM501 1049q81 0 133 -48q53 -50 53 -118q0 -70 -53 -117t-133 -47q-79 0 -131 47q-52 46 -52 117q0 73 51 119q52 47 132 47z" />
    <glyph glyph-name="nonbreakingspace" unicode="&#xa0;" horiz-adv-x="565" 
 />
    <glyph glyph-name="exclamdown" unicode="&#xa1;" horiz-adv-x="670" 
d="M336 721q-81 0 -132.5 46t-51.5 116q0 72 51.5 119t132.5 47q79 0 130.5 -48t51.5 -118q0 -72 -51.5 -117t-130.5 -45zM504 -408h-332l37 990h256z" />
    <glyph glyph-name="logicalnot" unicode="&#xac;" horiz-adv-x="1448" 
d="M1212 266h-202v389h-772v203h974v-592z" />
    <glyph glyph-name="florin" unicode="&#x192;" 
d="M1044 1174q-64 30 -133 30q-124 0 -147 -137l-23 -137h158v-215h-192l-91 -594q-30 -196 -140 -311t-277 -115q-50 0 -121 20v242q39 -20 92 -20q123 0 154 202l88 576h-105v215h142l22 149q25 167 135 267t279 100q82 0 159 -23v-249z" />
    <glyph glyph-name="guillemotleft" unicode="&#xab;" horiz-adv-x="1190" 
d="M1137 201h-269l-327 336l327 344h269l-334 -344zM651 201h-268l-330 336l330 344h266l-334 -344z" />
    <glyph glyph-name="guillemotright" unicode="&#xbb;" horiz-adv-x="1190" 
d="M1137 537l-328 -336h-268l333 336l-331 344h266zM651 537l-329 -336h-269l336 336l-334 344h267z" />
    <glyph glyph-name="ellipsis" unicode="&#x2026;" horiz-adv-x="1868" 
d="M1554 -23q-78 0 -130 48t-52 118q0 72 52.5 118t131.5 46q81 0 133 -46.5t52 -117.5q0 -73 -51.5 -119.5t-135.5 -46.5zM932 -23q-78 0 -129 48t-51 118q0 72 51.5 118t130.5 46q81 0 132.5 -46.5t51.5 -117.5q0 -73 -51.5 -119.5t-134.5 -46.5zM309 -23q-78 0 -129 48
t-51 118q0 72 51.5 118t130.5 46q81 0 133 -46.5t52 -117.5q0 -73 -51.5 -119.5t-135.5 -46.5z" />
    <glyph glyph-name="Agrave" unicode="&#xc0;" horiz-adv-x="1440" 
d="M1425 0h-352l-102 319h-510l-101 -319h-350l522 1434h383zM897 567l-154 482q-17 54 -24 129h-8q-5 -63 -25 -125l-156 -486h367zM916 1567h-227l-314 323h281z" />
    <glyph glyph-name="Atilde" unicode="&#xc3;" horiz-adv-x="1440" 
d="M1425 0h-352l-102 319h-510l-101 -319h-350l522 1434h383zM897 567l-154 482q-17 54 -24 129h-8q-5 -63 -25 -125l-156 -486h367zM1077 1878q0 -140 -55.5 -216.5t-151.5 -76.5q-86 0 -168 43q-89 47 -123 47q-80 0 -80 -108h-141q0 139 55 216t154 77q81 0 168 -49
q79 -44 120 -44q78 0 78 111h144z" />
    <glyph glyph-name="Otilde" unicode="&#xd5;" horiz-adv-x="1552" 
d="M770 -25q-308 0 -502 200.5t-194 522.5q0 340 197 550t522 210q307 0 496.5 -201t189.5 -530q0 -338 -196.5 -545t-512.5 -207zM784 1180q-170 0 -270 -127.5t-100 -337.5q0 -213 100 -337t262 -124q167 0 265 120.5t98 334.5q0 223 -95 347t-260 124zM1147 1878
q0 -140 -55.5 -216.5t-151.5 -76.5q-86 0 -168 43q-89 47 -123 47q-80 0 -80 -108h-141q0 139 55 216t154 77q81 0 168 -49q79 -44 120 -44q78 0 78 111h144z" />
    <glyph glyph-name="OE" unicode="&#x152;" horiz-adv-x="1925" 
d="M1860 0h-828q-26 0 -117 -12q-90 -13 -157 -13q-307 0 -495.5 203t-188.5 520q0 342 194 551t516 209q63 0 151 -12q89 -12 109 -12h783v-263h-504v-323h469v-264h-469v-322h537v-262zM991 305v823q-86 52 -209 52q-168 0 -267 -129.5t-99 -339.5q0 -208 101 -332.5
t261 -124.5q116 0 213 51z" />
    <glyph glyph-name="oe" unicode="&#x153;" horiz-adv-x="1893" 
d="M1837 422h-670q14 -223 283 -223q167 0 295 80v-228q-142 -76 -346 -76q-252 0 -391 189h-4q-137 -187 -408 -187q-234 0 -379 143t-145 388q0 251 147 397t389 146q134 0 238.5 -49.5t154.5 -127.5h5q118 175 376 175q213 0 334 -134t121 -358v-135zM1542 616
q0 220 -174 220q-80 0 -135 -63.5t-66 -156.5h375zM631 807q-113 0 -175.5 -77.5t-62.5 -217.5q0 -293 236 -293q229 0 229 297q0 138 -59.5 214.5t-167.5 76.5z" />
    <glyph glyph-name="endash" unicode="&#x2013;" horiz-adv-x="1024" 
d="M1024 436h-1024v221h1024v-221z" />
    <glyph glyph-name="emdash" unicode="&#x2014;" horiz-adv-x="2048" 
d="M2048 436h-2048v221h2048v-221z" />
    <glyph glyph-name="quotedblleft" unicode="&#x201c;" horiz-adv-x="1010" 
d="M897 1468l-113 -444h-272l190 444h195zM481 1468l-110 -444h-275l189 444h196z" />
    <glyph glyph-name="quotedblright" unicode="&#x201d;" horiz-adv-x="1010" 
d="M915 1468l-190 -444h-197l113 444h274zM500 1468l-193 -444h-194l114 444h273z" />
    <glyph glyph-name="quoteleft" unicode="&#x2018;" horiz-adv-x="594" 
d="M481 1468l-110 -444h-275l189 444h196z" />
    <glyph glyph-name="quoteright" unicode="&#x2019;" horiz-adv-x="594" 
d="M500 1468l-193 -444h-194l114 444h273z" />
    <glyph glyph-name="divide" unicode="&#xf7;" horiz-adv-x="1448" 
d="M731 846q-59 0 -100 40t-41 97q0 62 39.5 103.5t101.5 41.5t99.5 -40t37.5 -103q0 -61 -40.5 -100t-96.5 -39zM1212 485h-974v203h974v-203zM727 47q-59 0 -100 39t-41 96q0 62 39.5 104t101.5 42t99.5 -40.5t37.5 -103.5q0 -61 -40 -99t-97 -38z" />
    <glyph glyph-name="ydieresis" unicode="&#xff;" horiz-adv-x="1102" 
d="M1108 1024l-416 -1106q-150 -399 -452 -399q-115 0 -189 26v252q63 -37 137 -37q122 0 170 115l54 127l-416 1022h350l191 -623q18 -58 28 -137h4q9 58 33 135l193 625h313zM793 1186q-67 0 -110 39t-43 98q0 61 43 99t110 38t110.5 -38.5t43.5 -98.5t-43 -98.5
t-111 -38.5zM335 1186q-68 0 -111 39.5t-43 97.5q0 60 44 98.5t110 38.5q68 0 110.5 -38.5t42.5 -98.5q0 -61 -42.5 -99t-110.5 -38z" />
    <glyph glyph-name="Ydieresis" unicode="&#x178;" horiz-adv-x="1243" 
d="M1245 1434l-467 -924v-510h-323v504l-455 930h369l231 -535q6 -15 33 -117h4q13 72 31 113l235 539h342zM858 1567q-67 0 -110 39t-43 98q0 61 43 99t110 38t110.5 -38.5t43.5 -98.5t-43 -98.5t-111 -38.5zM400 1567q-68 0 -111 39.5t-43 97.5q0 60 44 98.5t110 38.5
q68 0 110.5 -38.5t42.5 -98.5q0 -61 -42.5 -99t-110.5 -38z" />
    <glyph glyph-name="fraction" unicode="&#x2044;" horiz-adv-x="719" 
d="M932 1434l-891 -1434h-244l891 1434h244z" />
    <glyph glyph-name="fraction" unicode="&#x2215;" horiz-adv-x="719" 
d="M932 1434l-891 -1434h-244l891 1434h244z" />
    <glyph glyph-name="Euro" unicode="&#x20ac;" 
d="M1094 45q-118 -72 -308 -72q-225 0 -367 124.5t-188 355.5h-122v190h96q-2 25 -2 59q0 18 4 82h-98v187h127q55 231 208 359t381 128q167 0 269 -55v-260q-112 88 -254 88q-110 0 -193.5 -71t-118.5 -189h426v-187h-456q-4 -59 -4 -82q0 -27 2 -59h458v-190h-428
q75 -252 299 -252q141 0 269 90v-246z" />
    <glyph glyph-name="guilsinglleft" unicode="&#x2039;" horiz-adv-x="705" 
d="M651 201h-268l-330 336l330 344h268l-334 -344z" />
    <glyph glyph-name="guilsinglright" unicode="&#x203a;" horiz-adv-x="705" 
d="M651 537l-329 -336h-269l334 336l-332 344h267z" />
    <glyph glyph-name="daggerdbl" unicode="&#x2021;" horiz-adv-x="832" 
d="M798 482l-298 30l35 -310h-239l35 310l-298 -30v226l268 -30l33 140l-33 140l-268 -30v226l298 -30l-35 310h239l-35 -310l298 30v-226l-268 30l-33 -140l33 -140l268 30v-226z" />
    <glyph glyph-name="periodcentered" unicode="&#xb7;" horiz-adv-x="555" 
d="M274 487q-78 0 -130 48t-52 118q0 72 53.5 118t133.5 46q81 0 132.5 -46.5t51.5 -117.5q0 -73 -52.5 -119.5t-136.5 -46.5z" />
    <glyph glyph-name="periodcentered" unicode="&#x2219;" horiz-adv-x="555" 
d="M274 487q-78 0 -130 48t-52 118q0 72 53.5 118t133.5 46q81 0 132.5 -46.5t51.5 -117.5q0 -73 -52.5 -119.5t-136.5 -46.5z" />
    <glyph glyph-name="quotesinglbase" unicode="&#x201a;" horiz-adv-x="594" 
d="M477 219l-192 -444h-195l115 444h272z" />
    <glyph glyph-name="quotedblbase" unicode="&#x201e;" horiz-adv-x="1010" 
d="M893 219l-193 -444h-194l112 444h275zM477 219l-192 -444h-195l115 444h272z" />
    <glyph glyph-name="perthousand" unicode="&#x2030;" horiz-adv-x="2573" 
d="M430 707q-153 0 -246.5 97t-93.5 261q0 179 99.5 284t265.5 105q159 0 248.5 -95t89.5 -267q0 -177 -99 -281t-264 -104zM449 1278q-146 0 -146 -203q0 -192 139 -192q142 0 142 200q0 195 -135 195zM1477 1434l-934 -1434h-244l934 1434h244zM2118 -20q-153 0 -246.5 97
t-93.5 261q0 179 99.5 284t264.5 105q161 0 250.5 -94t89.5 -266q0 -177 -99.5 -282t-264.5 -105zM2136 551q-145 0 -145 -203q0 -192 139 -192q143 0 143 200q0 93 -38 144t-99 51zM1323 -20q-153 0 -246.5 97t-93.5 261q0 179 99.5 284t265.5 105q160 0 249 -94t89 -266
q0 -177 -99 -282t-264 -105zM1339 551q-145 0 -145 -203q0 -192 141 -192q142 0 142 200q0 93 -38 144t-100 51z" />
    <glyph glyph-name="Acircumflex" unicode="&#xc2;" horiz-adv-x="1440" 
d="M1425 0h-352l-102 319h-510l-101 -319h-350l522 1434h383zM897 567l-154 482q-17 54 -24 129h-8q-5 -63 -25 -125l-156 -486h367zM1078 1567h-207l-158 188l-147 -188h-207l235 325h248z" />
    <glyph glyph-name="Ecircumflex" unicode="&#xca;" horiz-adv-x="1090" 
d="M1024 0h-860v1434h827v-263h-504v-319h469v-262h-469v-328h537v-262zM932 1567h-207l-158 188l-147 -188h-207l235 325h248z" />
    <glyph glyph-name="Aacute" unicode="&#xc1;" horiz-adv-x="1440" 
d="M1425 0h-352l-102 319h-510l-101 -319h-350l522 1434h383zM897 567l-154 482q-17 54 -24 129h-8q-5 -63 -25 -125l-156 -486h367zM1036 1890l-313 -323h-228l260 323h281z" />
    <glyph glyph-name="Edieresis" unicode="&#xcb;" horiz-adv-x="1090" 
d="M1024 0h-860v1434h827v-263h-504v-319h469v-262h-469v-328h537v-262zM812 1567q-67 0 -110 39t-43 98q0 61 43 99t110 38t110.5 -38.5t43.5 -98.5t-43 -98.5t-111 -38.5zM354 1567q-68 0 -111 39.5t-43 97.5q0 60 44 98.5t110 38.5q68 0 110.5 -38.5t42.5 -98.5
q0 -61 -42.5 -99t-110.5 -38z" />
    <glyph glyph-name="Egrave" unicode="&#xc8;" horiz-adv-x="1090" 
d="M1024 0h-860v1434h827v-263h-504v-319h469v-262h-469v-328h537v-262zM766 1567h-227l-314 323h281z" />
    <glyph glyph-name="Iacute" unicode="&#xcd;" horiz-adv-x="649" 
d="M607 1434v-250h-120v-934h120v-250h-563v250h120v934h-120v250h563zM651 1890l-313 -323h-228l260 323h281z" />
    <glyph glyph-name="Icircumflex" unicode="&#xce;" horiz-adv-x="649" 
d="M607 1434v-250h-120v-934h120v-250h-563v250h120v934h-120v250h563zM691 1567h-207l-158 188l-147 -188h-207l235 325h248z" />
    <glyph glyph-name="Idieresis" unicode="&#xcf;" horiz-adv-x="649" 
d="M607 1434v-250h-120v-934h120v-250h-563v250h120v934h-120v250h563zM559 1567q-67 0 -110 39t-43 98q0 61 43 99t110 38t110.5 -38.5t43.5 -98.5t-43 -98.5t-111 -38.5zM101 1567q-68 0 -111 39.5t-43 97.5q0 60 44 98.5t110 38.5q68 0 110.5 -38.5t42.5 -98.5
q0 -61 -42.5 -99t-110.5 -38z" />
    <glyph glyph-name="Igrave" unicode="&#xcc;" horiz-adv-x="649" 
d="M607 1434v-250h-120v-934h120v-250h-563v250h120v934h-120v250h563zM532 1567h-227l-314 323h281z" />
    <glyph glyph-name="Oacute" unicode="&#xd3;" horiz-adv-x="1552" 
d="M770 -25q-308 0 -502 200.5t-194 522.5q0 340 197 550t522 210q307 0 496.5 -201t189.5 -530q0 -338 -196.5 -545t-512.5 -207zM784 1180q-170 0 -270 -127.5t-100 -337.5q0 -213 100 -337t262 -124q167 0 265 120.5t98 334.5q0 223 -95 347t-260 124zM1110 1890
l-313 -323h-228l260 323h281z" />
    <glyph glyph-name="Ocircumflex" unicode="&#xd4;" horiz-adv-x="1552" 
d="M770 -25q-308 0 -502 200.5t-194 522.5q0 340 197 550t522 210q307 0 496.5 -201t189.5 -530q0 -338 -196.5 -545t-512.5 -207zM784 1180q-170 0 -270 -127.5t-100 -337.5q0 -213 100 -337t262 -124q167 0 265 120.5t98 334.5q0 223 -95 347t-260 124zM1149 1567h-207
l-158 188l-147 -188h-207l235 325h248z" />
    <glyph glyph-name="Ograve" unicode="&#xd2;" horiz-adv-x="1552" 
d="M770 -25q-308 0 -502 200.5t-194 522.5q0 340 197 550t522 210q307 0 496.5 -201t189.5 -530q0 -338 -196.5 -545t-512.5 -207zM784 1180q-170 0 -270 -127.5t-100 -337.5q0 -213 100 -337t262 -124q167 0 265 120.5t98 334.5q0 223 -95 347t-260 124zM971 1567h-227
l-314 323h281z" />
    <glyph glyph-name="Uacute" unicode="&#xda;" horiz-adv-x="1481" 
d="M1333 621q0 -646 -602 -646q-584 0 -584 631v828h324v-832q0 -348 272 -348q267 0 267 336v844h323v-813zM1088 1890l-313 -323h-228l260 323h281z" />
    <glyph glyph-name="Ucircumflex" unicode="&#xdb;" horiz-adv-x="1481" 
d="M1333 621q0 -646 -602 -646q-584 0 -584 631v828h324v-832q0 -348 272 -348q267 0 267 336v844h323v-813zM1099 1567h-207l-158 188l-147 -188h-207l235 325h248z" />
    <glyph glyph-name="Ugrave" unicode="&#xd9;" horiz-adv-x="1481" 
d="M1333 621q0 -646 -602 -646q-584 0 -584 631v828h324v-832q0 -348 272 -348q267 0 267 336v844h323v-813zM920 1567h-227l-314 323h281z" />
    <glyph glyph-name="dotlessi" unicode="&#x131;" horiz-adv-x="582" 
d="M449 0h-316v1024h316v-1024z" />
    <glyph glyph-name="circumflex" unicode="&#x2c6;" horiz-adv-x="785" 
d="M750 1186h-207l-158 188l-147 -188h-207l235 325h248z" />
    <glyph glyph-name="tilde" unicode="&#x2dc;" horiz-adv-x="785" 
d="M754 1497q0 -140 -55.5 -216.5t-151.5 -76.5q-86 0 -168 43q-89 47 -123 47q-80 0 -80 -108h-141q0 139 55 216t154 77q81 0 168 -49q79 -44 120 -44q78 0 78 111h144z" />
    <glyph glyph-name="ring" unicode="&#x2da;" horiz-adv-x="555" 
d="M274 1186q-102 0 -168.5 59.5t-66.5 155.5q0 101 69.5 161t170.5 60q107 0 173 -59.5t66 -155.5q0 -98 -71.5 -159.5t-172.5 -61.5zM274 1499q-96 0 -96 -94t96 -94q45 0 74 27.5t29 66.5q0 41 -28.5 67.5t-74.5 26.5z" />
    <glyph glyph-name="cedilla" unicode="&#xb8;" horiz-adv-x="441" 
d="M51 -451v138q35 -6 72 -6q123 0 123 73q0 66 -111 66q-13 0 -37 -2v182h172v-82q187 -8 187 -166q0 -207 -318 -207q-46 0 -88 4z" />
    <glyph glyph-name="caron" unicode="&#x2c7;" horiz-adv-x="785" 
d="M754 1511l-238 -325h-248l-235 325h205l155 -188l156 188h205z" />
    <glyph glyph-name="Scaron" unicode="&#x160;" horiz-adv-x="1148" 
d="M98 55v320q87 -73 189 -109.5t206 -36.5q61 0 106.5 11t76 30.5t45.5 46t15 57.5q0 42 -24 75t-65.5 61t-98.5 54t-123 53q-168 70 -250.5 171t-82.5 244q0 112 45 192.5t122.5 132.5t179.5 76.5t216 24.5q112 0 198.5 -13.5t159.5 -41.5v-299q-36 25 -78.5 44
t-87.5 31.5t-89.5 18.5t-84.5 6q-55 0 -100 -10.5t-76 -29.5t-48 -45.5t-17 -59.5q0 -36 19 -64.5t54 -54t85 -50t113 -50.5q86 -36 154.5 -76.5t117.5 -91.5t75 -116.5t26 -152.5q0 -120 -45.5 -201.5t-123.5 -132t-181.5 -72.5t-218.5 -22q-118 0 -224.5 20t-184.5 60z
M973 1861l-238 -325h-248l-235 325h205l155 -188l156 188h205z" />
    <glyph glyph-name="scaron" unicode="&#x161;" horiz-adv-x="901" 
d="M66 27v256q78 -47 155.5 -70t146.5 -23q84 0 132.5 23t48.5 70q0 30 -22 50t-56.5 35t-75.5 27t-79 27q-61 23 -107.5 49.5t-78 61.5t-48 81t-16.5 109q0 86 37.5 148t100 101.5t143 58t167.5 18.5q68 0 138 -10.5t138 -30.5v-244q-60 35 -128.5 52.5t-134.5 17.5
q-31 0 -58.5 -5.5t-48.5 -16t-33 -27t-12 -37.5q0 -28 18 -48t47 -34.5t64.5 -26t70.5 -23.5q63 -22 114 -48t87.5 -61t56 -82t19.5 -112q0 -91 -39.5 -155.5t-105 -105t-151 -59t-177.5 -18.5q-169 0 -313 52zM811 1511l-238 -325h-248l-235 325h205l155 -188l156 188h205z
" />
    <glyph glyph-name="Zcaron" unicode="&#x17d;" horiz-adv-x="1243" 
d="M1196 0h-1155v186l735 985h-682v263h1100v-181l-719 -991h721v-262zM990 1858l-238 -325h-248l-235 325h205l155 -188l156 188h205z" />
    <glyph glyph-name="zcaron" unicode="&#x17e;" horiz-adv-x="981" 
d="M944 0h-919v131l514 660h-463v233h864v-156l-487 -635h491v-233zM872 1511l-238 -325h-248l-235 325h205l155 -188l156 188h205z" />
    <glyph glyph-name="brokenbar" unicode="&#xa6;" horiz-adv-x="668" 
d="M461 684h-252v883h252v-883zM461 -481h-252v895h252v-895z" />
    <glyph glyph-name="Eth" unicode="&#xd0;" horiz-adv-x="1510" 
d="M164 0v586h-164v266h164v582h508q764 0 764 -699q0 -335 -208.5 -535t-555.5 -200h-508zM487 1171v-319h271v-266h-271v-324h160q210 0 329.5 126t119.5 343q0 205 -118.5 322.5t-332.5 117.5h-158z" />
    <glyph glyph-name="eth" unicode="&#xf0;" horiz-adv-x="1215" 
d="M756 965l4 2q-84 147 -195 237l-291 -143l-81 141l241 115q-157 125 -270 199h352q11 -6 131 -97l273 133l77 -137l-215 -104q361 -291 361 -748q0 -260 -150 -424t-395 -164q-248 0 -387 144.5t-139 394.5q0 231 132.5 378.5t346.5 147.5q117 0 205 -75zM612 807
q-103 0 -161 -78.5t-58 -214.5q0 -140 57 -218.5t158 -78.5q98 0 155.5 81.5t57.5 221.5q0 287 -209 287z" />
    <glyph glyph-name="Yacute" unicode="&#xdd;" horiz-adv-x="1243" 
d="M1245 1434l-467 -924v-510h-323v504l-455 930h369l231 -535q6 -15 33 -117h4q13 72 31 113l235 539h342zM903 1857l-313 -323h-228l260 323h281z" />
    <glyph glyph-name="yacute" unicode="&#xfd;" horiz-adv-x="1102" 
d="M1108 1024l-416 -1106q-150 -399 -452 -399q-115 0 -189 26v252q63 -37 137 -37q122 0 170 115l54 127l-416 1022h350l191 -623q18 -58 28 -137h4q9 58 33 135l193 625h313zM834 1509l-313 -323h-228l260 323h281z" />
    <glyph glyph-name="Thorn" unicode="&#xde;" horiz-adv-x="1258" 
d="M487 281v-281h-323v1434h323v-211h183q542 0 542 -457q0 -216 -155.5 -350.5t-415.5 -134.5h-154zM487 975v-447h127q258 0 258 226q0 221 -258 221h-127z" />
    <glyph glyph-name="thorn" unicode="&#xfe;" horiz-adv-x="1270" 
d="M453 119h-4v-590h-316v1987h316v-646h4q117 179 329 179q199 0 307.5 -136.5t108.5 -371.5q0 -256 -126.5 -411t-336.5 -155q-185 0 -282 144zM444 539v-82q0 -106 56 -173t147 -67q108 0 167.5 83.5t59.5 236.5q0 270 -210 270q-97 0 -158.5 -73.5t-61.5 -194.5z" />
    <glyph glyph-name="multiply" unicode="&#xd7;" horiz-adv-x="1448" 
d="M1210 248l-145 -144l-338 340l-340 -340l-145 146l340 336l-340 340l141 145l344 -340l342 340l139 -151l-338 -334z" />
    <glyph glyph-name="onenumerator" horiz-adv-x="807" 
d="M721 584h-563v172h176v477l-191 -41v180l406 82v-698h172v-172z" />
    <glyph glyph-name="twonumerator" horiz-adv-x="828" 
d="M721 584h-604v157l248 234q77 73 95.5 110t18.5 82q0 42 -28.5 69.5t-75.5 27.5q-98 0 -211 -103v215q118 78 250 78q136 0 215.5 -68.5t79.5 -189.5q0 -70 -37.5 -141t-179.5 -197l-105 -92v-4h334v-178z" />
    <glyph glyph-name="threenumerator" horiz-adv-x="828" 
d="M131 616v181q107 -68 221 -68q150 0 150 102q0 103 -172 103h-117v166h113q149 0 149 96q0 90 -119 90q-107 0 -198 -65v176q99 57 239 57q134 0 211.5 -60.5t77.5 -160.5q0 -147 -143 -195v-4q172 -41 172 -198q0 -123 -98 -198t-257 -75q-133 0 -229 53z" />
    <glyph glyph-name="onehalf" unicode="&#xbd;" horiz-adv-x="1977" 
d="M676 584h-563v172h176v477l-191 -41v180l406 82v-698h172v-172zM1506 1434l-891 -1434h-244l891 1434h244zM1843 0h-604v157l248 234q77 73 95.5 110t18.5 82q0 42 -28.5 69.5t-75.5 27.5q-98 0 -211 -103v215q118 78 250 78q136 0 215.5 -68.5t79.5 -189.5
q0 -70 -37.5 -141t-179.5 -197l-105 -92v-4h334v-178z" />
    <glyph glyph-name="onequarter" unicode="&#xbc;" horiz-adv-x="1950" 
d="M676 584h-563v172h176v477l-191 -41v180l406 82v-698h172v-172zM1505 1434l-891 -1434h-244l891 1434h244zM1845 176h-110v-176h-213v176h-395v141l350 533h258v-519h110v-155zM1526 678h-8q-14 -36 -39 -76l-168 -271h211v263q0 47 4 84z" />
    <glyph glyph-name="threequarters" unicode="&#xbe;" horiz-adv-x="2005" 
d="M131 616v181q107 -68 221 -68q150 0 150 102q0 103 -172 103h-117v166h113q149 0 149 96q0 90 -119 90q-107 0 -198 -65v176q99 57 239 57q134 0 211.5 -60.5t77.5 -160.5q0 -147 -143 -195v-4q172 -41 172 -198q0 -123 -98 -198t-257 -75q-133 0 -229 53zM1565 1434
l-891 -1434h-244l891 1434h244zM1892 176h-110v-176h-213v176h-395v141l350 533h258v-519h110v-155zM1573 678h-8q-14 -36 -39 -76l-168 -271h211v263q0 47 4 84z" />
    <glyph glyph-name="uni00AF" unicode="&#xaf;" horiz-adv-x="850" 
d="M850 1396h-850v120h850v-120z" />
    <glyph glyph-name="uni2015" unicode="&#x2015;" horiz-adv-x="2048" 
d="M2048 436h-2048v221h2048v-221z" />
    <glyph glyph-name="fournumerator" horiz-adv-x="856" 
d="M786 760h-110v-176h-213v176h-395v141l350 533h258v-519h110v-155zM467 1262h-8q-14 -36 -39 -76l-168 -271h211v263q0 47 4 84z" />
    <glyph glyph-name="currency" unicode="&#xa4;" horiz-adv-x="1139" 
d="M1087 358l-141 -145l-143 141q-105 -65 -234 -65q-127 0 -233 65l-143 -141l-142 145l142 138q-66 110 -66 229q0 121 66 229l-142 140l142 145l143 -141q106 65 233 65q129 0 234 -65l143 141l141 -145l-141 -140q68 -111 68 -229q0 -115 -68 -229zM569 965
q-100 0 -169.5 -69.5t-69.5 -168.5t69.5 -168.5t169.5 -69.5t171 69.5t71 168.5q0 98 -73 168t-169 70z" />
    <glyph glyph-name="twosuperior" unicode="&#xb2;" horiz-adv-x="828" 
d="M721 884h-604v157l248 234q77 73 95.5 110t18.5 82q0 42 -28.5 69.5t-75.5 27.5q-98 0 -211 -103v215q118 78 250 78q136 0 215.5 -68.5t79.5 -189.5q0 -70 -37.5 -141t-179.5 -197l-105 -92v-4h334v-178z" />
    <glyph glyph-name="threesuperior" unicode="&#xb3;" horiz-adv-x="828" 
d="M131 916v181q107 -68 221 -68q150 0 150 102q0 103 -172 103h-117v166h113q149 0 149 96q0 90 -119 90q-107 0 -198 -65v176q99 57 239 57q134 0 211.5 -60.5t77.5 -160.5q0 -147 -143 -195v-4q172 -41 172 -198q0 -123 -98 -198t-257 -75q-133 0 -229 53z" />
    <glyph glyph-name="onesuperior" unicode="&#xb9;" horiz-adv-x="807" 
d="M721 884h-563v172h176v477l-191 -41v180l406 82v-698h172v-172z" />
    <glyph glyph-name="uni2012" unicode="&#x2012;" 
d="M1066 436h-964v221h964v-221z" />
    <glyph glyph-name="uni1980" unicode="&#x1980;" horiz-adv-x="1761" 
d="M932 504q0 -118 -37 -215.5t-104 -167.5t-161.5 -108t-209.5 -38q-100 0 -183.5 14t-164.5 54v250q71 -45 139 -62.5t133 -17.5q67 0 116 21.5t81 60t47.5 92t15.5 117.5q0 65 -14.5 121.5t-46 97.5t-81 64.5t-118.5 23.5q-77 0 -144 -21.5t-118 -56.5v258q60 28 136 43
t175 15q127 0 231.5 -39.5t172.5 -116.5q66 71 158.5 112.5t215.5 41.5q125 0 221.5 -33.5t161.5 -94.5t98.5 -147t33.5 -190q0 -81 -17 -146.5t-45.5 -116t-66.5 -85.5t-80 -56q65 -23 110 -66t74 -98.5t42 -119.5t13 -130q0 -266 -139 -405t-414 -139q-233 0 -395 61v262
q91 -42 184 -64t199 -22q109 0 172 76.5t63 222.5q0 153 -49.5 227t-165.5 74h-36v240h10q51 0 90.5 21.5t67.5 58t42.5 86t14.5 106.5q0 111 -49.5 176.5t-149.5 65.5q-61 0 -104 -23t-71 -64.5t-41 -97.5t-13 -122z" />
    <glyph glyph-name="uni1981" unicode="&#x1981;" horiz-adv-x="1761" 
d="M932 504q0 -118 -37 -215.5t-104 -167.5t-161.5 -108t-209.5 -38q-100 0 -183.5 14t-164.5 54v250q71 -45 139 -62.5t133 -17.5q67 0 116 21.5t81 60t47.5 92t15.5 117.5q0 65 -14.5 121.5t-46 97.5t-81 64.5t-118.5 23.5q-77 0 -144 -21.5t-118 -56.5v258q60 28 136 43
t175 15q127 0 231.5 -39.5t172.5 -116.5q66 71 158.5 112.5t215.5 41.5q125 0 221.5 -33.5t161.5 -94.5t98.5 -147t33.5 -190q0 -81 -17 -146.5t-45.5 -116t-66.5 -85.5t-80 -56q65 -23 110 -66t74 -98.5t42 -119.5t13 -130q0 -266 -139 -405t-414 -139q-233 0 -395 61v262
q91 -42 184 -64t199 -22q109 0 172 76.5t63 222.5q0 153 -49.5 227t-165.5 74h-36v240h10q51 0 90.5 21.5t67.5 58t42.5 86t14.5 106.5q0 111 -49.5 176.5t-149.5 65.5q-61 0 -104 -23t-71 -64.5t-41 -97.5t-13 -122zM1256 1186h-207l-158 188l-147 -188h-207l235 325h248z
" />
    <glyph glyph-name="uni1982" unicode="&#x1982;" horiz-adv-x="1855" 
d="M928 874q20 37 51.5 69.5t77.5 56.5t107.5 37.5t140.5 13.5q114 0 203 -36t150.5 -106t93.5 -172t32 -233q0 -124 -31 -222.5t-89.5 -166.5t-142 -104t-188.5 -36q-99 0 -167.5 16t-121.5 42v241q26 -13 51.5 -24.5t54 -20t60 -13.5t68.5 -5q35 0 68 14.5t58.5 49
t40.5 90.5t15 139q0 152 -48 231.5t-155 79.5q-37 0 -69.5 -14t-57 -44t-39 -76t-14.5 -110h-299q0 64 -14.5 110t-39 76t-57 44t-69.5 14q-106 0 -154.5 -79.5t-48.5 -231.5q0 -83 15 -139t40.5 -90.5t58.5 -49t69 -14.5q37 0 68.5 5t59.5 13.5t54 20t51 24.5v-241
q-53 -26 -121.5 -42t-167.5 -16q-104 0 -187.5 36t-142 104t-89.5 166.5t-31 222.5q0 131 32.5 233t95 172t154 106t209.5 36q75 0 133.5 -13.5t103.5 -37.5t76.5 -56.5t51.5 -69.5z" />
    <glyph glyph-name="uni1983" unicode="&#x1983;" horiz-adv-x="1057" 
d="M332 -545q12 -2 24.5 -2h24.5q73 0 124.5 23t84.5 66t48 104.5t15 138.5q0 83 -9 136.5t-21 94.5q-61 -50 -124.5 -73t-146.5 -23q-52 0 -99.5 14.5t-83.5 48t-57.5 87.5t-21.5 133q0 86 27 141t68 87t89.5 44t90.5 12q74 0 136 -20.5t113 -54.5q19 37 28 80t9 90
q0 48 -15 90.5t-46.5 74.5t-78.5 51t-112 19q-54 0 -99.5 -6t-84.5 -16.5t-73 -24.5t-66 -31v254q38 12 76 22.5t81 18t92.5 11.5t110.5 4q134 0 236.5 -31t172 -90.5t105 -145.5t35.5 -196q0 -72 -12.5 -129.5t-33 -103.5t-45.5 -81.5t-50 -64.5q23 -31 47 -72.5
t43.5 -94.5t32 -118t12.5 -143q0 -132 -35.5 -236t-105 -175.5t-171.5 -109.5t-235 -38q-55 0 -100 6v229zM381 137q14 0 32 5t37.5 14.5t37.5 22.5t32 28q-32 28 -67 47.5t-70 19.5t-53.5 -20.5t-18.5 -48.5t16 -48t54 -20z" />
    <glyph glyph-name="uni1984" unicode="&#x1984;" horiz-adv-x="1876" 
d="M1032 373q-63 -105 -122 -180t-121.5 -123.5t-132.5 -71.5t-156 -23t-164 33.5t-136.5 99.5t-93 163.5t-34.5 224.5q0 123 32.5 225t93.5 175t147 113t194 40q58 0 113 -11.5t96 -31.5v-232q-31 16 -75 27.5t-95 11.5q-45 0 -79.5 -23t-57.5 -64t-34.5 -97t-11.5 -123
q0 -74 9 -127t24.5 -86.5t36.5 -49.5t45 -16t47 13t49.5 42t58.5 76.5t74 116.5l105 172q63 105 122 180.5t121.5 125t132.5 73t156 23.5t164 -33.5t136.5 -99.5t93 -163t34.5 -225q0 -123 -32.5 -225t-93.5 -175t-147 -113t-194 -40q-58 0 -113 11.5t-96 31.5v232
q31 -16 75 -27.5t95 -11.5q45 0 79.5 23t57.5 64t34.5 97t11.5 123q0 74 -9 127t-24.5 86.5t-36.5 49.5t-45 16t-45.5 -12.5t-47 -41.5t-56.5 -76t-74 -116zM1621 -416q0 -90 -38 -158t-122 -113.5t-218 -69t-325 -23.5q-117 0 -206 3t-158 8.5t-120.5 13.5t-92.5 18v153
q41 -14 100 -23.5t132.5 -15t160 -8t182.5 -2.5q227 0 342 48t115 161q0 51 -27 85.5t-82 55.5t-138.5 30t-197.5 9q-129 0 -211.5 -7.5t-129.5 -20.5t-65 -31.5t-18 -40.5q0 -28 16.5 -43.5t47.5 -15.5q53 0 99.5 14.5t97 32.5t108.5 32.5t133 14.5q48 0 82 -12t55.5 -33
t31 -48.5t9.5 -58.5q0 -16 -2 -33t-5 -32.5t-7 -28.5t-8 -20h-207q6 12 11 30.5t5 38.5q0 19 -9.5 29t-25.5 10q-28 0 -65 -14.5t-83 -31.5t-101.5 -31.5t-120.5 -14.5q-64 0 -120 13t-97.5 39.5t-65.5 67.5t-24 97q0 70 42 117t125.5 75.5t209 41t292.5 12.5
q180 0 311 -17.5t215.5 -56t125.5 -99.5t41 -147z" />
    <glyph glyph-name="uni1985" unicode="&#x1985;" horiz-adv-x="1300" 
d="M651 811q-75 0 -124 -25t-78 -66.5t-40.5 -96t-11.5 -113.5q0 -75 11.5 -129t31.5 -89t47.5 -54t59.5 -25v-256q-136 14 -227.5 56.5t-146.5 112t-78 165t-23 213.5t33 218t103 172.5t180 113.5t263 41q154 0 263.5 -40.5t179.5 -113t102.5 -172.5t32.5 -219
q0 -118 -25.5 -213.5t-82 -165t-147 -112t-220.5 -56.5v256q33 6 60.5 25t47 54.5t30.5 89.5t11 130q0 63 -12.5 117.5t-42 95t-77.5 63.5t-120 23z" />
    <glyph glyph-name="uni1986" unicode="&#x1986;" horiz-adv-x="1321" 
d="M748 1655q-69 0 -120 -22.5t-87.5 -63t-60.5 -95t-37.5 -119t-19 -135.5t-5.5 -143v-67q54 18 116.5 28.5t137.5 10.5q153 0 262.5 -40.5t179.5 -113t102.5 -172.5t32.5 -219q0 -118 -25.5 -213.5t-82 -165t-147 -112t-220.5 -56.5v256q33 6 60.5 25t47.5 54.5t31 89.5
t11 130q0 63 -12.5 117.5t-42 95t-78 63.5t-119.5 23q-75 0 -124.5 -25t-78 -66.5t-40 -96t-11.5 -113.5q0 -75 11 -129t31 -89t47.5 -54t59.5 -25v-256q-136 14 -227 56.5t-146 112t-78.5 165t-23.5 213.5v467q0 212 32 382t107 289.5t199.5 183.5t310.5 64
q124 0 225 -22.5t164 -63.5v-254q-69 47 -168 76t-214 29z" />
    <glyph glyph-name="uni1987" unicode="&#x1987;" horiz-adv-x="1395" 
d="M395 -23q-72 0 -131.5 23t-102 76t-66 139t-23.5 211q0 131 31.5 244.5t104 197.5t190 132.5t288.5 48.5q185 0 308 -54.5t196 -158.5t103 -253.5t30 -340.5q0 -230 -31.5 -418.5t-106.5 -322.5t-199 -207.5t-310 -73.5q-128 0 -238.5 21t-195.5 65v256q41 -26 84.5 -46
t94 -33.5t108.5 -20.5t128 -7q106 0 172.5 61.5t103.5 169.5t50.5 254.5t13.5 317.5q0 144 -15 249t-50.5 174t-94 102.5t-145.5 33.5q-86 0 -144 -28.5t-93.5 -80t-50.5 -124.5t-15 -162q0 -223 74 -223q13 0 27.5 14t32 35t38.5 46t46.5 46t56 35t67.5 14q87 0 135.5 -67
t48.5 -201q0 -17 -1 -36.5t-2.5 -38t-4 -35.5t-4.5 -29h-211q5 26 7.5 55t2.5 49q0 43 -7 62.5t-21 19.5q-12 0 -25.5 -14t-30.5 -35.5t-37.5 -46t-47.5 -46t-61 -35.5t-77 -14z" />
    <glyph glyph-name="uni1988" unicode="&#x1988;" horiz-adv-x="1288" 
d="M152 609.5q-54 51.5 -54 144.5q0 72 38 127t108 92.5t167.5 56.5t215.5 19q138 0 247.5 -34.5t185.5 -101t116.5 -163.5t40.5 -222q0 -132 -41 -235t-118 -173.5t-187.5 -107.5t-249.5 -37q-130 0 -232 19.5t-172.5 59.5t-107.5 99.5t-37 139.5q0 87 58.5 149t178.5 88v5
q-103 23 -157 74.5zM606 428q-69 0 -111.5 -9.5t-66 -24.5t-31.5 -34t-8 -38q0 -60 57 -93.5t166 -33.5q81 0 135.5 23.5t87.5 66.5t46.5 103.5t13.5 133.5q0 66 -12 123t-42.5 99t-82 66t-129.5 24q-59 0 -100.5 -9t-68 -24t-38.5 -35t-12 -43q0 -30 17 -48.5t46 -28.5
t67.5 -13.5t82.5 -3.5h22v-201h-39z" />
    <glyph glyph-name="uni1989" unicode="&#x1989;" horiz-adv-x="1855" 
d="M819 154q-68 -85 -169.5 -132t-229.5 -47q-100 0 -183.5 14t-164.5 54v250q71 -45 139 -62.5t133 -17.5q67 0 116 21.5t81 60t47.5 92t15.5 117.5q0 65 -14.5 121.5t-46 97.5t-81 64.5t-118.5 23.5q-77 0 -144 -21.5t-118 -56.5v258q60 28 136 43t175 15
q122 0 221.5 -36.5t170 -105t109 -168t38.5 -225.5q0 -70 25 -125.5t66 -94.5t94.5 -60t111.5 -21q55 0 97.5 21.5t71 61t43.5 95.5t15 125q0 65 -13.5 119.5t-41.5 93.5t-71 60.5t-101 21.5q-72 0 -133.5 -21.5t-112.5 -56.5v258q54 29 117.5 43.5t144.5 14.5
q122 0 221.5 -36.5t170 -105t109 -168t38.5 -225.5q0 -128 -37 -228.5t-105 -169.5t-164.5 -105t-215.5 -36q-80 0 -146 12t-120 35t-98 56.5t-79 75.5z" />
    <glyph glyph-name="uni198A" unicode="&#x198a;" horiz-adv-x="1343" 
d="M1368 1659q-39 0 -65 -13t-41.5 -38t-22 -61.5t-6.5 -84.5v-970q0 -120 -35.5 -216t-111 -162.5t-193 -102.5t-281.5 -36q-124 0 -224 19.5t-170 59.5t-108 99.5t-38 139.5q0 87 58.5 149t178.5 88v5q-109 21 -160 77.5t-51 141.5q0 58 22 102.5t59 77.5t85.5 55
t101.5 35.5t107 19t102 5.5q86 0 141.5 -9t102.5 -24v-225q-40 21 -90.5 32t-132.5 11q-51 0 -86.5 -7.5t-57.5 -20.5t-32 -31.5t-10 -41.5q0 -27 10 -46.5t35 -32t66 -19t102 -6.5h22v-201h-39q-70 0 -113 -10t-66 -26t-30.5 -35.5t-7.5 -39.5q0 -57 52.5 -89.5
t170.5 -32.5q97 0 157 25.5t93 75t44.5 122.5t11.5 168v923q0 188 85.5 284.5t272.5 96.5q34 0 60.5 -1.5t47.5 -4t38 -5.5t32 -7v-225q-40 12 -86 12z" />
    <glyph glyph-name="uni198B" unicode="&#x198b;" horiz-adv-x="1300" 
d="M754 213q33 6 60.5 25t47 54.5t30.5 89.5t11 130q0 63 -12.5 117.5t-42 95t-77.5 63.5t-120 23q-75 0 -124 -25t-78 -66.5t-40.5 -96t-11.5 -113.5q0 -75 11.5 -129t31.5 -89t47.5 -54t59.5 -25v-256q-136 14 -227.5 56.5t-146.5 112t-78 165t-23 213.5t33 218t103 172.5
t180 113.5t263 41q154 0 263.5 -40.5t179.5 -113t102.5 -172.5t32.5 -219q0 -70 -10 -133.5t-31.5 -118t-54.5 -98.5t-78 -76q40 -23 71.5 -58.5t54 -80t34.5 -96.5t12 -109q0 -127 -43 -223t-122.5 -160.5t-193 -97.5t-254.5 -33q-127 0 -227.5 15.5t-189.5 47.5v264
q91 -42 198.5 -66t216.5 -24q73 0 126.5 20.5t89 57.5t52.5 88t17 113q0 37 -4 78t-17.5 76t-39.5 58t-70 23h-12v242z" />
    <glyph glyph-name="uni198C" unicode="&#x198c;" horiz-adv-x="1321" 
d="M1077 78q40 -23 72 -58.5t54 -80t34 -96.5t12 -109q0 -127 -42.5 -223t-122 -160.5t-193 -97.5t-254.5 -33q-127 0 -227.5 15.5t-190.5 47.5v264q91 -42 198.5 -66t217.5 -24q73 0 126.5 20.5t89 57.5t52.5 88t17 113q0 37 -4 78t-18 76t-40 58t-70 23h-14v242
q33 6 60.5 25t47.5 54.5t31 89.5t11 130q0 63 -12.5 117.5t-42 95t-78 63.5t-119.5 23q-75 0 -124.5 -25t-78 -66.5t-40 -96t-11.5 -113.5q0 -75 11 -129t31 -89t47.5 -54t59.5 -25v-256q-136 14 -227 56.5t-146 112t-78.5 165t-23.5 213.5v467q0 212 32 382t107 289.5
t199.5 183.5t310.5 64q215 0 389 -84v-252q-49 23 -94.5 41.5t-91.5 31.5t-94.5 19.5t-104.5 6.5q-68 0 -119 -22.5t-87.5 -62.5t-60 -94.5t-37 -118.5t-18.5 -135t-5 -143v-67q54 18 116.5 28.5t137.5 10.5q153 0 262.5 -40.5t179.5 -113t102.5 -172.5t32.5 -219
q0 -141 -42.5 -249t-129.5 -177z" />
    <glyph glyph-name="uni198D" unicode="&#x198d;" horiz-adv-x="1855" 
d="M928 152q-20 -37 -51.5 -69.5t-76.5 -56.5t-103.5 -37.5t-133.5 -13.5q-118 0 -209.5 36.5t-154 106t-95 171.5t-32.5 233q0 125 31 223t89.5 166t142 104t187.5 36q99 0 167.5 -16t121.5 -42v-241q-25 13 -51 24.5t-54 20t-59.5 13.5t-68.5 5q-36 0 -69 -14.5t-58.5 -49
t-40.5 -90.5t-15 -139q0 -151 48.5 -231t154.5 -80q37 0 69.5 14t57 44t39 76t14.5 110h299q0 -64 14.5 -110t39 -76t57 -44t69.5 -14q107 0 155 80t48 231q0 83 -15 139t-40.5 90.5t-58.5 49t-68 14.5q-73 0 -128 -18.5t-106 -44.5v241q53 26 121.5 42t167.5 16
q105 0 188.5 -36t142 -104t89.5 -166t31 -223q0 -131 -32 -233t-93.5 -171.5t-150.5 -106t-203 -36.5q-79 0 -140.5 13.5t-107.5 37.5t-77.5 56.5t-51.5 69.5z" />
    <glyph glyph-name="uni198E" unicode="&#x198e;" horiz-adv-x="2103" 
d="M621 -25q-127 0 -228.5 37t-172.5 106t-109.5 167.5t-38.5 222.5q0 128 40 228.5t114 170t178 106t231 36.5q142 0 250.5 -47t179.5 -132q71 85 177.5 132t266.5 47q119 0 216 -36t165 -105t105 -169.5t37 -228.5q0 -126 -38.5 -225.5t-109 -168t-170 -105t-221.5 -36.5
q-82 0 -145 14.5t-117 43.5v258q51 -35 112 -56.5t134 -21.5q58 0 101 21.5t71 60.5t41.5 93.5t13.5 119.5q0 69 -15 125t-43.5 95.5t-71 61t-97.5 21.5q-56 0 -108.5 -20t-94 -57.5t-67 -90.5t-27.5 -119q0 -127 -38.5 -228.5t-111 -172.5t-176 -109.5t-233.5 -38.5z
M629 807q-113 0 -174.5 -76.5t-61.5 -218.5q0 -295 238 -295q227 0 227 303q0 287 -229 287z" />
    <glyph glyph-name="uni198F" unicode="&#x198f;" horiz-adv-x="1323" 
d="M905 256q0 141 -10 248.5t-39.5 181t-83.5 111t-141 37.5q-115 0 -168 -25t-53 -76q0 -33 17 -53.5t46 -31.5t67.5 -15t82.5 -4h22v-201h-39q-114 0 -165.5 -29t-51.5 -82q0 -36 19.5 -59.5t50 -37.5t67.5 -19.5t72 -5.5q71 0 119.5 9.5t85.5 26.5v-225
q-28 -8 -53.5 -13.5t-53.5 -9.5t-61.5 -6t-77.5 -2q-87 0 -173.5 18t-155.5 56t-112.5 98.5t-43.5 145.5q0 41 14.5 78.5t44 68.5t74 53.5t104.5 34.5v4q-103 25 -157 79.5t-54 150.5q0 75 40 129t111.5 89t169 52t212.5 17q166 0 280.5 -48t185.5 -147t102.5 -251
t31.5 -359q0 -231 -31.5 -419.5t-106.5 -323t-199 -208t-310 -73.5q-128 0 -238.5 21t-195.5 65v256q41 -26 84.5 -46t94 -33.5t108.5 -20.5t128 -7q106 0 172.5 61.5t103.5 169t50.5 254t13.5 316.5z" />
    <glyph glyph-name="uni1990" unicode="&#x1990;" horiz-adv-x="1876" 
d="M1032 373q-63 -105 -122 -180t-121.5 -123.5t-132.5 -71.5t-156 -23t-164 33.5t-136.5 99.5t-93 163.5t-34.5 224.5q0 123 32.5 225t93.5 175t147 113t194 40q58 0 113 -11.5t96 -31.5v-232q-31 16 -75 27.5t-95 11.5q-45 0 -79.5 -23t-57.5 -64t-34.5 -97t-11.5 -123
q0 -74 9 -127t24.5 -86.5t36.5 -49.5t45 -16t47 13t49.5 42t58.5 76.5t74 116.5l105 172q63 105 122 180.5t121.5 125t132.5 73t156 23.5t164 -33.5t136.5 -99.5t93 -163t34.5 -225q0 -123 -32.5 -225t-93.5 -175t-147 -113t-194 -40q-58 0 -113 11.5t-96 31.5v232
q31 -16 75 -27.5t95 -11.5q45 0 79.5 23t57.5 64t34.5 97t11.5 123q0 74 -9 127t-24.5 86.5t-36.5 49.5t-45 16t-45.5 -12.5t-47 -41.5t-56.5 -76t-74 -116zM1393 -121q91 -2 163.5 -21.5t123.5 -56t78.5 -89.5t27.5 -122q0 -83 -38 -151t-116.5 -117t-198 -75.5
t-282.5 -26.5q-65 0 -134 5.5t-133 15t-117.5 21.5t-88.5 25v256q45 -19 103.5 -35.5t122.5 -28.5t130 -19t124 -7q84 0 141.5 13t92.5 34.5t50 50t15 60.5q0 59 -51.5 94t-163.5 35h-113l80 260h221z" />
    <glyph glyph-name="uni1991" unicode="&#x1991;" horiz-adv-x="1376" 
d="M780 834q-75 0 -129 -11t-94 -32v225q57 17 128 25t167 8q76 0 152 -17.5t137 -52.5t99 -87t38 -122q0 -93 -54 -152.5t-157 -82.5v-5q121 -26 179.5 -88t58.5 -149q0 -80 -36 -139.5t-104.5 -99.5t-167.5 -59.5t-225 -19.5q-340 0 -507 238t-173 713q-3 241 45.5 422
t143.5 301.5t234.5 180.5t318.5 60q123 0 212 -22.5t152 -63.5v-254q-69 47 -157 76t-203 29q-217 0 -318.5 -186.5t-101.5 -548.5q0 -203 23 -338.5t68.5 -217t113 -115.5t155.5 -34q65 0 105.5 9.5t63.5 25t31.5 35.5t8.5 41q0 16 -6 34t-29.5 33t-69 25t-124.5 10h-37
v199h16q56 0 98.5 4t72 15.5t44.5 32t15 54.5q0 18 -8.5 36t-29.5 32.5t-57 23.5t-92 9z" />
    <glyph glyph-name="uni1992" unicode="&#x1992;" horiz-adv-x="1550" 
d="M1479 457q0 -111 -27 -199.5t-78 -151t-125.5 -96t-169.5 -33.5q-103 0 -178 49.5t-123 145.5h-6q-51 -96 -126 -145.5t-177 -49.5q-93 0 -166.5 33.5t-125 96t-78.5 151t-27 199.5q0 121 37 229t119 189t212.5 128.5t317.5 47.5q194 0 331 -47.5t223.5 -128.5
t126.5 -189t40 -229zM1157 465q0 69 -21.5 135t-69.5 117t-124.5 82.5t-185.5 31.5q-105 0 -175.5 -31.5t-113.5 -82.5t-61.5 -117t-18.5 -135q0 -130 33 -197t92 -67q62 0 98.5 61t36.5 201v59h256v-59q0 -140 27 -201t94 -61q62 0 97.5 68t35.5 196z" />
    <glyph glyph-name="uni1993" unicode="&#x1993;" horiz-adv-x="1094" 
d="M1094 -256q0 -122 -35 -219.5t-104.5 -165t-173 -103.5t-240.5 -36q-119 0 -216.5 15t-179.5 46v262q91 -42 184 -64t199 -22q55 0 98.5 20.5t74 57.5t47 87.5t16.5 109.5q0 50 -8 94t-28.5 77t-56.5 52.5t-93 19.5q-72 0 -135 2.5t-116 14t-94.5 34.5t-70.5 63
t-44.5 100.5t-15.5 146.5v272q0 128 34.5 213t101 135.5t163 71.5t220.5 21q44 0 88 -4t85 -12t78.5 -20t67.5 -28v-264q-61 41 -132 63.5t-169 22.5q-59 0 -100 -12t-66.5 -39t-37 -70t-11.5 -104v-199q0 -58 15.5 -91t48.5 -49.5t85.5 -21t126.5 -4.5q88 0 160.5 -28.5
t124.5 -86.5t80.5 -147.5t28.5 -210.5z" />
    <glyph glyph-name="uni1994" unicode="&#x1994;" horiz-adv-x="1321" 
d="M883 1509q0 188 85.5 284.5t272.5 96.5q56 0 102.5 -5t75.5 -13v-225q-20 6 -42 9t-44 3q-39 0 -65 -13t-41.5 -38t-22 -61.5t-6.5 -84.5v-942q0 -124 -28 -225t-92 -172t-168.5 -109.5t-258.5 -38.5q-153 0 -263 41t-180 113.5t-103 172.5t-33 218q0 119 23 214
t78 164.5t146.5 112t227.5 56.5v-256q-32 -6 -59.5 -25t-47.5 -54t-31.5 -89t-11.5 -129q0 -59 11.5 -113.5t40.5 -96t78 -66.5t124 -25q72 0 117 23t70.5 63.5t35 95t9.5 117.5v997z" />
    <glyph glyph-name="uni1995" unicode="&#x1995;" horiz-adv-x="1874" 
d="M612 -25q-124 0 -224 19.5t-170 59.5t-108 99.5t-38 139.5q0 87 58.5 149t178.5 88v5q-109 21 -160 77.5t-51 141.5q0 58 22 102.5t59 77.5t85.5 55t101.5 35.5t107 19t102 5.5q86 0 141.5 -9t102.5 -24v-225q-40 21 -90.5 32t-132.5 11q-51 0 -86.5 -7.5t-57.5 -20.5
t-32 -31.5t-10 -41.5q0 -27 10 -46.5t35 -32t66 -19t102 -6.5h22v-201h-39q-70 0 -113 -10t-66 -26t-30.5 -35.5t-7.5 -39.5q0 -57 52.5 -89.5t170.5 -32.5q107 0 217 18t209 55q-37 48 -66 98.5t-48 101t-29 98.5t-10 91q0 75 21 146t69 125.5t127 87.5t196 33
q105 0 182 -28.5t127.5 -79.5t75.5 -121t25 -154q0 -61 -17.5 -119.5t-50 -113.5t-78.5 -104.5t-102 -92.5q80 -41 180 -41q73 0 126 17t98 42v-213q-15 -11 -39.5 -22t-56 -19.5t-67 -14t-71.5 -5.5q-122 0 -224 32.5t-185 87.5q-140 -60 -295.5 -92.5t-313.5 -32.5z
M1190 657q0 -65 22 -131.5t62 -126.5q63 47 96 114t33 155q0 43 -9 75t-23.5 53.5t-34 32.5t-40.5 11t-40.5 -10.5t-34 -32.5t-23 -57t-8.5 -83z" />
    <glyph glyph-name="uni1996" unicode="&#x1996;" horiz-adv-x="1876" 
d="M1032 373q-63 -105 -122 -180t-121.5 -123.5t-132.5 -71.5t-156 -23t-164 33.5t-136.5 99.5t-93 163.5t-34.5 224.5q0 123 32.5 225t93.5 175t147 113t194 40q58 0 113 -11.5t96 -31.5v-232q-31 16 -75 27.5t-95 11.5q-45 0 -79.5 -23t-57.5 -64t-34.5 -97t-11.5 -123
q0 -74 9 -127t24.5 -86.5t36.5 -49.5t45 -16t47 13t49.5 42t58.5 76.5t74 116.5l105 172q63 105 122 180.5t121.5 125t132.5 73t156 23.5t164 -33.5t136.5 -99.5t93 -163t34.5 -225q0 -123 -32.5 -225t-93.5 -175t-147 -113t-194 -40q-58 0 -113 11.5t-96 31.5v232
q31 -16 75 -27.5t95 -11.5q45 0 79.5 23t57.5 64t34.5 97t11.5 123q0 74 -9 127t-24.5 86.5t-36.5 49.5t-45 16t-45.5 -12.5t-47 -41.5t-56.5 -76t-74 -116zM1184 41h225l49 -301h-133q-112 0 -163.5 -35t-51.5 -94q0 -32 15 -60.5t50 -50t92.5 -34.5t141.5 -13
q59 0 124.5 7t129.5 19t122.5 28.5t102.5 35.5v-256q-34 -13 -88 -25t-117.5 -21.5t-133 -15t-134.5 -5.5q-163 0 -282.5 26.5t-198 75.5t-116.5 117t-38 151q0 69 33 122t90.5 89.5t136 56t168.5 21.5z" />
    <glyph glyph-name="uni1997" unicode="&#x1997;" horiz-adv-x="1876" 
d="M928 874q20 37 51.5 69.5t77.5 56.5t107.5 37.5t140.5 13.5q114 0 203 -36t150.5 -106t93.5 -172t32 -233v-627q0 -150 -47 -271.5t-144.5 -207t-248 -132t-357.5 -46.5q-300 0 -452 84.5t-152 249.5q0 81 38 142t107 101t164.5 60t210.5 20q119 0 204 -16t138.5 -44
t78.5 -65.5t24 -79.5q-1 -41 -23 -75.5t-67.5 -60t-116 -40t-168.5 -14.5q-78 0 -132.5 8t-101.5 25v137q50 -23 107.5 -33t114.5 -10q72 0 105.5 19.5t33.5 45.5q0 15 -9.5 28t-32 22.5t-60 15.5t-93.5 6q-66 0 -116.5 -15.5t-85 -41.5t-52.5 -61t-18 -74q0 -38 19 -72
t61 -59.5t110 -40.5t166 -15q99 0 184.5 23.5t149 74t99.5 130.5t36 194v203q-29 -8 -61 -12.5t-64 -4.5q-99 0 -167.5 16t-121.5 42v241q26 -13 51.5 -24.5t54 -20t60 -13.5t68.5 -5q35 0 68 14.5t58.5 49t40.5 90.5t15 139q0 152 -48 231.5t-155 79.5q-37 0 -69.5 -14
t-57 -44t-39 -76t-14.5 -110h-299q0 64 -14.5 110t-39 76t-57 44t-69.5 14q-106 0 -154.5 -79.5t-48.5 -231.5q0 -83 15 -139t40.5 -90.5t58.5 -49t69 -14.5q37 0 68.5 5t59.5 13.5t54 20t51 24.5v-241q-53 -26 -121.5 -42t-167.5 -16q-104 0 -187.5 36t-142 104
t-89.5 166.5t-31 222.5q0 131 32.5 233t95 172t154 106t209.5 36q75 0 133.5 -13.5t103.5 -37.5t76.5 -56.5t51.5 -69.5z" />
    <glyph glyph-name="uni1998" unicode="&#x1998;" horiz-adv-x="1855" 
d="M420 -25q-100 0 -183.5 14t-164.5 54v250q71 -45 139 -62.5t133 -17.5q67 0 116 21.5t81 60t47.5 92t15.5 117.5q0 65 -14.5 121.5t-46 97.5t-81 64.5t-118.5 23.5q-77 0 -144 -21.5t-118 -56.5v258q60 28 136 43t175 15q141 0 246.5 -46t179.5 -133q35 42 79 75.5
t98 56.5t120 35t146 12q119 0 215.5 -36t164.5 -105t105 -169.5t37 -228.5q0 -126 -38.5 -225.5t-109 -168t-170 -105t-221.5 -36.5q-81 0 -144.5 14.5t-117.5 43.5v258q51 -35 112.5 -56.5t133.5 -21.5q58 0 101 21.5t71 60.5t41.5 93.5t13.5 119.5q0 69 -15 125
t-43.5 95.5t-71 61t-97.5 21.5q-58 0 -111.5 -21t-94.5 -59.5t-66 -94t-25 -124.5q0 -128 -37.5 -228t-105.5 -168.5t-162 -104.5t-207 -36z" />
    <glyph glyph-name="uni1999" unicode="&#x1999;" horiz-adv-x="1300" 
d="M651 213q53 0 96 17t68 38q-7 15 -21.5 30t-34.5 27.5t-46 20.5t-58 8q-29 0 -57 -6.5t-53 -17.5t-46 -26t-36 -32q13 -12 34.5 -22.5t47 -19t53 -13t53.5 -4.5zM610 -543q72 0 127.5 29.5t93 83.5t57 130.5t19.5 170.5q0 60 -6 96t-12 56q-47 -20 -109.5 -34t-128.5 -14
q-153 0 -263 41t-180 113.5t-103 172.5t-33 218q0 119 23 214t78 164.5t146.5 112t227.5 56.5v-256q-32 -6 -59.5 -25t-47.5 -54t-31.5 -89t-11.5 -129v-31q23 20 53 36t64.5 27.5t71 18t71.5 6.5q76 0 139.5 -19t106.5 -50v10q0 76 -11 130t-30.5 89.5t-47 54.5t-60.5 25
v256q130 -14 220.5 -56.5t147 -112t82 -164.5t25.5 -214q0 -91 -20 -172t-54 -137q14 -31 26.5 -64t22.5 -73t15.5 -88t5.5 -109q0 -158 -46 -280.5t-128 -206t-195 -127t-246 -43.5q-233 0 -395 61v262q91 -42 190 -64t205 -22z" />
    <glyph glyph-name="uni199A" unicode="&#x199a;" horiz-adv-x="1311" 
d="M918 692q0 110 -3 187t-9.5 138.5t-16.5 117t-23 122.5q-26 -5 -61 -11t-76 -11t-86.5 -8.5t-91.5 -3.5q-103 0 -176.5 26t-121 71.5t-69.5 108t-22 134.5q0 68 24.5 128t79.5 104t143.5 69.5t215.5 25.5q34 0 71.5 -2t74 -5t68.5 -7t54 -8v-234q-25 9 -57.5 17t-66.5 14
t-67 9t-61 3q-114 0 -163.5 -26.5t-49.5 -89.5q0 -68 41.5 -94.5t114.5 -26.5q54 0 117.5 5.5t130 16t134 26.5t130.5 36q62 -184 92.5 -385t30.5 -434q0 -171 -31 -306t-102.5 -229.5t-187.5 -144.5t-286 -50q-130 0 -230.5 15.5t-169.5 51.5t-104.5 94t-35.5 143
q0 92 58.5 152.5t178.5 88.5v4q-54 12 -94 34.5t-66 54.5t-38.5 71t-12.5 84q0 62 19 107t51 76t74.5 49.5t90 29t97 14t94.5 3.5q81 0 143.5 -11t110.5 -26v-222q-43 19 -97 31t-126 12q-80 0 -112.5 -20.5t-32.5 -65.5q0 -25 10 -43t35 -29t66 -16.5t102 -5.5h22v-221h-39
q-70 0 -113 -12.5t-66 -30.5t-30.5 -39t-7.5 -39q0 -27 11 -48t35.5 -35.5t65 -22.5t99.5 -8q97 0 158.5 27.5t97 87t49 154t13.5 228.5z" />
    <glyph glyph-name="uni199B" unicode="&#x199b;" horiz-adv-x="1876" 
d="M1032 373q-63 -105 -122 -180t-121.5 -123.5t-132.5 -71.5t-156 -23t-164 33.5t-136.5 99.5t-93 163.5t-34.5 224.5q0 123 32.5 225t93.5 175t147 113t194 40q58 0 113 -11.5t96 -31.5v-232q-31 16 -75 27.5t-95 11.5q-45 0 -79.5 -23t-57.5 -64t-34.5 -97t-11.5 -123
q0 -74 9 -127t24.5 -86.5t36.5 -49.5t45 -16t47 13t49.5 42t58.5 76.5t74 116.5l105 172q63 105 122 180.5t121.5 125t132.5 73t156 23.5t164 -33.5t136.5 -99.5t93 -163t34.5 -225q0 -123 -32.5 -225t-93.5 -175t-147 -113t-194 -40q-58 0 -113 11.5t-96 31.5v232
q31 -16 75 -27.5t95 -11.5q45 0 79.5 23t57.5 64t34.5 97t11.5 123q0 74 -9 127t-24.5 86.5t-36.5 49.5t-45 16t-45.5 -12.5t-47 -41.5t-56.5 -76t-74 -116zM364 -436q0 78 39 141.5t113 109t180.5 70.5t241.5 25q134 0 240.5 -25t180.5 -70.5t113 -109t39 -141.5
q0 -77 -39 -140.5t-113 -108.5t-180.5 -70t-240.5 -25q-135 0 -241.5 25t-180.5 70t-113 108.5t-39 140.5zM635 -430q0 -100 75 -149.5t224 -49.5t229 49.5t80 149.5q0 51 -20.5 87t-60 58.5t-97 32.5t-131.5 10q-149 0 -224 -42.5t-75 -145.5z" />
    <glyph glyph-name="uni199C" unicode="&#x199c;" horiz-adv-x="1876" 
d="M1032 373q-63 -105 -122 -180t-121.5 -123.5t-132.5 -71.5t-156 -23t-164 33.5t-136.5 99.5t-93 163.5t-34.5 224.5q0 123 32.5 225t93.5 175t147 113t194 40q58 0 113 -11.5t96 -31.5v-232q-31 16 -75 27.5t-95 11.5q-45 0 -79.5 -23t-57.5 -64t-34.5 -97t-11.5 -123
q0 -74 9 -127t24.5 -86.5t36.5 -49.5t45 -16t47 13t49.5 42t58.5 76.5t74 116.5l105 172q63 105 122 180.5t121.5 125t132.5 73t156 23.5t164 -33.5t136.5 -99.5t93 -163t34.5 -225q0 -123 -32.5 -225t-93.5 -175t-147 -113t-194 -40q-58 0 -113 11.5t-96 31.5v232
q31 -16 75 -27.5t95 -11.5q45 0 79.5 23t57.5 64t34.5 97t11.5 123q0 74 -9 127t-24.5 86.5t-36.5 49.5t-45 16t-45.5 -12.5t-47 -41.5t-56.5 -76t-74 -116zM1353 55h246v-530q0 -60 -10 -115t-36 -96.5t-69.5 -66.5t-111.5 -25q-60 0 -124.5 27t-130 68t-131 88t-126.5 88
t-116 68t-101 27q-38 0 -63 -21t-25 -69t23 -74t89 -26q26 0 51 3t47 7t39 9t25 8v-181q-6 -2 -23.5 -6t-41.5 -8t-53.5 -7t-59.5 -3q-108 0 -179.5 23t-113.5 62t-59 91t-17 110q0 57 18 107t57 87.5t100.5 59t148.5 21.5q69 0 138.5 -25t136 -62t128 -81t114.5 -81
t95.5 -62t71.5 -25q34 0 48.5 34.5t14.5 94.5v481z" />
    <glyph glyph-name="uni199D" unicode="&#x199d;" horiz-adv-x="1876" 
d="M418 1028q37 11 78 17t88 6q74 0 133 -13.5t103.5 -37.5t76 -56.5t51.5 -69.5q20 37 51.5 69.5t77.5 56.5t107.5 37.5t140.5 13.5q114 0 203 -36t150.5 -106t93.5 -172t32 -233q0 -124 -31 -222.5t-89.5 -166.5t-142 -104t-187.5 -36q-99 0 -167.5 16t-121.5 42v241
q26 -13 51.5 -24.5t53.5 -20t59.5 -13.5t68.5 -5q36 0 69 14.5t58.5 49t40.5 90.5t15 139q0 152 -48.5 231.5t-154.5 79.5q-37 0 -69.5 -14t-57 -44t-39 -76t-14.5 -110h-299q0 64 -14.5 110t-39 76t-57.5 44t-70 14q-106 0 -154 -79.5t-48 -231.5q0 -83 15 -139t40.5 -90.5
t58.5 -49t68 -14.5q74 0 128 18.5t105 44.5v-241q-52 -26 -120.5 -42t-167.5 -16q-105 0 -188.5 36t-142 104t-89.5 166.5t-31 222.5v432q0 167 27.5 301t96 228t184 144t292.5 50q100 0 202 -19.5t185 -56.5v-258q-91 46 -187 72t-198 26q-74 0 -126.5 -24.5t-85.5 -67.5
t-48.5 -101t-15.5 -126v-76z" />
    <glyph glyph-name="uni199E" unicode="&#x199e;" horiz-adv-x="1252" 
d="M621 -25q-256 0 -402.5 143.5t-146.5 389.5q0 254 152 397.5t411 143.5q255 0 400 -143.5t145 -379.5q0 -255 -149.5 -403t-409.5 -148zM629 807q-112 0 -174 -77t-62 -218q0 -295 238 -295q227 0 227 303q0 287 -229 287z" />
    <glyph glyph-name="uni199F" unicode="&#x199f;" horiz-adv-x="1876" 
d="M733 551q-43 69 -74.5 116t-56.5 76t-46.5 41.5t-45.5 12.5t-45 -16t-36.5 -49.5t-24.5 -86.5t-9 -127q0 -67 11.5 -123t34.5 -97t57.5 -64t79.5 -23q51 0 95 11.5t75 27.5v-232q-41 -20 -96 -31.5t-113 -11.5q-108 0 -194 40t-147 113t-93.5 175t-32.5 225
q0 128 34.5 225t93 163t136.5 99.5t164 33.5t156 -23.5t132.5 -73t121.5 -125t122 -180.5l105 -172q42 -69 74 -116.5t58.5 -76.5t49.5 -42t47 -13t45 16t36.5 49.5t24.5 86.5t9 127q0 67 -11.5 123t-34.5 97t-57.5 64t-79.5 23q-51 0 -95 -11.5t-75 -27.5v232
q41 20 96 31.5t113 11.5q108 0 194 -40t147 -113t93.5 -175t32.5 -225q0 -127 -34.5 -224.5t-93 -163.5t-136.5 -99.5t-164 -33.5t-156 23t-132.5 71.5t-121.5 123.5t-122 180z" />
    <glyph glyph-name="uni19A0" unicode="&#x19a0;" horiz-adv-x="1876" 
d="M1032 373q-63 -105 -122 -180t-121.5 -123.5t-132.5 -71.5t-156 -23t-164 33.5t-136.5 99.5t-93 163.5t-34.5 224.5q0 123 32.5 225t93.5 175t147 113t194 40q58 0 113 -11.5t96 -31.5v-232q-31 16 -75 27.5t-95 11.5q-45 0 -79.5 -23t-57.5 -64t-34.5 -97t-11.5 -123
q0 -74 9 -127t24.5 -86.5t36.5 -49.5t45 -16t47 13t49.5 42t58.5 76.5t74 116.5l105 172q63 105 122 180.5t121.5 125t132.5 73t156 23.5t164 -33.5t136.5 -99.5t93 -163t34.5 -225q0 -123 -32.5 -225t-93.5 -175t-147 -113t-194 -40q-58 0 -113 11.5t-96 31.5v232
q31 -16 75 -27.5t95 -11.5q45 0 79.5 23t57.5 64t34.5 97t11.5 123q0 74 -9 127t-24.5 86.5t-36.5 49.5t-45 16t-45.5 -12.5t-47 -41.5t-56.5 -76t-74 -116z" />
    <glyph glyph-name="uni19A1" unicode="&#x19a1;" horiz-adv-x="1001" 
d="M379 811q-55 0 -101 -8t-83.5 -20.5t-66.5 -27.5t-50 -30v242q54 35 140.5 57.5t205.5 22.5q241 0 371.5 -115t130.5 -344q0 -72 -18 -129t-47.5 -99.5t-68.5 -73t-81 -50.5q65 -24 111 -67.5t76 -101t44 -127t14 -145.5q0 -278 -136 -426.5t-402 -148.5
q-126 0 -221.5 15t-173.5 46v262q91 -42 183.5 -64t199.5 -22q47 0 87 19.5t70 61t47 105.5t17 154q0 53 -7 109t-30 101.5t-65 74.5t-113 29h-37v237h10q58 0 98.5 16t66.5 45t38 71t12 93q0 53 -12.5 96.5t-39.5 75t-68.5 49t-100.5 17.5z" />
    <glyph glyph-name="uni19A2" unicode="&#x19a2;" horiz-adv-x="1300" 
d="M651 213q72 0 120 23t77.5 63.5t42 95t12.5 117.5q0 76 -11 130t-30.5 89.5t-47 54.5t-60.5 25v256q130 -14 220.5 -56.5t147 -112t82 -164.5t25.5 -214t-32.5 -219t-102.5 -172.5t-179.5 -113t-263.5 -40.5q-153 0 -263 41t-180 113.5t-103 172.5t-33 218q0 119 23 214
t78 164.5t146.5 112t227.5 56.5v-256q-32 -6 -59.5 -25t-47.5 -54t-31.5 -89t-11.5 -129q0 -59 11.5 -113.5t40.5 -96t78 -66.5t124 -25z" />
    <glyph glyph-name="uni19A3" unicode="&#x19a3;" horiz-adv-x="1360" 
d="M1327 72q0 -125 -15 -245t-43.5 -229.5t-68.5 -205.5t-90 -172h-340q48 76 91 165t75.5 191t51 216.5t18.5 240.5q0 160 -27 281t-70 209t-97 146.5t-109 93t-105.5 48.5t-85.5 14q-63 0 -95 -20.5t-32 -52.5q0 -28 29 -51.5t72 -48.5t93.5 -55t93.5 -71t72 -96t29 -131
q0 -77 -27 -137t-76.5 -101t-120 -62.5t-157.5 -21.5q-91 0 -158.5 12t-109.5 34v233q16 -10 39.5 -20t50.5 -18.5t55.5 -13.5t53.5 -5q51 0 79.5 30.5t28.5 73.5q0 42 -27.5 71.5t-68.5 54t-89.5 50t-89.5 60t-68.5 83t-27.5 119.5q0 81 34 139t94 95.5t143 55.5t180 18
q106 0 208 -31.5t192.5 -90.5t166.5 -144.5t131 -194t86 -238.5t31 -278z" />
    <glyph glyph-name="uni19A4" unicode="&#x19a4;" horiz-adv-x="1001" 
d="M379 811q-55 0 -101 -8t-83.5 -20.5t-66.5 -27.5t-50 -30v242q54 35 140.5 57.5t205.5 22.5q241 0 371.5 -115t130.5 -344q0 -72 -18 -129t-47.5 -99.5t-68.5 -73t-81 -50.5q65 -24 111 -67.5t76 -101t44 -127t14 -145.5q0 -278 -136 -426.5t-402 -148.5
q-126 0 -221.5 15t-173.5 46v262q91 -42 183.5 -64t199.5 -22q47 0 87 19.5t70 61t47 105.5t17 154q0 53 -7 109t-30 101.5t-65 74.5t-113 29h-37v237h10q58 0 98.5 16t66.5 45t38 71t12 93q0 53 -12.5 96.5t-39.5 75t-68.5 49t-100.5 17.5zM826 1186h-207l-158 188
l-147 -188h-207l235 325h248z" />
    <glyph glyph-name="uni19A5" unicode="&#x19a5;" horiz-adv-x="1300" 
d="M651 213q72 0 120 23t77.5 63.5t42 95t12.5 117.5q0 76 -11 130t-30.5 89.5t-47 54.5t-60.5 25v256q130 -14 220.5 -56.5t147 -112t82 -164.5t25.5 -214t-32.5 -219t-102.5 -172.5t-179.5 -113t-263.5 -40.5q-153 0 -263 41t-180 113.5t-103 172.5t-33 218q0 119 23 214
t78 164.5t146.5 112t227.5 56.5v-256q-32 -6 -59.5 -25t-47.5 -54t-31.5 -89t-11.5 -129q0 -59 11.5 -113.5t40.5 -96t78 -66.5t124 -25zM1010 1186h-207l-158 188l-147 -188h-207l235 325h248z" />
    <glyph glyph-name="uni19A6" unicode="&#x19a6;" horiz-adv-x="1855" 
d="M928 874q20 37 51.5 69.5t77.5 56.5t107.5 37.5t140.5 13.5q114 0 203 -36t150.5 -106t93.5 -172t32 -233q0 -124 -31 -222.5t-89.5 -166.5t-142 -104t-188.5 -36q-99 0 -167.5 16t-121.5 42v241q26 -13 51.5 -24.5t54 -20t60 -13.5t68.5 -5q35 0 68 14.5t58.5 49
t40.5 90.5t15 139q0 152 -48 231.5t-155 79.5q-37 0 -69.5 -14t-57 -44t-39 -76t-14.5 -110h-299q0 64 -14.5 110t-39 76t-57 44t-69.5 14q-106 0 -154.5 -79.5t-48.5 -231.5q0 -83 15 -139t40.5 -90.5t58.5 -49t69 -14.5q37 0 68.5 5t59.5 13.5t54 20t51 24.5v-241
q-53 -26 -121.5 -42t-167.5 -16q-104 0 -187.5 36t-142 104t-89.5 166.5t-31 222.5q0 131 32.5 233t95 172t154 106t209.5 36q75 0 133.5 -13.5t103.5 -37.5t76.5 -56.5t51.5 -69.5zM354 -436q0 78 39 141.5t113 109t180.5 70.5t241.5 25q134 0 240.5 -25t180.5 -70.5
t113 -109t39 -141.5q0 -77 -39 -140.5t-113 -108.5t-180.5 -70t-240.5 -25q-135 0 -241.5 25t-180.5 70t-113 108.5t-39 140.5zM625 -430q0 -100 75 -149.5t224 -49.5t229 49.5t80 149.5q0 51 -20.5 87t-60 58.5t-97 32.5t-131.5 10q-149 0 -224 -42.5t-75 -145.5z" />
    <glyph glyph-name="uni19A7" unicode="&#x19a7;" horiz-adv-x="1065" 
d="M903 297q59 -66 94 -140.5t58 -156.5h-326q-5 26 -12 47.5t-23 50.5q-33 -26 -67 -47t-73.5 -36t-86 -23t-105.5 -8q-56 0 -111 18t-98.5 54t-70.5 90t-27 126q0 75 28.5 129.5t74 90.5t102.5 53.5t115 17.5q85 0 153 -18t123 -62q5 19 8 38.5t3 51.5q0 50 -15.5 94.5
t-47.5 77.5t-81.5 52.5t-118.5 19.5q-94 0 -171 -22t-142 -56v254q38 12 76 22.5t81 18t93 11.5t110 4q140 0 243 -36t171 -99t101.5 -149t33.5 -187q0 -55 -8.5 -98.5t-22 -77.5t-30 -60t-31.5 -45zM383 170q29 0 57 10.5t53 26.5t45.5 35.5t34.5 38.5q-40 37 -84.5 62.5
t-103.5 25.5q-46 0 -77.5 -26.5t-31.5 -74.5q0 -23 8.5 -41t23.5 -31t34.5 -19.5t40.5 -6.5zM102 -436q0 78 31 141.5t88 109t136 70.5t175 25t175.5 -25t136 -70.5t88 -109t31.5 -141.5q0 -77 -31.5 -140.5t-88 -108.5t-136 -70t-175.5 -25t-175 25t-136 70t-88 108.5
t-31 140.5zM334 -436q0 -101 52 -147t142 -46q94 0 149.5 46t55.5 147q0 53 -14.5 90t-41 60t-64.5 33.5t-85 10.5q-45 0 -81 -10.5t-61 -33.5t-38.5 -60t-13.5 -90z" />
    <glyph glyph-name="uni19A8" unicode="&#x19a8;" horiz-adv-x="1300" 
d="M651 811q-75 0 -124 -25t-78 -66.5t-40.5 -96t-11.5 -113.5q0 -75 11.5 -129t31.5 -89t47.5 -54t59.5 -25v-256q-136 14 -227.5 56.5t-146.5 112t-78 165t-23 213.5t33 218t103 172.5t180 113.5t263 41q154 0 263.5 -40.5t179.5 -113t102.5 -172.5t32.5 -219
q0 -118 -25.5 -213.5t-82 -165t-147 -112t-220.5 -56.5v256q33 6 60.5 25t47 54.5t30.5 89.5t11 130q0 63 -12.5 117.5t-42 95t-77.5 63.5t-120 23zM220 -436q0 78 31 141.5t88 109t136 70.5t175 25t175 -25t136 -70.5t88 -109t31 -141.5q0 -77 -31 -140.5t-88 -108.5
t-136 -70t-175 -25t-175 25t-136 70t-88 108.5t-31 140.5zM451 -436q0 -101 52 -147t143 -46q94 0 149.5 46t55.5 147q0 53 -14.5 90t-41 60t-64.5 33.5t-85 10.5q-45 0 -81.5 -10.5t-61.5 -33.5t-38.5 -60t-13.5 -90z" />
    <glyph glyph-name="uni19A9" unicode="&#x19a9;" horiz-adv-x="1321" 
d="M748 1655q-69 0 -120 -22.5t-87.5 -63t-60.5 -95t-37.5 -119t-19 -135.5t-5.5 -143v-67q54 18 116.5 28.5t137.5 10.5q153 0 262.5 -40.5t179.5 -113t102.5 -172.5t32.5 -219q0 -118 -25.5 -213.5t-82 -165t-147 -112t-220.5 -56.5v256q33 6 60.5 25t47.5 54.5t31 89.5
t11 130q0 63 -12.5 117.5t-42 95t-78 63.5t-119.5 23q-75 0 -124.5 -25t-78 -66.5t-40 -96t-11.5 -113.5q0 -75 11 -129t31 -89t47.5 -54t59.5 -25v-256q-136 14 -227 56.5t-146 112t-78.5 165t-23.5 213.5v467q0 212 32 382t107 289.5t199.5 183.5t310.5 64
q124 0 225 -22.5t164 -63.5v-254q-69 47 -168 76t-214 29zM231 -436q0 78 31 141.5t88 109t136 70.5t175 25t175 -25t136 -70.5t88 -109t31 -141.5q0 -77 -31 -140.5t-88 -108.5t-136 -70t-175 -25t-175 25t-136 70t-88 108.5t-31 140.5zM462 -436q0 -101 52 -147t143 -46
q94 0 149.5 46t55.5 147q0 53 -14.5 90t-41 60t-64.5 33.5t-85 10.5q-45 0 -81.5 -10.5t-61.5 -33.5t-38.5 -60t-13.5 -90z" />
    <glyph glyph-name="uni19B0" unicode="&#x19b0;" horiz-adv-x="1038" 
d="M803 190q0 22 -6 47t-11 39h183q5 -7 11.5 -34t6.5 -56q0 -103 -47.5 -152.5t-161.5 -49.5q-65 0 -114.5 22t-89 55t-71.5 71.5t-61 71.5t-57.5 55t-62.5 22q-9 0 -19.5 -2.5t-20 -9t-16 -18.5t-6.5 -30q0 -26 13.5 -42.5t37.5 -16.5q22 0 38 4t36 10v-176
q-9 -5 -35 -10.5t-76 -5.5q-109 0 -166 59t-57 162q0 57 21 101t57 74t85 46t105 16q64 0 113.5 -22t89.5 -55t72 -71.5t60.5 -71.5t56 -55t57.5 -22q20 0 27.5 13.5t7.5 31.5zM803 797q0 21 -6 46.5t-11 39.5h183q5 -8 11.5 -34.5t6.5 -55.5q0 -103 -47.5 -153t-161.5 -50
q-65 0 -114.5 22t-89 55t-71.5 71.5t-61 71.5t-57.5 55t-62.5 22q-9 0 -19.5 -2.5t-20 -9t-16 -18t-6.5 -30.5q0 -26 13.5 -42.5t37.5 -16.5q22 0 38 4t36 10v-176q-9 -5 -35 -10.5t-76 -5.5q-109 0 -166 59t-57 162q0 57 21 101.5t57 74.5t85 46t105 16q64 0 113.5 -22
t89.5 -55t72 -71.5t60.5 -71.5t56 -55t57.5 -22q20 0 27.5 13t7.5 32z" />
    <glyph glyph-name="uni19B1" unicode="&#x19b1;" horiz-adv-x="981" 
d="M72 987q107 62 309 62q117 0 214 -37.5t166.5 -105.5t108.5 -162t39 -207q0 -131 -41 -235t-116.5 -177t-181.5 -111.5t-236 -38.5q-91 0 -155.5 12.5t-106.5 35.5v268q98 -74 221 -74q68 0 122.5 20.5t92.5 59t59 94t21 125.5q0 68 -19.5 121.5t-56 91.5t-89.5 58
t-120 20q-118 0 -231 -74v254z" />
    <glyph glyph-name="uni19B2" unicode="&#x19b2;" horiz-adv-x="1354" 
d="M670 -25q-132 0 -239 58.5t-182.5 175.5t-116 293t-40.5 411q0 254 40.5 438.5t116.5 304t185.5 177t247.5 57.5q133 0 240 -55.5t182.5 -171.5t116.5 -295.5t41 -427.5q0 -243 -42 -424.5t-119.5 -301.5t-187 -179.5t-243.5 -59.5zM668 827q-75 0 -141.5 -30t-108.5 -90
q3 -116 24.5 -207t56 -153.5t79.5 -95t96 -32.5t94.5 32t76.5 94t52.5 153t22.5 209q-18 29 -45.5 51.5t-60.5 37.5t-70.5 23t-75.5 8zM676 1647q-62 0 -112 -44.5t-84.5 -132.5t-53 -217.5t-18.5 -300.5q18 26 45.5 47t62.5 36t76 23.5t86 8.5q86 0 154.5 -31t103.5 -82
q0 352 -67 522.5t-193 170.5z" />
    <glyph glyph-name="uni19B3" unicode="&#x19b3;" horiz-adv-x="981" 
d="M588 516q0 68 -19.5 121.5t-56 91.5t-89.5 58t-120 20q-118 0 -231 -74v254q107 62 309 62q117 0 214 -37.5t166.5 -105.5t108.5 -162t39 -207q0 -124 -37.5 -223.5t-105.5 -171.5t-164.5 -114t-214.5 -51v-274q0 -65 17.5 -112t47 -77t68.5 -44.5t82 -14.5
q68 0 141 22.5t138 67.5v-250q-32 -18 -71.5 -32t-82 -23.5t-86 -14.5t-82.5 -5q-126 0 -218 36.5t-151.5 105t-88.5 165.5t-29 219v537q55 -29 125 -44.5t151 -15.5q58 0 102.5 22.5t75 62.5t46.5 93.5t16 114.5z" />
    <glyph glyph-name="uni19B4" unicode="&#x19b4;" horiz-adv-x="1233" 
d="M784 152h-4q-116 -177 -315 -177q-348 0 -348 420v629h315v-582q0 -225 164 -225q84 0 136 62.5t52 160.5v584h316v-1255q0 -48 6.5 -84.5t22 -61.5t41.5 -38t65 -13q46 0 86 12v-225q-29 -8 -65 -13t-76 -5q-108 0 -183 24.5t-122.5 72.5t-69 119t-21.5 164v431z" />
    <glyph glyph-name="uni19B5" unicode="&#x19b5;" horiz-adv-x="1278" 
d="M1188 600q0 -25 -4 -56.5t-10 -65t-13.5 -67t-13.5 -62t-10 -50.5t-4 -33q0 -47 73 -47v-252q-99 0 -173.5 9.5t-125 33.5t-75.5 66t-25 106q0 43 8.5 91.5t19 99.5t19 101.5t8.5 98.5q0 43 -8.5 85.5t-33 76.5t-68.5 55t-115 21q-75 0 -122 -25t-73.5 -66.5t-35.5 -96
t-9 -113.5q0 -75 11.5 -129t31.5 -89t47.5 -54t59.5 -25v-256q-136 14 -227.5 56.5t-146.5 112t-78 165t-23 213.5t30 218t96.5 172.5t174.5 113.5t264 41q151 0 256 -37t170.5 -99t95 -143t29.5 -170z" />
    <glyph glyph-name="uni19B6" unicode="&#x19b6;" horiz-adv-x="2494" 
d="M1188 600q0 -25 -4 -56.5t-10 -65t-13.5 -67t-13.5 -62t-10 -50.5t-4 -33q0 -47 73 -47v-252q-99 0 -173.5 9.5t-125 33.5t-75.5 66t-25 106q0 43 8.5 91.5t19 99.5t19 101.5t8.5 98.5q0 43 -8.5 85.5t-33 76.5t-68.5 55t-115 21q-75 0 -122 -25t-73.5 -66.5t-35.5 -96
t-9 -113.5q0 -75 11.5 -129t31.5 -89t47.5 -54t59.5 -25v-256q-136 14 -227.5 56.5t-146.5 112t-78 165t-23 213.5t30 218t96.5 172.5t174.5 113.5t264 41q151 0 256 -37t170.5 -99t95 -143t29.5 -170zM2405 600q0 -25 -4 -56.5t-10 -65t-13.5 -67t-13.5 -62t-10 -50.5
t-4 -33q0 -47 73 -47v-252q-99 0 -173.5 9.5t-125 33.5t-75.5 66t-25 106q0 43 8.5 91.5t19 99.5t19 101.5t8.5 98.5q0 43 -8.5 85.5t-33 76.5t-68.5 55t-115 21q-75 0 -122 -25t-73.5 -66.5t-35.5 -96t-9 -113.5q0 -75 11.5 -129t31.5 -89t47.5 -54t59.5 -25v-256
q-136 14 -227.5 56.5t-146.5 112t-78 165t-23 213.5t30 218t96.5 172.5t174.5 113.5t264 41q151 0 256 -37t170.5 -99t95 -143t29.5 -170z" />
    <glyph glyph-name="uni19B7" unicode="&#x19b7;" horiz-adv-x="961" 
d="M659 217q45 0 83.5 6t72 16.5t62.5 23.5t55 28v-254q-53 -29 -135.5 -45.5t-188.5 -16.5q-124 0 -223.5 42.5t-169 122t-106.5 192t-37 252.5q0 124 27.5 212.5t73 150t104 101t120.5 64.5q-43 16 -89 44t-83.5 72t-61.5 105.5t-24 143.5q0 86 29 161t87 131t146 88.5
t205 32.5q79 0 151.5 -12t141.5 -41v-248q-54 31 -122 49.5t-136 18.5q-48 0 -82.5 -16t-56.5 -42t-32.5 -58.5t-10.5 -65.5q0 -52 13.5 -95t42 -74t72.5 -48t105 -17h33v-237h-39q-60 0 -113.5 -27.5t-93 -80t-63 -128t-23.5 -172.5q0 -99 21 -170.5t57 -118t84.5 -68.5
t103.5 -22z" />
    <glyph glyph-name="uni19B8" unicode="&#x19b8;" horiz-adv-x="1180" 
d="M246 211q35 0 68 5.5t65 16.5q-99 106 -149 216.5t-50 207.5q0 75 21 146t69.5 125.5t127.5 87.5t196 33q104 0 181 -29.5t128 -82t76 -124.5t25 -156q0 -48 -13 -101t-38.5 -107t-63 -108.5t-86.5 -107.5q64 -22 133 -22q72 0 125 17.5t98 41.5v-233q-15 -11 -39.5 -22
t-55.5 -20t-66.5 -14.5t-71.5 -5.5q-96 0 -180 20.5t-156 57.5q-72 -37 -156 -57.5t-180 -20.5q-36 0 -71.5 5.5t-67 14.5t-56 20t-39.5 22v233q45 -24 99.5 -41.5t126.5 -17.5zM592 840q-21 0 -40 -10.5t-34 -32.5t-24 -57t-9 -83q0 -71 27 -145t78 -139q51 65 79.5 138.5
t28.5 139.5q0 54 -9.5 90.5t-24.5 58t-34 31t-38 9.5z" />
    <glyph glyph-name="uni19B9" unicode="&#x19b9;" horiz-adv-x="1354" 
d="M670 -25q-132 0 -239 58.5t-182.5 175.5t-116 293t-40.5 411q0 254 40.5 438.5t116.5 304t185.5 177t247.5 57.5q133 0 240 -55.5t182.5 -171.5t116.5 -295.5t41 -427.5q0 -243 -42 -424.5t-119.5 -301.5t-187 -179.5t-243.5 -59.5zM668 827q-75 0 -141.5 -30t-108.5 -90
q3 -116 24.5 -207t56 -153.5t79.5 -95t96 -32.5t94.5 32t76.5 94t52.5 153t22.5 209q-18 29 -45.5 51.5t-60.5 37.5t-70.5 23t-75.5 8zM408 952q26 39 75.5 66.5t112.5 40.5v565q-90 -51 -139 -220t-49 -452zM936 954q0 283 -43.5 447.5t-126.5 218.5v-563q56 -13 100 -39
t70 -64z" />
    <glyph glyph-name="uni19BA" unicode="&#x19ba;" horiz-adv-x="981" 
d="M594 1407q0 65 -17.5 112t-47 77t-68.5 44.5t-82 14.5q-68 0 -141 -22.5t-138 -67.5v250q32 18 71.5 32t82 23.5t86 14.5t82.5 5q126 0 218 -36.5t151.5 -105t88.5 -165.5t29 -219v-631q-98 74 -221 74q-67 0 -122 -20.5t-93 -59t-59 -94t-21 -125.5q0 -67 19.5 -121
t56.5 -92t89.5 -58t119.5 -20q118 0 231 74v-254q-107 -62 -309 -62q-117 0 -214.5 37.5t-167 105t-108 161.5t-38.5 208q0 124 37 223.5t105 171.5t164.5 114t215.5 51v360z" />
    <glyph glyph-name="uni19BB" unicode="&#x19bb;" horiz-adv-x="1669" 
d="M594 23q-57 -23 -122.5 -35.5t-137.5 -12.5q-91 0 -155.5 12.5t-106.5 35.5v268q98 -74 221 -74q68 0 122.5 20.5t92.5 59t59 94t21 125.5q0 68 -19.5 121.5t-56 91.5t-89.5 58t-120 20q-118 0 -231 -74v254q107 62 309 62q117 0 214 -37.5t166.5 -105.5t108.5 -162
t39 -207v-2v-848q0 -113 43 -169.5t115 -56.5q74 0 114 56t40 168v1339h315v-1364q0 -211 -120 -325.5t-349 -114.5q-111 0 -199 29t-149 85.5t-93 138.5t-32 187v363z" />
    <glyph glyph-name="uni19BC" unicode="&#x19bc;" horiz-adv-x="1866" 
d="M791 156h-5q-115 -181 -313 -181q-356 0 -356 431v618h315v-590q0 -217 172 -217q85 0 136 59t51 162v586h315v-1337q0 -113 42.5 -169.5t115.5 -56.5q74 0 113.5 56t39.5 168v1339h316v-1364q0 -211 -120 -325.5t-349 -114.5q-111 0 -199 29t-149 85.5t-93 138.5
t-32 187v496z" />
    <glyph glyph-name="uni19BD" unicode="&#x19bd;" horiz-adv-x="1939" 
d="M864 16q-54 -20 -114.5 -30.5t-128.5 -10.5q-127 0 -228.5 37t-172.5 106t-109.5 167.5t-38.5 222.5q0 128 40 228.5t114 170t178 106t231 36.5t228 -38t171.5 -106.5t108 -165t37.5 -213.5v-839q0 -113 42.5 -169.5t114.5 -56.5q75 0 114.5 56t39.5 168v1339h315v-1364
q0 -211 -120 -325.5t-349 -114.5q-111 0 -199 29t-149 85.5t-93 138.5t-32 187v356zM629 807q-113 0 -174.5 -76.5t-61.5 -218.5q0 -295 238 -295q227 0 227 303q0 287 -229 287z" />
    <glyph glyph-name="uni19BE" unicode="&#x19be;" horiz-adv-x="1622" 
d="M915 -20q-96 0 -179.5 20t-155.5 57q-73 -37 -156.5 -57t-179.5 -20q-36 0 -72 5.5t-67 14t-55.5 19.5t-39.5 22v213q45 -25 99 -42t127 -17q35 0 68 5.5t65 16.5q-49 52 -86.5 109t-62.5 114.5t-37.5 113t-12.5 103.5q0 75 21 146t69 125.5t127.5 87.5t196.5 33
q104 0 181 -29.5t127.5 -82t75.5 -124.5t25 -156q0 -48 -13 -103.5t-38 -113t-62.5 -114.5t-86.5 -109q64 -22 133 -22q78 0 129.5 23.5t83 68.5t44.5 109.5t13 146.5v966q0 188 85.5 284.5t272.5 96.5q68 0 109 -5t70 -13v-225q-20 6 -42.5 9t-43.5 3q-39 0 -65.5 -13
t-42 -38t-22 -61.5t-6.5 -84.5v-923q0 -138 -29 -243t-98 -175t-183.5 -105.5t-285.5 -35.5zM475 657q0 -71 27 -145t78 -139q51 65 79.5 138.5t28.5 139.5q0 54 -9.5 90.5t-24.5 58t-34 31t-38 9.5q-21 0 -40.5 -10.5t-34 -32.5t-23.5 -57t-9 -83z" />
    <glyph glyph-name="uni19BF" unicode="&#x19bf;" horiz-adv-x="2021" 
d="M670 -25q-132 0 -239 58.5t-182.5 175.5t-116 293t-40.5 411q0 254 40.5 438.5t116.5 304t185.5 177t247.5 57.5q133 0 240 -55.5t182.5 -171.5t116.5 -295.5t41 -427.5v-1253q0 -113 42.5 -169.5t114.5 -56.5q75 0 114.5 56t39.5 168v1339h315v-1364q0 -211 -120 -325.5
t-349 -114.5q-111 0 -199 29t-149 85.5t-93 138.5t-32 187v395q-121 -80 -276 -80zM668 827q-75 0 -141.5 -30t-108.5 -90q3 -116 24.5 -207t56 -153.5t79.5 -95t96 -32.5t94.5 32t76.5 94t52.5 153t22.5 209q-18 29 -45.5 51.5t-60.5 37.5t-70.5 23t-75.5 8zM408 952
q26 39 75.5 66.5t112.5 40.5v565q-90 -51 -139 -220t-49 -452zM936 954q0 283 -43.5 447.5t-126.5 218.5v-563q56 -13 100 -39t70 -64z" />
    <glyph glyph-name="uni19C0" unicode="&#x19c0;" horiz-adv-x="2021" 
d="M670 -25q-132 0 -239 58.5t-182.5 175.5t-116 293t-40.5 411q0 254 40.5 438.5t116.5 304t185.5 177t247.5 57.5q133 0 240 -55.5t182.5 -171.5t116.5 -295.5t41 -427.5v-1253q0 -113 42.5 -169.5t114.5 -56.5q75 0 114.5 56t39.5 168v1339h315v-1364q0 -211 -120 -325.5
t-349 -114.5q-111 0 -199 29t-149 85.5t-93 138.5t-32 187v395q-121 -80 -276 -80zM676 1647q-62 0 -112 -44.5t-84.5 -132.5t-53 -217.5t-18.5 -300.5q18 26 45.5 47t62.5 36t76 23.5t86 8.5q86 0 154.5 -31t103.5 -82q0 352 -67 522.5t-193 170.5zM668 827
q-75 0 -141.5 -30t-108.5 -90q3 -116 24.5 -207t56 -153.5t79.5 -95t96 -32.5t94.5 32t76.5 94t52.5 153t22.5 209q-18 29 -45.5 51.5t-60.5 37.5t-70.5 23t-75.5 8z" />
    <glyph glyph-name="uni19C1" unicode="&#x19c1;" horiz-adv-x="1251" 
d="M621 -25q-127 0 -228.5 37t-172.5 106t-109.5 167.5t-38.5 222.5q0 128 40 228.5t114 170t178 106t231 36.5t228 -38t171.5 -108.5t108 -170t37.5 -222.5v-215q0 -237 -38.5 -434.5t-111 -340t-177.5 -221.5t-237 -79q-73 0 -123 19t-80.5 50t-43.5 69t-13 77
q0 97 56.5 153t156.5 56q76 0 129 -33.5t76 -93.5q15 24 27 62t20.5 96.5t14.5 140.5t10 194q-51 -17 -107.5 -26t-117.5 -9zM629 807q-113 0 -174.5 -76.5t-61.5 -218.5q0 -295 238 -295q227 0 227 303q0 287 -229 287zM578 -651q34 0 53.5 21t19.5 59q0 37 -20.5 58
t-55.5 21q-38 0 -57.5 -20t-19.5 -57q0 -39 21 -60.5t59 -21.5z" />
    <glyph glyph-name="uni19C2" unicode="&#x19c2;" horiz-adv-x="1395" 
d="M920 -483q38 58 56 244.5t21 486.5q0 147 -15 254t-50.5 177t-94 104t-145.5 34q-86 0 -144 -28.5t-93.5 -80t-50.5 -124.5t-15 -162q0 -223 74 -223q13 0 27.5 14t32 35t38.5 46t46.5 46t56 35t67.5 14q87 0 135.5 -67t48.5 -201q0 -17 -1 -36.5t-2.5 -38t-4 -35.5
t-4.5 -29h-211q5 26 7.5 55t2.5 49q0 43 -7 62.5t-21 19.5q-12 0 -25.5 -14t-30.5 -35.5t-37.5 -46t-47.5 -46t-61 -35.5t-77 -14q-72 0 -131.5 23t-102 76t-66 139t-23.5 211q0 131 31.5 244.5t104 197.5t190 132.5t288.5 48.5q185 0 308 -54.5t196 -157.5t103 -252.5
t30 -340.5q0 -231 -38 -420t-110.5 -323.5t-176.5 -207.5t-236 -73q-74 0 -124 19t-80 50t-43 69t-13 77q0 97 56.5 153t156.5 56q75 0 128.5 -33.5t76.5 -93.5zM723 -651q34 0 54 21t20 59q0 37 -21 58t-55 21q-38 0 -58 -20t-20 -57q0 -39 21.5 -60.5t58.5 -21.5z" />
    <glyph glyph-name="uni19C3" unicode="&#x19c3;" horiz-adv-x="1094" 
d="M594 -780q-52 0 -107.5 4.5t-107.5 16.5t-98.5 34t-81.5 57t-55.5 84t-20.5 117q0 97 56.5 153t156.5 56q51 0 91.5 -15t69.5 -43.5t44.5 -68.5t15.5 -90q0 -34 -7 -62t-20 -53q62 0 106 28.5t72.5 73t42 99t13.5 106.5q0 49 -8 95.5t-28.5 82.5t-56.5 58t-93 22
q-72 0 -135 2.5t-116 14t-94.5 34.5t-70.5 63t-44.5 100.5t-15.5 146.5v272q0 128 34.5 213t101 135.5t163 71.5t220.5 21q44 0 88 -4t85 -12t78.5 -20t67.5 -28v-264q-61 41 -132 63.5t-169 22.5q-59 0 -100 -12t-66.5 -39t-37 -70t-11.5 -104v-199q0 -58 15.5 -91
t48.5 -49.5t85.5 -21t126.5 -4.5q88 0 160.5 -29.5t124.5 -89t80.5 -149t28.5 -209.5t-30.5 -216.5t-92 -164t-155.5 -103.5t-222 -36zM344 -553q34 0 54 22t20 60q0 35 -21 56.5t-55 21.5q-38 0 -58 -20.5t-20 -55.5q0 -40 21.5 -62t58.5 -22z" />
    <glyph glyph-name="uni19C4" unicode="&#x19c4;" horiz-adv-x="1300" 
d="M651 213q53 0 96 17t68 38q-7 15 -21.5 30t-34.5 27.5t-46 20.5t-58 8q-29 0 -57 -6.5t-53 -17.5t-46 -26t-36 -32q13 -12 34.5 -22.5t47 -19t53 -13t53.5 -4.5zM907 -111q0 14 -1 33t-3 38t-5 36t-7 27q-48 -20 -111 -34t-129 -14q-153 0 -263 41t-180 113.5t-103 172.5
t-33 218q0 119 23 214t78 164.5t146.5 112t227.5 56.5v-256q-32 -6 -59.5 -25t-47.5 -54t-31.5 -89t-11.5 -129v-31q29 25 63 41.5t69.5 27t68.5 15t59 4.5q65 0 129.5 -16t116.5 -53v10q0 76 -11 130t-30.5 89.5t-47 54.5t-60.5 25v256q130 -14 220.5 -56.5t147 -112
t82 -164.5t25.5 -214q0 -91 -18.5 -167t-55.5 -142q28 -62 49 -137.5t21 -163.5q0 -173 -42 -302.5t-118.5 -215.5t-183 -129t-234.5 -43q-52 0 -107.5 4.5t-108 16.5t-99.5 34t-82 57t-55.5 84t-20.5 117q0 97 56.5 153t156.5 56q51 0 91.5 -15t69.5 -43.5t44.5 -68.5
t15.5 -90q0 -34 -7 -62t-19 -53q70 0 129.5 25t103 81.5t68 148t24.5 224.5zM395 -553q34 0 54 22t20 60q0 35 -21 56.5t-55 21.5q-38 0 -58 -20.5t-20 -55.5q0 -40 21.5 -62t58.5 -22z" />
    <glyph glyph-name="uni19C5" unicode="&#x19c5;" horiz-adv-x="1868" 
d="M1448 -12q-28 -6 -56 -9.5t-59 -3.5q-99 0 -167.5 16t-121.5 42v241q26 -13 51.5 -24.5t54 -20t60 -13.5t68.5 -5q35 0 68 14.5t58.5 49t40.5 90.5t15 139q0 152 -48 231.5t-155 79.5q-37 0 -69.5 -14t-57 -44t-39 -76t-14.5 -110h-299q0 64 -14.5 110t-39 76t-57 44
t-69.5 14q-106 0 -154.5 -79.5t-48.5 -231.5q0 -83 15 -139t40.5 -90.5t58.5 -49t69 -14.5q37 0 68.5 5t59.5 13.5t54 20t51 24.5v-241q-53 -26 -121.5 -42t-167.5 -16q-104 0 -187.5 36t-142 104t-89.5 166.5t-31 222.5q0 131 32.5 233t95 172t154 106t209.5 36
q75 0 133.5 -13.5t103.5 -37.5t76.5 -56.5t51.5 -69.5q20 37 51.5 69.5t77.5 56.5t107.5 37.5t140.5 13.5q112 0 200.5 -35.5t150 -103.5t94.5 -168t34 -228v-221q0 -237 -38.5 -434.5t-111 -340t-177 -221.5t-236.5 -79q-74 0 -124 19t-80 50t-43 69t-13 77q0 97 56 153
t157 56q75 0 128 -33.5t76 -93.5q15 24 26.5 59t20 89t14 132.5t9.5 190.5zM1182 -651q34 0 53.5 21t19.5 59q0 37 -20.5 58t-54.5 21q-39 0 -58.5 -20t-19.5 -57q0 -39 21.5 -60.5t58.5 -21.5z" />
    <glyph glyph-name="uni19C6" unicode="&#x19c6;" horiz-adv-x="1018" 
d="M975 -260q0 -120 -30.5 -216.5t-92 -164t-155.5 -103.5t-222 -36q-52 0 -107.5 4.5t-107.5 16.5t-98.5 34t-81.5 57t-55.5 84t-20.5 117q0 97 56.5 153t156.5 56q51 0 91.5 -15t69.5 -43.5t44.5 -68.5t15.5 -90q0 -34 -7 -62t-19 -53q61 0 105 28.5t72.5 73t42 99
t13.5 106.5q0 51 -7 101.5t-30 91t-65 65.5t-113 25h-37v215h10q51 0 91 22t67.5 61.5t42 95.5t14.5 124q0 65 -15.5 119t-46.5 92.5t-78 60t-111 21.5q-93 0 -162.5 -20.5t-126.5 -57.5v254q109 62 311 62q125 0 227.5 -36t175.5 -104.5t112.5 -168t39.5 -226.5
q0 -78 -15 -142t-42 -113.5t-63.5 -85t-78.5 -56.5q65 -18 109 -55.5t71 -87.5t38.5 -110t11.5 -124zM225 -553q34 0 54 22t20 60q0 35 -21 56.5t-55 21.5q-38 0 -58 -20.5t-20 -55.5q0 -40 21.5 -62t58.5 -22z" />
    <glyph glyph-name="uni19C7" unicode="&#x19c7;" horiz-adv-x="1300" 
d="M895 8q-53 -15 -114 -24t-130 -9q-153 0 -263 41t-180 113.5t-103 172.5t-33 218q0 119 23 214t78 164.5t146.5 112t227.5 56.5v-256q-32 -6 -59.5 -25t-47.5 -54t-31.5 -89t-11.5 -129q0 -59 11.5 -113.5t40.5 -96t78 -66.5t124 -25q72 0 120 23t77.5 63.5t42 95
t12.5 117.5q0 76 -11 130t-30.5 89.5t-47 54.5t-60.5 25v256q130 -14 220.5 -56.5t147 -112t82 -164.5t25.5 -214v-24v-201q0 -237 -38.5 -434.5t-111 -340t-177 -221.5t-236.5 -79q-74 0 -124 19t-80 50t-43 69t-13 77q0 97 56 153t156 56q76 0 129 -33.5t76 -93.5
q15 24 27 62t20.5 96t14.5 139.5t10 193.5zM627 -651q34 0 53.5 21t19.5 59q0 37 -20.5 58t-54.5 21q-39 0 -58.5 -20t-19.5 -57q0 -39 21.5 -60.5t58.5 -21.5z" />
    <glyph glyph-name="uni19C8" unicode="&#x19c8;" horiz-adv-x="1112" 
d="M1051 317q0 -74 -26.5 -137t-82 -108.5t-141 -71t-203.5 -25.5q-119 0 -216 35.5t-166 104t-106.5 169t-37.5 230.5q0 128 38.5 228t110.5 168t175 103.5t233 35.5q51 0 103.5 -4.5t101 -13t91 -21.5t74.5 -31v-240q-65 35 -148.5 60.5t-182.5 25.5q-75 0 -128.5 -16.5
t-88 -48t-52 -76t-20.5 -100.5q57 21 130 30t157 9q104 0 177 -23t119 -64t67.5 -97t21.5 -122zM598 188q42 0 73 10.5t50.5 27.5t29 39t9.5 46q0 23 -7.5 44t-25 37t-45.5 26t-70 10q-72 0 -127 -12.5t-100 -34.5q9 -39 26.5 -74.5t44.5 -61.5t62.5 -41.5t79.5 -15.5z" />
    <glyph glyph-name="uni19C9" unicode="&#x19c9;" horiz-adv-x="1112" 
d="M1051 723q0 -69 -24 -124.5t-72 -95t-120 -60.5t-169 -21q-84 0 -154 8.5t-127 30.5q3 -56 19.5 -104t50 -83t86 -55t127.5 -20q99 0 182.5 25.5t148.5 60.5v-240q-32 -18 -74.5 -31t-91 -21.5t-101 -13t-103.5 -4.5q-130 0 -233 35.5t-175 104t-110.5 168t-38.5 227.5
q0 130 37.5 230.5t106.5 169t166 104t216 35.5q109 0 193.5 -23t142 -65.5t87.5 -102.5t30 -135zM592 836q-88 0 -139 -47t-68 -125q45 -22 96 -35t125 -13q47 0 77 9.5t47 25t23.5 36t6.5 42.5q0 48 -41.5 77.5t-126.5 29.5z" />
    <glyph glyph-name="uni19D0" unicode="&#x19d0;" horiz-adv-x="1354" 
d="M672 -25q-138 0 -249 37t-189 106t-120 167.5t-42 222.5q0 128 44 228.5t124 170t193.5 106t252.5 36.5t249.5 -38t187.5 -106.5t118 -165t41 -213.5q0 -127 -42.5 -229.5t-121.5 -173.5t-192 -109.5t-254 -38.5zM680 807q-137 0 -212 -76.5t-75 -218.5q0 -149 73 -222
t218 -73q277 0 277 303q0 287 -281 287z" />
    <glyph glyph-name="uni19D1" unicode="&#x19d1;" horiz-adv-x="981" 
d="M72 987q107 62 309 62q117 0 214 -37.5t166.5 -105.5t108.5 -162t39 -207q0 -131 -41 -235t-116.5 -177t-181.5 -111.5t-236 -38.5q-91 0 -155.5 12.5t-106.5 35.5v268q98 -74 221 -74q68 0 122.5 20.5t92.5 59t59 94t21 125.5q0 68 -19.5 121.5t-56 91.5t-89.5 58
t-120 20q-118 0 -231 -74v254z" />
    <glyph glyph-name="uni19D2" unicode="&#x19d2;" horiz-adv-x="1268" 
d="M508 -659q-84 0 -149 4.5t-118 13.5t-96.5 23t-83.5 34v269q81 -53 177.5 -81t214.5 -28q82 0 154.5 29t126.5 88t85 148.5t31 209.5v418q0 33 -1.5 78t-4.5 91.5t-8.5 88.5t-14.5 68q-5 -38 -20 -72.5t-42 -61t-67 -42t-94 -15.5q-100 0 -156.5 56t-56.5 153q0 51 17 94
t53.5 74.5t93 49.5t135.5 18q246 0 369 -122.5t123 -365.5v-575q0 -149 -51 -268t-141 -203t-212 -129t-264 -45zM606 899q-37 0 -58.5 -22t-21.5 -60q0 -37 20 -57.5t58 -20.5q34 0 55 21.5t21 58.5t-20 58.5t-54 21.5z" />
    <glyph glyph-name="uni19D3" unicode="&#x19d3;" horiz-adv-x="979" 
d="M72 987q107 62 309 62q117 0 214 -37.5t166.5 -105.5t108.5 -162t39 -207q0 -121 -34.5 -219t-100.5 -169.5t-161 -115t-216 -53.5q75 -111 138 -187.5t118.5 -123t105.5 -67t101 -20.5q42 0 69 6.5t52 16.5v-236q-25 -15 -61 -21.5t-82 -6.5q-105 0 -196 35
t-180.5 113.5t-184 206t-205.5 312.5v283q98 -74 221 -74q68 0 122.5 20.5t92.5 59t59 94t21 125.5q0 68 -19.5 121.5t-56 91.5t-89.5 58t-120 20q-118 0 -231 -74v254z" />
    <glyph glyph-name="uni19D4" unicode="&#x19d4;" horiz-adv-x="1151" 
d="M688 809q-71 0 -122 -19.5t-84 -52.5t-48.5 -77.5t-15.5 -94.5q0 -48 15 -93.5t48 -81t87 -56.5t132 -21q85 0 172.5 22t180.5 56v-239q-85 -75 -168.5 -174t-156.5 -207t-131.5 -219t-92.5 -211h-373q42 107 101 208.5t137 196.5t176 184t219 172q-48 -15 -101 -22.5
t-128 -7.5q-109 0 -194.5 37t-145 103t-90.5 156t-31 197t37.5 196t110 153t177.5 99.5t240 35.5q64 0 124 -4.5t113 -13t97.5 -20t77.5 -26.5v-264q-62 42 -154.5 65t-208.5 23z" />
    <glyph glyph-name="uni19D5" unicode="&#x19d5;" horiz-adv-x="1726" 
d="M1278 504q0 63 -3.5 119t-18.5 97.5t-45 66t-83 24.5q-43 0 -70.5 -21.5t-44 -57.5t-24.5 -82t-12 -95h-279q-4 49 -12 95t-24.5 82t-44 57.5t-70.5 21.5q-53 0 -83 -24.5t-45 -66t-18.5 -97.5t-3.5 -119q0 -75 11.5 -128t31.5 -87t47.5 -52t59.5 -24v-256
q-136 14 -227.5 56.5t-146.5 112t-78 165t-23 213.5q0 115 16.5 214.5t63 173t131 115.5t219.5 42q76 0 130 -14t93 -41t65.5 -67t47.5 -91q21 51 47.5 91t65 67t93 41t130.5 14q135 0 217.5 -42t127 -115.5t59.5 -173t15 -214.5v-783q0 -188 -97.5 -284t-283.5 -96
q-165 0 -253.5 79t-88.5 228q0 42 8 77.5t13 45.5h227q-6 -20 -10 -43.5t-4 -49.5q0 -19 4 -36.5t13.5 -30.5t25 -21t37.5 -8q50 0 72 32t22 77v813z" />
    <glyph glyph-name="uni19D6" unicode="&#x19d6;" horiz-adv-x="1323" 
d="M772 -25q-340 0 -507 238t-173 713q-3 241 45.5 422t143.5 301.5t234.5 180.5t318.5 60q123 0 212 -22.5t152 -63.5v-254q-69 47 -157 76t-203 29q-217 0 -318.5 -186.5t-101.5 -548.5q0 -203 23 -338.5t68.5 -217t113 -115.5t155.5 -34q79 0 118.5 24.5t39.5 69.5
q0 22 -8 39.5t-29 35t-57.5 36.5t-93.5 43q-110 46 -165 120.5t-55 186.5q0 78 33.5 132t88 87t123 47.5t138.5 14.5q78 0 151 -12t120 -29v-226q-50 26 -114 40t-124 14q-65 0 -93 -21t-28 -47q0 -21 12 -37.5t37.5 -32.5t64 -33t91.5 -38q44 -18 84.5 -42.5t71 -61.5
t49 -87t18.5 -119q0 -77 -28 -140.5t-87 -108.5t-149 -70t-215 -25z" />
    <glyph glyph-name="uni19D7" unicode="&#x19d7;" horiz-adv-x="1839" 
d="M1593 -309q0 -45 22 -77t73 -32q22 0 37 8t24.5 21t13.5 30.5t4 36.5q0 26 -4 49.5t-10 43.5h227q3 -5 6.5 -17t6.5 -28.5t5.5 -36.5t2.5 -41q0 -149 -88.5 -228t-253.5 -79q-186 0 -283.5 96t-97.5 284v783q0 63 -3.5 119t-18.5 97.5t-45 66t-83 24.5q-43 0 -70.5 -21.5
t-44 -57.5t-24.5 -82t-12 -95h-279q-4 49 -12 95t-24.5 82t-44 57.5t-70.5 21.5q-53 0 -83 -24.5t-45 -66t-18.5 -97.5t-3.5 -119q0 -75 11.5 -128t31.5 -87t47.5 -52t59.5 -24v-256q-136 14 -227.5 56.5t-146.5 112t-78 165t-23 213.5q0 115 16.5 214.5t63 173t131 115.5
t219.5 42q76 0 130 -14t93 -41t65.5 -67t47.5 -91q21 51 47.5 91t65 67t93 41t130.5 14q135 0 217.5 -42t127 -115.5t59.5 -173t15 -214.5v-813z" />
    <glyph glyph-name="uni19D8" unicode="&#x19d8;" horiz-adv-x="1262" 
d="M631 797q-23 -100 -53 -205.5t-67.5 -209t-82 -201t-96.5 -181.5h-332q78 114 143 242t118 260t94 265t69 257h414q28 -124 68.5 -257t94 -265t118.5 -260t143 -242h-312q-52 84 -100 181.5t-89 201t-74 209t-56 205.5z" />
    <glyph glyph-name="uni19D9" unicode="&#x19d9;" horiz-adv-x="1411" 
d="M92 180q0 226 41.5 390t125 270.5t209.5 157.5t296 51q155 0 264.5 -36.5t178.5 -102.5t100.5 -158t31.5 -203q0 -102 -27.5 -182.5t-81 -136t-132.5 -84.5t-183 -29q-90 0 -155.5 21t-108 58t-62.5 87.5t-20 109.5q0 40 7.5 79t25.5 73h248q-8 -23 -13.5 -52.5
t-5.5 -64.5q0 -43 23 -65.5t61 -22.5q22 0 41.5 8t34 30.5t23 62.5t8.5 104q0 57 -13.5 107t-45 86.5t-81.5 57.5t-124 21q-178 0 -259 -158.5t-81 -472.5q0 -128 25.5 -239t77 -192.5t130 -128t183.5 -46.5q118 0 213 27.5t170 75.5v-256q-47 -23 -93.5 -39t-95.5 -26.5
t-102.5 -15.5t-114.5 -5q-186 0 -321.5 66t-224 180t-131 266.5t-42.5 326.5z" />
    <glyph glyph-name="uni19DE" unicode="&#x19de;" horiz-adv-x="1886" 
d="M1776 489q0 -119 -22.5 -214t-71 -162t-124.5 -102.5t-182 -35.5q-86 0 -156 23t-132.5 71.5t-121.5 123.5t-122 180l-111 178q-43 69 -74.5 116t-56.5 76t-46.5 41.5t-45.5 12.5t-45 -16t-36.5 -49.5t-24.5 -86.5t-9 -127q0 -67 11.5 -123t34.5 -97t57.5 -64t79.5 -23
q51 0 95 11.5t75 27.5v-232q-41 -20 -96 -31.5t-113 -11.5q-108 0 -194 40t-147 113t-93.5 175t-32.5 225q0 128 34.5 225t93 163t136.5 99.5t164 33.5t156 -23.5t132.5 -73t121.5 -125t122 -180.5l105 -172q42 -69 74 -116.5t58.5 -76.5t49.5 -42t47 -13t41.5 13t29.5 44.5
t17.5 85.5t5.5 136v1003q0 188 86 284.5t273 96.5q34 0 60.5 -1.5t47.5 -4t38 -5.5t32 -7v-225q-20 6 -42.5 9t-43.5 3q-39 0 -65 -13t-41.5 -38t-22 -61.5t-6.5 -84.5v-973z" />
    <glyph glyph-name="uni19DF" unicode="&#x19df;" horiz-adv-x="1886" 
d="M1776 489q0 -119 -22.5 -214t-71 -162t-124.5 -102.5t-182 -35.5q-86 0 -156 23t-132.5 71.5t-121.5 123.5t-122 180l-111 178q-43 69 -74.5 116t-56.5 76t-46.5 41.5t-45.5 12.5t-45 -16t-36.5 -49.5t-24.5 -86.5t-9 -127q0 -67 11.5 -123t34.5 -97t57.5 -64t79.5 -23
q51 0 95 11.5t75 27.5v-232q-41 -20 -96 -31.5t-113 -11.5q-108 0 -194 40t-147 113t-93.5 175t-32.5 225q0 128 34.5 225t93 163t136.5 99.5t164 33.5t156 -23.5t132.5 -73t121.5 -125t122 -180.5l105 -172q42 -69 74 -116.5t58.5 -76.5t49.5 -42t47 -13t41.5 13t29.5 44.5
t17.5 85.5t5.5 136v1003q0 188 86 284.5t273 96.5q34 0 60.5 -1.5t47.5 -4t38 -5.5t32 -7v-225q-20 6 -42.5 9t-43.5 3q-39 0 -65 -13t-41.5 -38t-22 -61.5t-6.5 -84.5v-973zM368 -436q0 78 39 141.5t113 109t180.5 70.5t241.5 25q134 0 240.5 -25t180.5 -70.5t113 -109
t39 -141.5q0 -77 -39 -140.5t-113 -108.5t-180.5 -70t-240.5 -25q-135 0 -241.5 25t-180.5 70t-113 108.5t-39 140.5zM639 -430q0 -100 75 -149.5t224 -49.5t229 49.5t80 149.5q0 51 -20.5 87t-60 58.5t-97 32.5t-131.5 10q-149 0 -224 -42.5t-75 -145.5z" />
    <glyph glyph-name="attachment1" horiz-adv-x="0" 
d="M1686 -416q0 -90 -38 -158t-122 -113.5t-218 -69t-325 -23.5q-117 0 -206 3t-158 8.5t-120.5 13.5t-92.5 18v153q41 -14 100 -23.5t132.5 -15t160 -8t182.5 -2.5q227 0 342 48t115 161q0 51 -27 85.5t-82 55.5t-138.5 30t-197.5 9q-129 0 -211.5 -7.5t-129.5 -20.5
t-65 -31.5t-18 -40.5q0 -28 16.5 -43.5t47.5 -15.5q53 0 99.5 14.5t97 32.5t108.5 32.5t133 14.5q48 0 82 -12t55.5 -33t31 -48.5t9.5 -58.5q0 -16 -2 -33t-5 -32.5t-7 -28.5t-8 -20h-207q6 12 11 30.5t5 38.5q0 19 -9.5 29t-25.5 10q-28 0 -65 -14.5t-83 -31.5
t-101.5 -31.5t-120.5 -14.5q-64 0 -120 13t-97.5 39.5t-65.5 67.5t-24 97q0 70 42 117t125.5 75.5t209 41t292.5 12.5q180 0 311 -17.5t215.5 -56t125.5 -99.5t41 -147z" />
    <glyph glyph-name="attachment2" horiz-adv-x="815" 
d="M559 -121q91 -2 163.5 -21.5t123.5 -56t78.5 -89.5t27.5 -122q0 -83 -38 -151t-116.5 -117t-198 -75.5t-282.5 -26.5q-65 0 -134 5.5t-133 15t-117.5 21.5t-88.5 25v256q45 -19 103.5 -35.5t122.5 -28.5t130 -19t124 -7q84 0 141.5 13t92.5 34.5t50 50t15 60.5
q0 59 -51.5 94t-163.5 35h-113l80 260h221z" />
    <glyph glyph-name="attachment3" horiz-adv-x="815" 
d="M248 41h225l49 -301h-133q-112 0 -163.5 -35t-51.5 -94q0 -32 15 -60.5t50 -50t92.5 -34.5t141.5 -13q59 0 124.5 7t129.5 19t122.5 28.5t102.5 35.5v-256q-34 -13 -88 -25t-117.5 -21.5t-133 -15t-134.5 -5.5q-163 0 -282.5 26.5t-198 75.5t-116.5 117t-38 151
q0 69 33 122t90.5 89.5t136 56t168.5 21.5z" />
    <glyph glyph-name="attachment4" horiz-adv-x="1276" 
d="M1044 55h246v-530q0 -60 -10 -115t-36 -96.5t-69.5 -66.5t-111.5 -25q-60 0 -124.5 27t-130 68t-131 88t-126.5 88t-116 68t-101 27q-38 0 -63 -21t-25 -69t23 -74t89 -26q26 0 51 3t47 7t39 9t25 8v-181q-6 -2 -23.5 -6t-41.5 -8t-53.5 -7t-59.5 -3q-108 0 -179.5 23
t-113.5 62t-59 91t-17 110q0 57 18 107t57 87.5t100.5 59t148.5 21.5q69 0 138.5 -25t136 -62t128 -81t114.5 -81t95.5 -62t71.5 -25q34 0 48.5 34.5t14.5 94.5v481z" />
    <glyph glyph-name="attachment5" horiz-adv-x="1778" 
d="M315 -436q0 78 39 141.5t113 109t180.5 70.5t241.5 25q134 0 240.5 -25t180.5 -70.5t113 -109t39 -141.5q0 -77 -39 -140.5t-113 -108.5t-180.5 -70t-240.5 -25q-135 0 -241.5 25t-180.5 70t-113 108.5t-39 140.5zM586 -430q0 -100 75 -149.5t224 -49.5t229 49.5
t80 149.5q0 51 -20.5 87t-60 58.5t-97 32.5t-131.5 10q-149 0 -224 -42.5t-75 -145.5z" />
    <glyph glyph-name="attachment6" horiz-adv-x="1778" 
d="M459 -436q0 78 31 141.5t88 109t136 70.5t175 25t175 -25t136 -70.5t88 -109t31 -141.5q0 -77 -31 -140.5t-88 -108.5t-136 -70t-175 -25t-175 25t-136 70t-88 108.5t-31 140.5zM690 -436q0 -101 52 -147t143 -46q94 0 149.5 46t55.5 147q0 53 -14.5 90t-41 60
t-64.5 33.5t-85 10.5q-45 0 -81.5 -10.5t-61.5 -33.5t-38.5 -60t-13.5 -90z" />
    <glyph glyph-name="uni25CC" unicode="&#x25cc;" horiz-adv-x="1763" 
d="M1470 1167q60 -75 99 -168l-117 -47q-14 39 -34.5 75t-47.5 67zM295 1167l98 -73q-24 -31 -44.5 -67t-37.5 -75l-114 47q36 93 98 168zM1495 637q2 18 3 38.5t1 41.5q0 20 -1 40.5t-3 41.5l123 14q6 -47 6 -96t-6 -96zM145 621q-6 47 -6 96t6 96l123 -14q-2 -21 -3 -41.5
t-1 -40.5q0 -21 1 -41.5t3 -38.5zM1372 340q49 66 80 139l117 -47q-39 -90 -99 -168zM293 264q-60 78 -96 168l114 47q31 -73 80 -139zM1333 127q-39 -29 -81 -53.5t-87 -42.5l-49 114q41 17 77 37.5t64 42.5zM508 225q29 -22 63.5 -42.5t75.5 -37.5l-49 -114
q-45 18 -87 42.5t-81 53.5zM1165 1403q45 -21 86 -44.5t80 -53.5l-74 -99q-65 49 -141 82zM598 1403l49 -115q-76 -33 -139 -82l-76 99q39 30 80 53.5t86 44.5zM881 1458q51 0 98 -6l-16 -123q-21 2 -41.5 3t-40.5 1q-21 0 -41.5 -1t-38.5 -3l-17 123q45 6 97 6zM883 98
q14 0 37.5 1t42.5 5l16 -122q-49 -7 -96 -7q-52 0 -99 7l17 122q18 -4 42.5 -5t39.5 -1z" />
    <glyph glyph-name="uni25FB" unicode="&#x25fb;" horiz-adv-x="1763" 
d="M285 1196h1196v-1196h-1196v1196zM1356 1071h-948v-946h948v946z" />
    <glyph glyph-name="uni25FC" unicode="&#x25fc;" horiz-adv-x="1763" 
d="M285 1196h1196v-1196h-1196v1196z" />
    <glyph glyph-name="uni25FD" unicode="&#x25fd;" horiz-adv-x="1763" 
d="M555 1044h655v-655h-655v655zM1085 512v410h-407v-410h407z" />
    <glyph glyph-name="uni25FE" unicode="&#x25fe;" horiz-adv-x="1763" 
d="M555 1044h655v-655h-655v655z" />
    <glyph glyph-name="uni3001" unicode="&#x3001;" horiz-adv-x="2048" 
d="M723 -20l-217 -218q-154 181 -344 310l217 217q176 -119 344 -309z" />
    <glyph glyph-name="uni3002" unicode="&#x3002;" horiz-adv-x="2048" 
d="M147 0q0 52 20 98t54 80t80 54t98 20q53 0 98.5 -20t80 -54t54 -80t19.5 -98t-19.5 -98t-54 -80t-80 -54t-98.5 -20q-52 0 -98 20t-80 54t-54 80t-20 98zM307 0q0 -19 7 -36t19.5 -29.5t29.5 -19.5t36 -7q20 0 36.5 7t29.5 19.5t20 29.5t7 36t-7 36t-20 29.5t-29.5 19.5
t-36.5 7q-19 0 -36 -7t-29.5 -19.5t-19.5 -29.5t-7 -36z" />
    <glyph glyph-name="uni3008" unicode="&#x3008;" horiz-adv-x="2048" 
d="M1665 -33l-203 -84l-413 910l403 888l211 -71l-369 -813z" />
    <glyph glyph-name="uni3009" unicode="&#x3009;" horiz-adv-x="2048" 
d="M383 -33l373 830l-369 813l211 71l401 -888l-413 -910z" />
    <glyph glyph-name="uni300A" unicode="&#x300a;" horiz-adv-x="2048" 
d="M1159 788l387 -835l-153 -59l-426 894l436 885l164 -59zM1493 784l387 -821l-164 -63l-420 888l439 881l161 -55z" />
    <glyph glyph-name="uni300B" unicode="&#x300b;" horiz-adv-x="2048" 
d="M649 -106l-153 61l389 833l-410 828l164 59l436 -884zM326 -100l-164 65l387 821l-404 828l162 57l438 -880z" />
    <glyph glyph-name="uniFF01" unicode="&#xff01;" horiz-adv-x="2048" 
d="M500 1434l-39 -988h-256l-37 988h332zM336 -23q-80 0 -132 48.5t-52 117.5q0 72 52.5 118t131.5 46q80 0 131 -46.5t51 -117.5q0 -72 -50.5 -119t-131.5 -47z" />
    <glyph glyph-name="uniFF08" unicode="&#xff08;" horiz-adv-x="2048" 
d="M1890 -326h-258q-323 356 -323 875q0 501 323 885h256q-303 -402 -303 -885t305 -875z" />
    <glyph glyph-name="uniFF09" unicode="&#xff09;" horiz-adv-x="2048" 
d="M417 -326h-256q306 390 306 875q0 481 -306 885h258q324 -385 324 -885q0 -515 -326 -875z" />
    <glyph glyph-name="uniFF0C" unicode="&#xff0c;" horiz-adv-x="2048" 
d="M487 252l-147 -506h-246l102 506h291z" />
    <glyph glyph-name="uniFF0E" unicode="&#xff0e;" horiz-adv-x="2048" 
d="M325 -25q-78 0 -130 48t-52 118q0 72 53.5 118t133.5 46q81 0 132.5 -46.5t51.5 -117.5q0 -73 -52.5 -119.5t-136.5 -46.5z" />
    <glyph glyph-name="uniFF1A" unicode="&#xff1a;" horiz-adv-x="2048" 
d="M325 707q-78 0 -130 47.5t-52 117.5q0 72 53.5 118t133.5 46q81 0 132.5 -46.5t51.5 -117.5q0 -73 -52.5 -119t-136.5 -46zM325 -25q-78 0 -130 48t-52 118q0 72 53.5 118t133.5 46q81 0 132.5 -46.5t51.5 -117.5q0 -73 -52.5 -119.5t-136.5 -46.5z" />
    <glyph glyph-name="uniFF1B" unicode="&#xff1b;" horiz-adv-x="2048" 
d="M332 707q-79 0 -131 48t-52 117q0 73 52.5 118.5t132.5 45.5q81 0 132.5 -46.5t51.5 -117.5q0 -73 -51 -119t-135 -46zM483 252l-147 -506h-246l102 506h291z" />
    <glyph glyph-name="uniFF1F" unicode="&#xff1f;" horiz-adv-x="2048" 
d="M314 415q-10 26 -15.5 58.5t-5.5 61.5q0 46 9 84t27 71.5t45 64t63 60.5q38 32 66.5 59.5t48.5 55t30 57t10 65.5q0 31 -11 57.5t-31.5 45.5t-50 30t-65.5 11q-78 0 -162 -32.5t-159 -98.5v301q77 46 168 69t188 23q93 0 173 -20.5t139.5 -64.5t93 -112.5t33.5 -164.5
q0 -61 -14 -110.5t-41 -93.5t-67 -84.5t-92 -83.5q-35 -29 -61.5 -54t-44 -49.5t-26.5 -52t-9 -62.5q0 -24 6.5 -49t17.5 -42h-263zM460 -23q-80 0 -133 48q-53 50 -53 118q0 70 53 117t133 47q79 0 131 -47q52 -46 52 -117q0 -72 -51 -119q-52 -47 -132 -47z" />
    <glyph glyph-name="uni19DA" unicode="&#x19da;" horiz-adv-x="1257" 
d="M553 1049q118 0 193.5 -41t109.5 -115q18 35 31.5 79.5t22.5 92.5t13.5 98t4.5 97q0 80 -18.5 149.5t-49.5 120.5h332q26 -48 40.5 -107.5t14.5 -140.5q0 -98 -25 -188t-65 -171.5t-88.5 -155t-95.5 -138.5h-240q0 41 -9.5 75.5t-27.5 59t-44 38t-58 13.5q-97 0 -148 -79
t-51 -232q0 -297 252 -297q33 0 69 5.5t71 15t66.5 22t55.5 26.5v-245q-59 -28 -140 -42t-177 -14q-112 0 -207.5 30t-165 94t-108.5 164t-39 241q0 137 35 239.5t98 170.5t151.5 101.5t196.5 33.5z" />
    <glyph glyph-name="uni19AA" unicode="&#x19aa;" horiz-adv-x="1855" 
d="M819 154q-68 -85 -169.5 -132t-229.5 -47q-100 0 -183.5 14t-164.5 54v250q71 -45 139 -62.5t133 -17.5q67 0 116 21.5t81 60t47.5 92t15.5 117.5q0 65 -14.5 121.5t-46 97.5t-81 64.5t-118.5 23.5q-77 0 -144 -21.5t-118 -56.5v258q60 28 136 43t175 15
q122 0 221.5 -36.5t170 -105t109 -168t38.5 -225.5q0 -70 25 -125.5t66 -94.5t94.5 -60t111.5 -21q55 0 97.5 21.5t71 61t43.5 95.5t15 125q0 65 -13.5 119.5t-41.5 93.5t-71 60.5t-101 21.5q-72 0 -133.5 -21.5t-112.5 -56.5v258q54 29 117.5 43.5t144.5 14.5
q122 0 221.5 -36.5t170 -105t109 -168t38.5 -225.5q0 -128 -37 -228.5t-105 -169.5t-164.5 -105t-215.5 -36q-80 0 -146 12t-120 35t-98 56.5t-79 75.5zM354 -436q0 78 39 141.5t113 109t180.5 70.5t241.5 25q134 0 240.5 -25t180.5 -70.5t113 -109t39 -141.5
q0 -77 -39 -140.5t-113 -108.5t-180.5 -70t-240.5 -25q-135 0 -241.5 25t-180.5 70t-113 108.5t-39 140.5zM625 -430q0 -100 75 -149.5t224 -49.5t229 49.5t80 149.5q0 51 -20.5 87t-60 58.5t-97 32.5t-131.5 10q-149 0 -224 -42.5t-75 -145.5z" />
    <glyph glyph-name="uni19AB" unicode="&#x19ab;" horiz-adv-x="1321" 
d="M1102 84q38 -17 70.5 -43t56.5 -62t37.5 -81.5t13.5 -100.5q0 -66 -20.5 -120t-55 -97.5t-81 -76.5t-97.5 -58q18 30 32.5 57.5t24 57.5t14.5 64.5t5 78.5q0 42 -20.5 86.5t-61.5 82t-102.5 61.5t-143.5 24v256q33 6 60.5 25t47.5 54.5t31 89.5t11 130q0 63 -12.5 117.5
t-42 95t-78 63.5t-119.5 23q-75 0 -124.5 -25t-78 -66.5t-40 -96t-11.5 -113.5q0 -75 11 -129t31 -89t47.5 -54t59.5 -25v-256q-136 14 -227 56.5t-146 112t-78.5 165t-23.5 213.5v467q0 212 32 382t107 289.5t199.5 183.5t310.5 64q124 0 225 -22.5t164 -63.5v-254
q-69 47 -168 76t-214 29q-69 0 -120 -22.5t-87.5 -63t-60.5 -95t-37.5 -119t-19 -135.5t-5.5 -143v-67q54 18 116.5 28.5t137.5 10.5q153 0 262.5 -40.5t179.5 -113t102.5 -172.5t32.5 -219q0 -140 -34.5 -244.5t-112.5 -175.5zM168 -436q0 78 31 141.5t88 109t136 70.5
t175 25t175 -25t136 -70.5t88 -109t31 -141.5q0 -77 -31 -140.5t-88 -108.5t-136 -70t-175 -25t-175 25t-136 70t-88 108.5t-31 140.5zM399 -436q0 -101 52 -147t143 -46q94 0 149.5 46t55.5 147q0 53 -14.5 90t-41 60t-64.5 33.5t-85 10.5q-45 0 -81.5 -10.5t-61.5 -33.5
t-38.5 -60t-13.5 -90z" />
    <glyph glyph-name="uni200C" unicode="&#x200c;" horiz-adv-x="0" 
d="M37 1288v-1562h-74v1562h74z" />
    <glyph glyph-name="uni200D" unicode="&#x200d;" horiz-adv-x="0" 
d="M37 -274h-74v1388l-133 -135l-49 47l172 170l-172 168l49 49l170 -172l170 172l49 -49l-172 -168l172 -170l-49 -47l-133 135v-1388z" />
    <glyph glyph-name="uniFF61" unicode="&#xff61;" horiz-adv-x="1024" 
d="M147 0q0 52 20 98t54 80t80 54t98 20q53 0 98.5 -20t80 -54t54 -80t19.5 -98t-19.5 -98t-54 -80t-80 -54t-98.5 -20q-52 0 -98 20t-80 54t-54 80t-20 98zM307 0q0 -19 7 -36t19.5 -29.5t29.5 -19.5t36 -7q20 0 36.5 7t29.5 19.5t20 29.5t7 36t-7 36t-20 29.5t-29.5 19.5
t-36.5 7q-19 0 -36 -7t-29.5 -19.5t-19.5 -29.5t-7 -36z" />
    <glyph glyph-name="uniFF64" unicode="&#xff64;" horiz-adv-x="1024" 
d="M723 -20l-217 -218q-154 181 -344 310l217 217q176 -119 344 -309z" />
  </font>
</defs>
</svg>
